<?xml version="1.0" encoding="UTF-8"?>
<svg xmlns="http://www.w3.org/2000/svg" xmlns:xlink="http://www.w3.org/1999/xlink" width="1000" height="350" viewBox="0 0 1000 350">
<defs>
<g>
<g id="glyph-0-0-e0bb49c3">
<path d="M 9.5 0 C 9.5 0 7.921875 0 7.921875 0 C 7.734375 -0.421875 7.609375 -1.03125 7.625 -1.671875 C 7.625 -1.671875 7.640625 -2.578125 7.640625 -2.578125 C 7.65625 -3.84375 7.109375 -4.390625 5.96875 -4.390625 C 5.96875 -4.390625 2.609375 -4.390625 2.609375 -4.390625 C 2.609375 -4.390625 2.609375 0 2.609375 0 C 2.609375 0 1.296875 0 1.296875 0 C 1.296875 0 1.296875 -10.203125 1.296875 -10.203125 C 1.296875 -10.203125 6 -10.203125 6 -10.203125 C 8.015625 -10.203125 9.109375 -9.234375 9.109375 -7.46875 C 9.109375 -6.3125 8.65625 -5.59375 7.5 -5.046875 C 8.609375 -4.5625 8.859375 -4.0625 8.890625 -2.375 C 8.90625 -1.015625 9.015625 -0.65625 9.5 -0.328125 C 9.5 -0.328125 9.5 0 9.5 0 Z M 7.75 -7.296875 C 7.75 -8.4375 7.203125 -9.0625 5.75 -9.0625 C 5.75 -9.0625 2.609375 -9.0625 2.609375 -9.0625 C 2.609375 -9.0625 2.609375 -5.546875 2.609375 -5.546875 C 2.609375 -5.546875 5.75 -5.546875 5.75 -5.546875 C 7.140625 -5.546875 7.75 -6.09375 7.75 -7.296875 Z M 7.75 -7.296875 "/>
</g>
<g id="glyph-0-1-e0bb49c3">
<path d="M 7.1875 -3.328125 C 7.1875 -3.328125 1.78125 -3.328125 1.78125 -3.328125 C 1.8125 -1.65625 2.71875 -0.875 3.9375 -0.875 C 4.875 -0.875 5.53125 -1.265625 5.859375 -2.21875 C 5.859375 -2.21875 7.03125 -2.21875 7.03125 -2.21875 C 6.734375 -0.734375 5.578125 0.203125 3.890625 0.203125 C 1.828125 0.203125 0.5625 -1.21875 0.5625 -3.625 C 0.5625 -6.03125 1.875 -7.546875 3.921875 -7.546875 C 5.296875 -7.546875 6.40625 -6.8125 6.890625 -5.609375 C 7.09375 -5.0625 7.1875 -4.390625 7.1875 -3.328125 Z M 5.9375 -4.375 C 5.9375 -5.515625 5.046875 -6.46875 3.90625 -6.46875 C 2.734375 -6.46875 1.90625 -5.59375 1.8125 -4.28125 C 1.8125 -4.28125 5.921875 -4.28125 5.921875 -4.28125 C 5.9375 -4.3125 5.9375 -4.375 5.9375 -4.375 Z M 5.9375 -4.375 "/>
</g>
<g id="glyph-0-2-e0bb49c3">
<path d="M 3.5625 0 C 3.15625 0.0625 2.890625 0.09375 2.609375 0.09375 C 1.6875 0.09375 1.1875 -0.328125 1.1875 -1.0625 C 1.1875 -1.0625 1.1875 -6.390625 1.1875 -6.390625 C 1.1875 -6.390625 0.203125 -6.390625 0.203125 -6.390625 C 0.203125 -6.390625 0.203125 -7.34375 0.203125 -7.34375 C 0.203125 -7.34375 1.1875 -7.34375 1.1875 -7.34375 C 1.1875 -7.34375 1.1875 -9.359375 1.1875 -9.359375 C 1.1875 -9.359375 2.359375 -9.359375 2.359375 -9.359375 C 2.359375 -9.359375 2.359375 -7.34375 2.359375 -7.34375 C 2.359375 -7.34375 3.5625 -7.34375 3.5625 -7.34375 C 3.5625 -7.34375 3.5625 -6.390625 3.5625 -6.390625 C 3.5625 -6.390625 2.359375 -6.390625 2.359375 -6.390625 C 2.359375 -6.390625 2.359375 -1.578125 2.359375 -1.578125 C 2.359375 -1.0625 2.484375 -0.921875 3 -0.921875 C 3.21875 -0.921875 3.40625 -0.9375 3.5625 -0.984375 C 3.5625 -0.984375 3.5625 0 3.5625 0 Z M 3.5625 0 "/>
</g>
<g id="glyph-0-3-e0bb49c3">
<path d="M 2.140625 0 C 2.140625 0 0.984375 0 0.984375 0 C 0.984375 0 0.984375 -7.34375 0.984375 -7.34375 C 0.984375 -7.34375 2.140625 -7.34375 2.140625 -7.34375 C 2.140625 -7.34375 2.140625 0 2.140625 0 Z M 2.296875 -8.4375 C 2.296875 -8.4375 0.84375 -8.4375 0.84375 -8.4375 C 0.84375 -8.4375 0.84375 -9.890625 0.84375 -9.890625 C 0.84375 -9.890625 2.296875 -9.890625 2.296875 -9.890625 C 2.296875 -9.890625 2.296875 -8.4375 2.296875 -8.4375 Z M 2.296875 -8.4375 "/>
</g>
<g id="glyph-0-4-e0bb49c3">
<path d="M 7.140625 -3.609375 C 7.140625 -1.203125 5.875 0.203125 3.828125 0.203125 C 1.734375 0.203125 0.5 -1.203125 0.5 -3.671875 C 0.5 -6.125 1.75 -7.546875 3.8125 -7.546875 C 5.921875 -7.546875 7.140625 -6.140625 7.140625 -3.609375 Z M 5.921875 -3.625 C 5.921875 -5.453125 5.140625 -6.46875 3.828125 -6.46875 C 2.515625 -6.46875 1.71875 -5.4375 1.71875 -3.671875 C 1.71875 -1.890625 2.515625 -0.875 3.828125 -0.875 C 5.109375 -0.875 5.921875 -1.90625 5.921875 -3.625 Z M 5.921875 -3.625 "/>
</g>
<g id="glyph-0-5-e0bb49c3">
<path d="M 6.8125 0 C 6.8125 0 5.65625 0 5.65625 0 C 5.65625 0 5.65625 -5.078125 5.65625 -5.078125 C 5.65625 -5.96875 5.0625 -6.53125 4.140625 -6.53125 C 2.953125 -6.53125 2.140625 -5.546875 2.140625 -4.046875 C 2.140625 -4.046875 2.140625 0 2.140625 0 C 2.140625 0 0.984375 0 0.984375 0 C 0.984375 0 0.984375 -7.34375 0.984375 -7.34375 C 0.984375 -7.34375 2.0625 -7.34375 2.0625 -7.34375 C 2.0625 -7.34375 2.0625 -6.109375 2.0625 -6.109375 C 2.703125 -7.125 3.40625 -7.546875 4.5 -7.546875 C 5.90625 -7.546875 6.8125 -6.765625 6.8125 -5.546875 C 6.8125 -5.546875 6.8125 0 6.8125 0 Z M 6.8125 0 "/>
</g>
<g id="glyph-0-6-e0bb49c3">
</g>
<g id="glyph-0-7-e0bb49c3">
<path d="M 3.5 2.96875 C 3.5 2.96875 0.890625 2.96875 0.890625 2.96875 C 0.890625 2.96875 0.890625 -10.203125 0.890625 -10.203125 C 0.890625 -10.203125 3.5 -10.203125 3.5 -10.203125 C 3.5 -10.203125 3.5 -9.203125 3.5 -9.203125 C 3.5 -9.203125 2.0625 -9.203125 2.0625 -9.203125 C 2.0625 -9.203125 2.0625 1.953125 2.0625 1.953125 C 2.0625 1.953125 3.5 1.953125 3.5 1.953125 C 3.5 1.953125 3.5 2.96875 3.5 2.96875 Z M 3.5 2.96875 "/>
</g>
<g id="glyph-0-8-e0bb49c3">
<path d="M 6.75 0 C 6.75 0 5.703125 0 5.703125 0 C 5.703125 0 5.703125 -1.140625 5.703125 -1.140625 C 5.015625 -0.171875 4.328125 0.203125 3.25 0.203125 C 1.8125 0.203125 0.90625 -0.578125 0.90625 -1.796875 C 0.90625 -1.796875 0.90625 -7.34375 0.90625 -7.34375 C 0.90625 -7.34375 2.078125 -7.34375 2.078125 -7.34375 C 2.078125 -7.34375 2.078125 -2.25 2.078125 -2.25 C 2.078125 -1.375 2.65625 -0.8125 3.578125 -0.8125 C 4.796875 -0.8125 5.59375 -1.796875 5.59375 -3.296875 C 5.59375 -3.296875 5.59375 -7.34375 5.59375 -7.34375 C 5.59375 -7.34375 6.75 -7.34375 6.75 -7.34375 C 6.75 -7.34375 6.75 0 6.75 0 Z M 6.75 0 "/>
</g>
<g id="glyph-0-9-e0bb49c3">
<path d="M 2.109375 0 C 2.109375 0 0.953125 0 0.953125 0 C 0.953125 0 0.953125 -10.203125 0.953125 -10.203125 C 0.953125 -10.203125 2.109375 -10.203125 2.109375 -10.203125 C 2.109375 -10.203125 2.109375 0 2.109375 0 Z M 2.109375 0 "/>
</g>
<g id="glyph-0-10-e0bb49c3">
<path d="M 6.421875 -2.0625 C 6.421875 -0.640625 5.25 0.203125 3.40625 0.203125 C 1.484375 0.203125 0.53125 -0.546875 0.46875 -2.234375 C 0.46875 -2.234375 1.703125 -2.234375 1.703125 -2.234375 C 1.859375 -1.125 2.453125 -0.875 3.5 -0.875 C 4.515625 -0.875 5.203125 -1.28125 5.203125 -1.953125 C 5.203125 -2.484375 4.890625 -2.734375 4.078125 -2.921875 C 4.078125 -2.921875 2.984375 -3.1875 2.984375 -3.1875 C 1.25 -3.609375 0.65625 -4.15625 0.65625 -5.3125 C 0.65625 -6.65625 1.765625 -7.546875 3.46875 -7.546875 C 5.171875 -7.546875 6.125 -6.734375 6.125 -5.296875 C 6.125 -5.296875 4.90625 -5.296875 4.90625 -5.296875 C 4.875 -6.0625 4.375 -6.46875 3.4375 -6.46875 C 2.484375 -6.46875 1.875 -6.03125 1.875 -5.359375 C 1.875 -4.84375 2.28125 -4.53125 3.234375 -4.3125 C 3.234375 -4.3125 4.359375 -4.046875 4.359375 -4.046875 C 5.8125 -3.703125 6.421875 -3.15625 6.421875 -2.0625 Z M 6.421875 -2.0625 "/>
</g>
<g id="glyph-0-11-e0bb49c3">
<path d="M 2.921875 2.96875 C 2.921875 2.96875 0.328125 2.96875 0.328125 2.96875 C 0.328125 2.96875 0.328125 1.953125 0.328125 1.953125 C 0.328125 1.953125 1.765625 1.953125 1.765625 1.953125 C 1.765625 1.953125 1.765625 -9.203125 1.765625 -9.203125 C 1.765625 -9.203125 0.328125 -9.203125 0.328125 -9.203125 C 0.328125 -9.203125 0.328125 -10.203125 0.328125 -10.203125 C 0.328125 -10.203125 2.921875 -10.203125 2.921875 -10.203125 C 2.921875 -10.203125 2.921875 2.96875 2.921875 2.96875 Z M 2.921875 2.96875 "/>
</g>
<g id="glyph-0-12-e0bb49c3">
<path d="M 4.859375 0 C 4.859375 0 3.625 0 3.625 0 C 3.625 0 3.625 -7.0625 3.625 -7.0625 C 3.625 -7.0625 1.421875 -7.0625 1.421875 -7.0625 C 1.421875 -7.0625 1.421875 -7.953125 1.421875 -7.953125 C 3.328125 -8.1875 3.609375 -8.40625 4.046875 -9.921875 C 4.046875 -9.921875 4.859375 -9.921875 4.859375 -9.921875 C 4.859375 -9.921875 4.859375 0 4.859375 0 Z M 4.859375 0 "/>
</g>
<g id="glyph-0-13-e0bb49c3">
<path d="M 7.09375 -4.78125 C 7.09375 -1.515625 5.953125 0.203125 3.84375 0.203125 C 1.71875 0.203125 0.609375 -1.515625 0.609375 -4.859375 C 0.609375 -8.1875 1.703125 -9.921875 3.84375 -9.921875 C 6 -9.921875 7.09375 -8.21875 7.09375 -4.78125 Z M 5.84375 -4.890625 C 5.84375 -7.546875 5.1875 -8.828125 3.84375 -8.828125 C 2.515625 -8.828125 1.859375 -7.5625 1.859375 -4.84375 C 1.859375 -2.125 2.515625 -0.8125 3.828125 -0.8125 C 5.1875 -0.8125 5.84375 -2.078125 5.84375 -4.890625 Z M 5.84375 -4.890625 "/>
</g>
<g id="glyph-0-14-e0bb49c3">
<path d="M 7.15625 -7.015625 C 7.15625 -5.796875 6.4375 -4.765625 5.046875 -4.015625 C 5.046875 -4.015625 3.65625 -3.265625 3.65625 -3.265625 C 2.4375 -2.546875 1.984375 -2.03125 1.859375 -1.21875 C 1.859375 -1.21875 7.078125 -1.21875 7.078125 -1.21875 C 7.078125 -1.21875 7.078125 0 7.078125 0 C 7.078125 0 0.46875 0 0.46875 0 C 0.59375 -2.1875 1.1875 -3.125 3.265625 -4.296875 C 3.265625 -4.296875 4.546875 -5.03125 4.546875 -5.03125 C 5.4375 -5.53125 5.890625 -6.203125 5.890625 -6.984375 C 5.890625 -8.046875 5.046875 -8.84375 3.9375 -8.84375 C 2.71875 -8.84375 2.03125 -8.140625 1.9375 -6.484375 C 1.9375 -6.484375 0.703125 -6.484375 0.703125 -6.484375 C 0.765625 -8.890625 1.953125 -9.921875 3.96875 -9.921875 C 5.859375 -9.921875 7.15625 -8.6875 7.15625 -7.015625 Z M 7.15625 -7.015625 "/>
</g>
<g id="glyph-0-15-e0bb49c3">
<path d="M 7.078125 -2.890625 C 7.078125 -1.015625 5.765625 0.203125 3.71875 0.203125 C 1.6875 0.203125 0.609375 -0.78125 0.453125 -3 C 0.453125 -3 1.6875 -3 1.6875 -3 C 1.765625 -1.546875 2.421875 -0.875 3.765625 -0.875 C 5.046875 -0.875 5.828125 -1.625 5.828125 -2.875 C 5.828125 -3.96875 5.125 -4.625 3.765625 -4.625 C 3.765625 -4.625 3.09375 -4.625 3.09375 -4.625 C 3.09375 -4.625 3.09375 -5.65625 3.09375 -5.65625 C 5.0625 -5.65625 5.53125 -6.09375 5.53125 -7.15625 C 5.53125 -8.203125 4.875 -8.84375 3.78125 -8.84375 C 2.515625 -8.84375 1.921875 -8.1875 1.890625 -6.71875 C 1.890625 -6.71875 0.65625 -6.71875 0.65625 -6.71875 C 0.703125 -8.828125 1.765625 -9.921875 3.765625 -9.921875 C 5.65625 -9.921875 6.796875 -8.90625 6.796875 -7.203125 C 6.796875 -6.203125 6.328125 -5.5625 5.40625 -5.1875 C 6.59375 -4.78125 7.078125 -4.09375 7.078125 -2.890625 Z M 7.078125 -2.890625 "/>
</g>
<g id="glyph-0-16-e0bb49c3">
<path d="M 6.640625 -1.625 C 6.640625 -1.625 5.96875 -0.953125 5.96875 -0.953125 C 5.96875 -0.953125 4.09375 -2.828125 4.09375 -2.828125 C 4.09375 -2.828125 2.21875 -0.953125 2.21875 -0.953125 C 2.21875 -0.953125 1.546875 -1.625 1.546875 -1.625 C 1.546875 -1.625 3.421875 -3.5 3.421875 -3.5 C 3.421875 -3.5 1.546875 -5.375 1.546875 -5.375 C 1.546875 -5.375 2.21875 -6.046875 2.21875 -6.046875 C 2.21875 -6.046875 4.09375 -4.171875 4.09375 -4.171875 C 4.09375 -4.171875 5.96875 -6.046875 5.96875 -6.046875 C 5.96875 -6.046875 6.640625 -5.375 6.640625 -5.375 C 6.640625 -5.375 4.765625 -3.5 4.765625 -3.5 C 4.765625 -3.5 6.640625 -1.625 6.640625 -1.625 Z M 6.640625 -1.625 "/>
</g>
<g id="glyph-1-0-e0bb49c3">
<path d="M 6.8125 0 C 6.8125 0 5.65625 0 5.65625 0 C 5.65625 0 5.65625 -5.078125 5.65625 -5.078125 C 5.65625 -5.96875 5.0625 -6.53125 4.140625 -6.53125 C 2.953125 -6.53125 2.140625 -5.546875 2.140625 -4.046875 C 2.140625 -4.046875 2.140625 0 2.140625 0 C 2.140625 0 0.984375 0 0.984375 0 C 0.984375 0 0.984375 -7.34375 0.984375 -7.34375 C 0.984375 -7.34375 2.0625 -7.34375 2.0625 -7.34375 C 2.0625 -7.34375 2.0625 -6.109375 2.0625 -6.109375 C 2.703125 -7.125 3.40625 -7.546875 4.5 -7.546875 C 5.90625 -7.546875 6.8125 -6.765625 6.8125 -5.546875 C 6.8125 -5.546875 6.8125 0 6.8125 0 Z M 6.8125 0 "/>
</g>
<g id="glyph-2-0-e0bb49c3">
<path d="M 7.09375 -4.78125 C 7.09375 -1.515625 5.953125 0.203125 3.84375 0.203125 C 1.71875 0.203125 0.609375 -1.515625 0.609375 -4.859375 C 0.609375 -8.1875 1.703125 -9.921875 3.84375 -9.921875 C 6 -9.921875 7.09375 -8.21875 7.09375 -4.78125 Z M 5.84375 -4.890625 C 5.84375 -7.546875 5.1875 -8.828125 3.84375 -8.828125 C 2.515625 -8.828125 1.859375 -7.5625 1.859375 -4.84375 C 1.859375 -2.125 2.515625 -0.8125 3.828125 -0.8125 C 5.1875 -0.8125 5.84375 -2.078125 5.84375 -4.890625 Z M 5.84375 -4.890625 "/>
</g>
<g id="glyph-3-0-e0bb49c3">
<path d="M 0 -2.703125 C 0 -2.703125 0 -1.40625 0 -1.40625 C 0 -1.40625 -10.203125 -1.40625 -10.203125 -1.40625 C -10.203125 -1.40625 -10.203125 -2.703125 -10.203125 -2.703125 C -10.203125 -2.703125 0 -2.703125 0 -2.703125 Z M 0 -2.703125 "/>
</g>
<g id="glyph-4-0-e0bb49c3">
<path d="M 0 -6.8125 C 0 -6.8125 0 -5.65625 0 -5.65625 C 0 -5.65625 -5.078125 -5.65625 -5.078125 -5.65625 C -5.96875 -5.65625 -6.53125 -5.0625 -6.53125 -4.140625 C -6.53125 -2.953125 -5.546875 -2.140625 -4.046875 -2.140625 C -4.046875 -2.140625 0 -2.140625 0 -2.140625 C 0 -2.140625 0 -0.984375 0 -0.984375 C 0 -0.984375 -7.34375 -0.984375 -7.34375 -0.984375 C -7.34375 -0.984375 -7.34375 -2.0625 -7.34375 -2.0625 C -7.34375 -2.0625 -6.109375 -2.0625 -6.109375 -2.0625 C -7.125 -2.703125 -7.546875 -3.40625 -7.546875 -4.5 C -7.546875 -5.90625 -6.765625 -6.8125 -5.546875 -6.8125 C -5.546875 -6.8125 0 -6.8125 0 -6.8125 Z M 0 -6.8125 "/>
</g>
<g id="glyph-5-0-e0bb49c3">
<path d="M 0 -3.5625 C 0.0625 -3.15625 0.09375 -2.890625 0.09375 -2.609375 C 0.09375 -1.6875 -0.328125 -1.1875 -1.0625 -1.1875 C -1.0625 -1.1875 -6.390625 -1.1875 -6.390625 -1.1875 C -6.390625 -1.1875 -6.390625 -0.203125 -6.390625 -0.203125 C -6.390625 -0.203125 -7.34375 -0.203125 -7.34375 -0.203125 C -7.34375 -0.203125 -7.34375 -1.1875 -7.34375 -1.1875 C -7.34375 -1.1875 -9.359375 -1.1875 -9.359375 -1.1875 C -9.359375 -1.1875 -9.359375 -2.359375 -9.359375 -2.359375 C -9.359375 -2.359375 -7.34375 -2.359375 -7.34375 -2.359375 C -7.34375 -2.359375 -7.34375 -3.5625 -7.34375 -3.5625 C -7.34375 -3.5625 -6.390625 -3.5625 -6.390625 -3.5625 C -6.390625 -3.5625 -6.390625 -2.359375 -6.390625 -2.359375 C -6.390625 -2.359375 -1.578125 -2.359375 -1.578125 -2.359375 C -1.0625 -2.359375 -0.921875 -2.484375 -0.921875 -3 C -0.921875 -3.21875 -0.9375 -3.40625 -0.984375 -3.5625 C -0.984375 -3.5625 0 -3.5625 0 -3.5625 Z M 0 -3.5625 "/>
</g>
<g id="glyph-6-0-e0bb49c3">
<path d="M -3.328125 -7.1875 C -3.328125 -7.1875 -3.328125 -1.78125 -3.328125 -1.78125 C -1.65625 -1.8125 -0.875 -2.71875 -0.875 -3.9375 C -0.875 -4.875 -1.265625 -5.53125 -2.21875 -5.859375 C -2.21875 -5.859375 -2.21875 -7.03125 -2.21875 -7.03125 C -0.734375 -6.734375 0.203125 -5.578125 0.203125 -3.890625 C 0.203125 -1.828125 -1.21875 -0.5625 -3.625 -0.5625 C -6.03125 -0.5625 -7.546875 -1.875 -7.546875 -3.921875 C -7.546875 -5.296875 -6.8125 -6.40625 -5.609375 -6.890625 C -5.0625 -7.09375 -4.390625 -7.1875 -3.328125 -7.1875 Z M -4.375 -5.9375 C -5.515625 -5.9375 -6.46875 -5.046875 -6.46875 -3.90625 C -6.46875 -2.734375 -5.59375 -1.90625 -4.28125 -1.8125 C -4.28125 -1.8125 -4.28125 -5.921875 -4.28125 -5.921875 C -4.3125 -5.9375 -4.375 -5.9375 -4.375 -5.9375 Z M -4.375 -5.9375 "/>
</g>
<g id="glyph-7-0-e0bb49c3">
<path d="M 0 -6.8125 C 0 -6.8125 0 -5.65625 0 -5.65625 C 0 -5.65625 -5.078125 -5.65625 -5.078125 -5.65625 C -5.96875 -5.65625 -6.53125 -5.0625 -6.53125 -4.140625 C -6.53125 -2.953125 -5.546875 -2.140625 -4.046875 -2.140625 C -4.046875 -2.140625 0 -2.140625 0 -2.140625 C 0 -2.140625 0 -0.984375 0 -0.984375 C 0 -0.984375 -7.34375 -0.984375 -7.34375 -0.984375 C -7.34375 -0.984375 -7.34375 -2.0625 -7.34375 -2.0625 C -7.34375 -2.0625 -6.109375 -2.0625 -6.109375 -2.0625 C -7.125 -2.703125 -7.546875 -3.40625 -7.546875 -4.5 C -7.546875 -5.90625 -6.765625 -6.8125 -5.546875 -6.8125 C -5.546875 -6.8125 0 -6.8125 0 -6.8125 Z M 0 -6.8125 "/>
</g>
<g id="glyph-8-0-e0bb49c3">
<path d="M -2.0625 -6.421875 C -0.640625 -6.421875 0.203125 -5.25 0.203125 -3.40625 C 0.203125 -1.484375 -0.546875 -0.53125 -2.234375 -0.46875 C -2.234375 -0.46875 -2.234375 -1.703125 -2.234375 -1.703125 C -1.125 -1.859375 -0.875 -2.453125 -0.875 -3.5 C -0.875 -4.515625 -1.28125 -5.203125 -1.953125 -5.203125 C -2.484375 -5.203125 -2.734375 -4.890625 -2.921875 -4.078125 C -2.921875 -4.078125 -3.1875 -2.984375 -3.1875 -2.984375 C -3.609375 -1.25 -4.15625 -0.65625 -5.3125 -0.65625 C -6.65625 -0.65625 -7.546875 -1.765625 -7.546875 -3.46875 C -7.546875 -5.171875 -6.734375 -6.125 -5.296875 -6.125 C -5.296875 -6.125 -5.296875 -4.90625 -5.296875 -4.90625 C -6.0625 -4.875 -6.46875 -4.375 -6.46875 -3.4375 C -6.46875 -2.484375 -6.03125 -1.875 -5.359375 -1.875 C -4.84375 -1.875 -4.53125 -2.28125 -4.3125 -3.234375 C -4.3125 -3.234375 -4.046875 -4.359375 -4.046875 -4.359375 C -3.703125 -5.8125 -3.15625 -6.421875 -2.0625 -6.421875 Z M -2.0625 -6.421875 "/>
</g>
<g id="glyph-8-1-e0bb49c3">
<path d="M 0 -3.5625 C 0.0625 -3.15625 0.09375 -2.890625 0.09375 -2.609375 C 0.09375 -1.6875 -0.328125 -1.1875 -1.0625 -1.1875 C -1.0625 -1.1875 -6.390625 -1.1875 -6.390625 -1.1875 C -6.390625 -1.1875 -6.390625 -0.203125 -6.390625 -0.203125 C -6.390625 -0.203125 -7.34375 -0.203125 -7.34375 -0.203125 C -7.34375 -0.203125 -7.34375 -1.1875 -7.34375 -1.1875 C -7.34375 -1.1875 -9.359375 -1.1875 -9.359375 -1.1875 C -9.359375 -1.1875 -9.359375 -2.359375 -9.359375 -2.359375 C -9.359375 -2.359375 -7.34375 -2.359375 -7.34375 -2.359375 C -7.34375 -2.359375 -7.34375 -3.5625 -7.34375 -3.5625 C -7.34375 -3.5625 -6.390625 -3.5625 -6.390625 -3.5625 C -6.390625 -3.5625 -6.390625 -2.359375 -6.390625 -2.359375 C -6.390625 -2.359375 -1.578125 -2.359375 -1.578125 -2.359375 C -1.0625 -2.359375 -0.921875 -2.484375 -0.921875 -3 C -0.921875 -3.21875 -0.9375 -3.40625 -0.984375 -3.5625 C -0.984375 -3.5625 0 -3.5625 0 -3.5625 Z M 0 -3.5625 "/>
</g>
<g id="glyph-9-0-e0bb49c3">
<path d="M 0 -2.140625 C 0 -2.140625 0 -0.984375 0 -0.984375 C 0 -0.984375 -7.34375 -0.984375 -7.34375 -0.984375 C -7.34375 -0.984375 -7.34375 -2.140625 -7.34375 -2.140625 C -7.34375 -2.140625 0 -2.140625 0 -2.140625 Z M -8.4375 -2.296875 C -8.4375 -2.296875 -8.4375 -0.84375 -8.4375 -0.84375 C -8.4375 -0.84375 -9.890625 -0.84375 -9.890625 -0.84375 C -9.890625 -0.84375 -9.890625 -2.296875 -9.890625 -2.296875 C -9.890625 -2.296875 -8.4375 -2.296875 -8.4375 -2.296875 Z M -8.4375 -2.296875 "/>
</g>
<g id="glyph-9-1-e0bb49c3">
<path d="M 0 -3.5625 C 0.0625 -3.15625 0.09375 -2.890625 0.09375 -2.609375 C 0.09375 -1.6875 -0.328125 -1.1875 -1.0625 -1.1875 C -1.0625 -1.1875 -6.390625 -1.1875 -6.390625 -1.1875 C -6.390625 -1.1875 -6.390625 -0.203125 -6.390625 -0.203125 C -6.390625 -0.203125 -7.34375 -0.203125 -7.34375 -0.203125 C -7.34375 -0.203125 -7.34375 -1.1875 -7.34375 -1.1875 C -7.34375 -1.1875 -9.359375 -1.1875 -9.359375 -1.1875 C -9.359375 -1.1875 -9.359375 -2.359375 -9.359375 -2.359375 C -9.359375 -2.359375 -7.34375 -2.359375 -7.34375 -2.359375 C -7.34375 -2.359375 -7.34375 -3.5625 -7.34375 -3.5625 C -7.34375 -3.5625 -6.390625 -3.5625 -6.390625 -3.5625 C -6.390625 -3.5625 -6.390625 -2.359375 -6.390625 -2.359375 C -6.390625 -2.359375 -1.578125 -2.359375 -1.578125 -2.359375 C -1.0625 -2.359375 -0.921875 -2.484375 -0.921875 -3 C -0.921875 -3.21875 -0.9375 -3.40625 -0.984375 -3.5625 C -0.984375 -3.5625 0 -3.5625 0 -3.5625 Z M 0 -3.5625 "/>
</g>
<g id="glyph-10-0-e0bb49c3">
<path d="M -7.34375 -6.6875 C -7.34375 -6.6875 1.546875 -3.4375 1.546875 -3.4375 C 2.59375 -3.03125 3.046875 -2.359375 3.046875 -1.546875 C 3.046875 -1.234375 3 -1 2.875 -0.75 C 2.875 -0.75 1.8125 -0.75 1.8125 -0.75 C 1.875 -1.015625 1.90625 -1.203125 1.90625 -1.375 C 1.90625 -1.875 1.703125 -2.109375 1.1875 -2.3125 C 1.1875 -2.3125 0.03125 -2.765625 0.03125 -2.765625 C 0.03125 -2.765625 -7.34375 -0.28125 -7.34375 -0.28125 C -7.34375 -0.28125 -7.34375 -1.53125 -7.34375 -1.53125 C -7.34375 -1.53125 -1.625 -3.40625 -1.625 -3.40625 C -1.625 -3.40625 -7.34375 -5.4375 -7.34375 -5.4375 C -7.34375 -5.4375 -7.34375 -6.6875 -7.34375 -6.6875 Z M -7.34375 -6.6875 "/>
</g>
<g id="glyph-11-0-e0bb49c3">
<path d="M 2.96875 -3.5 C 2.96875 -3.5 2.96875 -0.890625 2.96875 -0.890625 C 2.96875 -0.890625 -10.203125 -0.890625 -10.203125 -0.890625 C -10.203125 -0.890625 -10.203125 -3.5 -10.203125 -3.5 C -10.203125 -3.5 -9.203125 -3.5 -9.203125 -3.5 C -9.203125 -3.5 -9.203125 -2.0625 -9.203125 -2.0625 C -9.203125 -2.0625 1.953125 -2.0625 1.953125 -2.0625 C 1.953125 -2.0625 1.953125 -3.5 1.953125 -3.5 C 1.953125 -3.5 2.96875 -3.5 2.96875 -3.5 Z M 2.96875 -3.5 "/>
</g>
<g id="glyph-12-0-e0bb49c3">
<path d="M 0 -6.75 C 0 -6.75 0 -5.703125 0 -5.703125 C 0 -5.703125 -1.140625 -5.703125 -1.140625 -5.703125 C -0.171875 -5.015625 0.203125 -4.328125 0.203125 -3.25 C 0.203125 -1.8125 -0.578125 -0.90625 -1.796875 -0.90625 C -1.796875 -0.90625 -7.34375 -0.90625 -7.34375 -0.90625 C -7.34375 -0.90625 -7.34375 -2.078125 -7.34375 -2.078125 C -7.34375 -2.078125 -2.25 -2.078125 -2.25 -2.078125 C -1.375 -2.078125 -0.8125 -2.65625 -0.8125 -3.578125 C -0.8125 -4.796875 -1.796875 -5.59375 -3.296875 -5.59375 C -3.296875 -5.59375 -7.34375 -5.59375 -7.34375 -5.59375 C -7.34375 -5.59375 -7.34375 -6.75 -7.34375 -6.75 C -7.34375 -6.75 0 -6.75 0 -6.75 Z M 0 -6.75 "/>
</g>
<g id="glyph-13-0-e0bb49c3">
<path d="M 0 -6.8125 C 0 -6.8125 0 -5.65625 0 -5.65625 C 0 -5.65625 -5.078125 -5.65625 -5.078125 -5.65625 C -5.96875 -5.65625 -6.53125 -5.0625 -6.53125 -4.140625 C -6.53125 -2.953125 -5.546875 -2.140625 -4.046875 -2.140625 C -4.046875 -2.140625 0 -2.140625 0 -2.140625 C 0 -2.140625 0 -0.984375 0 -0.984375 C 0 -0.984375 -7.34375 -0.984375 -7.34375 -0.984375 C -7.34375 -0.984375 -7.34375 -2.0625 -7.34375 -2.0625 C -7.34375 -2.0625 -6.109375 -2.0625 -6.109375 -2.0625 C -7.125 -2.703125 -7.546875 -3.40625 -7.546875 -4.5 C -7.546875 -5.90625 -6.765625 -6.8125 -5.546875 -6.8125 C -5.546875 -6.8125 0 -6.8125 0 -6.8125 Z M 0 -6.8125 "/>
</g>
<g id="glyph-14-0-e0bb49c3">
<path d="M 0 -2.140625 C 0 -2.140625 0 -0.984375 0 -0.984375 C 0 -0.984375 -7.34375 -0.984375 -7.34375 -0.984375 C -7.34375 -0.984375 -7.34375 -2.140625 -7.34375 -2.140625 C -7.34375 -2.140625 0 -2.140625 0 -2.140625 Z M -8.4375 -2.296875 C -8.4375 -2.296875 -8.4375 -0.84375 -8.4375 -0.84375 C -8.4375 -0.84375 -9.890625 -0.84375 -9.890625 -0.84375 C -9.890625 -0.84375 -9.890625 -2.296875 -9.890625 -2.296875 C -9.890625 -2.296875 -8.4375 -2.296875 -8.4375 -2.296875 Z M -8.4375 -2.296875 "/>
</g>
<g id="glyph-15-0-e0bb49c3">
<path d="M 0 -2.109375 C 0 -2.109375 0 -0.953125 0 -0.953125 C 0 -0.953125 -10.203125 -0.953125 -10.203125 -0.953125 C -10.203125 -0.953125 -10.203125 -2.109375 -10.203125 -2.109375 C -10.203125 -2.109375 0 -2.109375 0 -2.109375 Z M 0 -2.109375 "/>
</g>
<g id="glyph-15-1-e0bb49c3">
<path d="M -3.328125 -7.1875 C -3.328125 -7.1875 -3.328125 -1.78125 -3.328125 -1.78125 C -1.65625 -1.8125 -0.875 -2.71875 -0.875 -3.9375 C -0.875 -4.875 -1.265625 -5.53125 -2.21875 -5.859375 C -2.21875 -5.859375 -2.21875 -7.03125 -2.21875 -7.03125 C -0.734375 -6.734375 0.203125 -5.578125 0.203125 -3.890625 C 0.203125 -1.828125 -1.21875 -0.5625 -3.625 -0.5625 C -6.03125 -0.5625 -7.546875 -1.875 -7.546875 -3.921875 C -7.546875 -5.296875 -6.8125 -6.40625 -5.609375 -6.890625 C -5.0625 -7.09375 -4.390625 -7.1875 -3.328125 -7.1875 Z M -4.375 -5.9375 C -5.515625 -5.9375 -6.46875 -5.046875 -6.46875 -3.90625 C -6.46875 -2.734375 -5.59375 -1.90625 -4.28125 -1.8125 C -4.28125 -1.8125 -4.28125 -5.921875 -4.28125 -5.921875 C -4.3125 -5.9375 -4.375 -5.9375 -4.375 -5.9375 Z M -4.375 -5.9375 "/>
</g>
<g id="glyph-16-0-e0bb49c3">
<path d="M -2.0625 -6.421875 C -0.640625 -6.421875 0.203125 -5.25 0.203125 -3.40625 C 0.203125 -1.484375 -0.546875 -0.53125 -2.234375 -0.46875 C -2.234375 -0.46875 -2.234375 -1.703125 -2.234375 -1.703125 C -1.125 -1.859375 -0.875 -2.453125 -0.875 -3.5 C -0.875 -4.515625 -1.28125 -5.203125 -1.953125 -5.203125 C -2.484375 -5.203125 -2.734375 -4.890625 -2.921875 -4.078125 C -2.921875 -4.078125 -3.1875 -2.984375 -3.1875 -2.984375 C -3.609375 -1.25 -4.15625 -0.65625 -5.3125 -0.65625 C -6.65625 -0.65625 -7.546875 -1.765625 -7.546875 -3.46875 C -7.546875 -5.171875 -6.734375 -6.125 -5.296875 -6.125 C -5.296875 -6.125 -5.296875 -4.90625 -5.296875 -4.90625 C -6.0625 -4.875 -6.46875 -4.375 -6.46875 -3.4375 C -6.46875 -2.484375 -6.03125 -1.875 -5.359375 -1.875 C -4.84375 -1.875 -4.53125 -2.28125 -4.3125 -3.234375 C -4.3125 -3.234375 -4.046875 -4.359375 -4.046875 -4.359375 C -3.703125 -5.8125 -3.15625 -6.421875 -2.0625 -6.421875 Z M -2.0625 -6.421875 "/>
</g>
<g id="glyph-17-0-e0bb49c3">
<path d="M -2.0625 -6.421875 C -0.640625 -6.421875 0.203125 -5.25 0.203125 -3.40625 C 0.203125 -1.484375 -0.546875 -0.53125 -2.234375 -0.46875 C -2.234375 -0.46875 -2.234375 -1.703125 -2.234375 -1.703125 C -1.125 -1.859375 -0.875 -2.453125 -0.875 -3.5 C -0.875 -4.515625 -1.28125 -5.203125 -1.953125 -5.203125 C -2.484375 -5.203125 -2.734375 -4.890625 -2.921875 -4.078125 C -2.921875 -4.078125 -3.1875 -2.984375 -3.1875 -2.984375 C -3.609375 -1.25 -4.15625 -0.65625 -5.3125 -0.65625 C -6.65625 -0.65625 -7.546875 -1.765625 -7.546875 -3.46875 C -7.546875 -5.171875 -6.734375 -6.125 -5.296875 -6.125 C -5.296875 -6.125 -5.296875 -4.90625 -5.296875 -4.90625 C -6.0625 -4.875 -6.46875 -4.375 -6.46875 -3.4375 C -6.46875 -2.484375 -6.03125 -1.875 -5.359375 -1.875 C -4.84375 -1.875 -4.53125 -2.28125 -4.3125 -3.234375 C -4.3125 -3.234375 -4.046875 -4.359375 -4.046875 -4.359375 C -3.703125 -5.8125 -3.15625 -6.421875 -2.0625 -6.421875 Z M -2.0625 -6.421875 "/>
</g>
<g id="glyph-17-1-e0bb49c3">
<path d="M 2.96875 -2.921875 C 2.96875 -2.921875 2.96875 -0.328125 2.96875 -0.328125 C 2.96875 -0.328125 1.953125 -0.328125 1.953125 -0.328125 C 1.953125 -0.328125 1.953125 -1.765625 1.953125 -1.765625 C 1.953125 -1.765625 -9.203125 -1.765625 -9.203125 -1.765625 C -9.203125 -1.765625 -9.203125 -0.328125 -9.203125 -0.328125 C -9.203125 -0.328125 -10.203125 -0.328125 -10.203125 -0.328125 C -10.203125 -0.328125 -10.203125 -2.921875 -10.203125 -2.921875 C -10.203125 -2.921875 2.96875 -2.921875 2.96875 -2.921875 Z M 2.96875 -2.921875 "/>
</g>
<g id="glyph-18-0-e0bb49c3">
<path d="M 4.703125 -3.421875 C 4.703125 -1.15625 3.875 0.140625 2.34375 0.140625 C 1.34375 0.140625 0.640625 -0.5 0.484375 -1.5625 C 0.484375 -1.5625 1.296875 -1.5625 1.296875 -1.5625 C 1.4375 -0.9375 1.828125 -0.578125 2.40625 -0.578125 C 3.328125 -0.578125 3.84375 -1.46875 3.859375 -3.0625 C 3.4375 -2.5625 2.984375 -2.34375 2.359375 -2.34375 C 1.1875 -2.34375 0.34375 -3.15625 0.34375 -4.375 C 0.34375 -5.65625 1.25 -6.546875 2.5 -6.546875 C 3.984375 -6.546875 4.703125 -5.46875 4.703125 -3.421875 Z M 3.8125 -4.390625 C 3.8125 -5.25 3.234375 -5.84375 2.484375 -5.84375 C 1.734375 -5.84375 1.1875 -5.265625 1.1875 -4.4375 C 1.1875 -3.5625 1.671875 -3.0625 2.453125 -3.0625 C 3.25 -3.0625 3.8125 -3.59375 3.8125 -4.390625 Z M 3.8125 -4.390625 "/>
</g>
</g>
<clipPath id="clip-0-e0bb49c3">
<path clip-rule="nonzero" d="M 84 24 L 984 24 L 984 283 L 84 283 Z M 84 24 "/>
</clipPath>
</defs>
<rect x="-100" y="-35" width="1200" height="420" fill="rgb(100%, 100%, 100%)" fill-opacity="1"/>
<path fill-rule="nonzero" fill="rgb(100%, 100%, 100%)" fill-opacity="1" d="M 84 291 L 984 291 L 984 16 L 84 16 Z M 84 291 "/>
<path fill="none" stroke-width="1" stroke-linecap="butt" stroke-linejoin="miter" stroke="rgb(0%, 0%, 0%)" stroke-opacity="0.12" stroke-miterlimit="1.154701" d="M 119.09375 291 L 119.09375 16 "/>
<path fill="none" stroke-width="1" stroke-linecap="butt" stroke-linejoin="miter" stroke="rgb(0%, 0%, 0%)" stroke-opacity="0.12" stroke-miterlimit="1.154701" d="M 449.429688 291 L 449.429688 16 "/>
<path fill="none" stroke-width="1" stroke-linecap="butt" stroke-linejoin="miter" stroke="rgb(0%, 0%, 0%)" stroke-opacity="0.12" stroke-miterlimit="1.154701" d="M 779.765625 291 L 779.765625 16 "/>
<path fill="none" stroke-width="1" stroke-linecap="butt" stroke-linejoin="miter" stroke="rgb(0%, 0%, 0%)" stroke-opacity="0.12" stroke-miterlimit="1.154701" d="M 84 279.578125 L 984 279.578125 "/>
<path fill="none" stroke-width="1" stroke-linecap="butt" stroke-linejoin="miter" stroke="rgb(0%, 0%, 0%)" stroke-opacity="0.12" stroke-miterlimit="1.154701" d="M 84 180.28125 L 984 180.28125 "/>
<path fill="none" stroke-width="1" stroke-linecap="butt" stroke-linejoin="miter" stroke="rgb(0%, 0%, 0%)" stroke-opacity="0.12" stroke-miterlimit="1.154701" d="M 84 80.988281 L 984 80.988281 "/>
<g fill="rgb(0%, 0%, 0%)" fill-opacity="1">
<use xlink:href="#glyph-0-0-e0bb49c3" x="474.472026" y="331.568"/>
<use xlink:href="#glyph-0-1-e0bb49c3" x="484.580025" y="331.568"/>
<use xlink:href="#glyph-0-2-e0bb49c3" x="492.364029" y="331.568"/>
<use xlink:href="#glyph-0-1-e0bb49c3" x="496.256028" y="331.568"/>
</g>
<g fill="rgb(0%, 0%, 0%)" fill-opacity="1">
<use xlink:href="#glyph-1-0-e0bb49c3" x="504.040029" y="331.568"/>
</g>
<g fill="rgb(0%, 0%, 0%)" fill-opacity="1">
<use xlink:href="#glyph-0-2-e0bb49c3" x="511.824029" y="331.568"/>
<use xlink:href="#glyph-0-3-e0bb49c3" x="515.716028" y="331.568"/>
<use xlink:href="#glyph-0-4-e0bb49c3" x="518.82403" y="331.568"/>
<use xlink:href="#glyph-0-5-e0bb49c3" x="526.608031" y="331.568"/>
<use xlink:href="#glyph-0-6-e0bb49c3" x="534.392031" y="331.568"/>
<use xlink:href="#glyph-0-7-e0bb49c3" x="538.28403" y="331.568"/>
<use xlink:href="#glyph-0-8-e0bb49c3" x="542.176032" y="331.568"/>
<use xlink:href="#glyph-0-5-e0bb49c3" x="549.960029" y="331.568"/>
<use xlink:href="#glyph-0-3-e0bb49c3" x="557.744026" y="331.568"/>
<use xlink:href="#glyph-0-2-e0bb49c3" x="560.852028" y="331.568"/>
<use xlink:href="#glyph-0-9-e0bb49c3" x="564.744026" y="331.568"/>
<use xlink:href="#glyph-0-1-e0bb49c3" x="567.852028" y="331.568"/>
<use xlink:href="#glyph-0-10-e0bb49c3" x="575.636025" y="331.568"/>
<use xlink:href="#glyph-0-10-e0bb49c3" x="582.636025" y="331.568"/>
<use xlink:href="#glyph-0-11-e0bb49c3" x="589.636026" y="331.568"/>
</g>
<g fill="rgb(0%, 0%, 0%)" fill-opacity="1">
<use xlink:href="#glyph-0-12-e0bb49c3" x="103.52458" y="312.258001"/>
<use xlink:href="#glyph-0-13-e0bb49c3" x="111.30858" y="312.258001"/>
</g>
<g fill="rgb(0%, 0%, 0%)" fill-opacity="1">
<use xlink:href="#glyph-2-0-e0bb49c3" x="119.092581" y="312.258001"/>
<use xlink:href="#glyph-2-0-e0bb49c3" x="126.876581" y="312.258001"/>
</g>
<g fill="rgb(0%, 0%, 0%)" fill-opacity="1">
<use xlink:href="#glyph-0-14-e0bb49c3" x="433.86183" y="312.258001"/>
<use xlink:href="#glyph-0-13-e0bb49c3" x="441.645831" y="312.258001"/>
<use xlink:href="#glyph-0-13-e0bb49c3" x="449.429831" y="312.258001"/>
<use xlink:href="#glyph-0-13-e0bb49c3" x="457.213831" y="312.258001"/>
</g>
<g fill="rgb(0%, 0%, 0%)" fill-opacity="1">
<use xlink:href="#glyph-0-15-e0bb49c3" x="764.199126" y="312.258001"/>
<use xlink:href="#glyph-0-13-e0bb49c3" x="771.983127" y="312.258001"/>
<use xlink:href="#glyph-0-13-e0bb49c3" x="779.767127" y="312.258001"/>
<use xlink:href="#glyph-0-13-e0bb49c3" x="787.551127" y="312.258001"/>
</g>
<g fill="rgb(0%, 0%, 0%)" fill-opacity="1">
<use xlink:href="#glyph-3-0-e0bb49c3" x="28.358559" y="209.135992"/>
</g>
<g fill="rgb(0%, 0%, 0%)" fill-opacity="1">
<use xlink:href="#glyph-4-0-e0bb49c3" x="28.358559" y="205.243993"/>
</g>
<g fill="rgb(0%, 0%, 0%)" fill-opacity="1">
<use xlink:href="#glyph-5-0-e0bb49c3" x="28.35856" y="197.459993"/>
</g>
<g fill="rgb(0%, 0%, 0%)" fill-opacity="1">
<use xlink:href="#glyph-6-0-e0bb49c3" x="28.35856" y="193.567991"/>
</g>
<g fill="rgb(0%, 0%, 0%)" fill-opacity="1">
<use xlink:href="#glyph-7-0-e0bb49c3" x="28.35856" y="185.783995"/>
</g>
<g fill="rgb(0%, 0%, 0%)" fill-opacity="1">
<use xlink:href="#glyph-8-0-e0bb49c3" x="28.358561" y="177.999994"/>
</g>
<g fill="rgb(0%, 0%, 0%)" fill-opacity="1">
<use xlink:href="#glyph-9-0-e0bb49c3" x="28.358561" y="170.999992"/>
<use xlink:href="#glyph-9-1-e0bb49c3" x="28.358561" y="167.891992"/>
</g>
<g fill="rgb(0%, 0%, 0%)" fill-opacity="1">
<use xlink:href="#glyph-10-0-e0bb49c3" x="28.358561" y="163.999993"/>
</g>
<g fill="rgb(0%, 0%, 0%)" fill-opacity="1">
<use xlink:href="#glyph-11-0-e0bb49c3" x="28.358562" y="153.107996"/>
</g>
<g fill="rgb(0%, 0%, 0%)" fill-opacity="1">
<use xlink:href="#glyph-12-0-e0bb49c3" x="28.358562" y="149.215998"/>
</g>
<g fill="rgb(0%, 0%, 0%)" fill-opacity="1">
<use xlink:href="#glyph-13-0-e0bb49c3" x="28.358563" y="141.432002"/>
</g>
<g fill="rgb(0%, 0%, 0%)" fill-opacity="1">
<use xlink:href="#glyph-14-0-e0bb49c3" x="28.358563" y="133.648007"/>
</g>
<g fill="rgb(0%, 0%, 0%)" fill-opacity="1">
<use xlink:href="#glyph-8-1-e0bb49c3" x="28.358564" y="130.540005"/>
</g>
<g fill="rgb(0%, 0%, 0%)" fill-opacity="1">
<use xlink:href="#glyph-15-0-e0bb49c3" x="28.358564" y="126.648007"/>
<use xlink:href="#glyph-15-1-e0bb49c3" x="28.358564" y="123.540005"/>
</g>
<g fill="rgb(0%, 0%, 0%)" fill-opacity="1">
<use xlink:href="#glyph-16-0-e0bb49c3" x="28.358564" y="115.756011"/>
</g>
<g fill="rgb(0%, 0%, 0%)" fill-opacity="1">
<use xlink:href="#glyph-17-0-e0bb49c3" x="28.358565" y="108.756011"/>
<use xlink:href="#glyph-17-1-e0bb49c3" x="28.358565" y="101.756011"/>
</g>
<g fill="rgb(0%, 0%, 0%)" fill-opacity="1">
<use xlink:href="#glyph-0-13-e0bb49c3" x="66.216003" y="284.679333"/>
</g>
<g fill="rgb(0%, 0%, 0%)" fill-opacity="1">
<use xlink:href="#glyph-0-12-e0bb49c3" x="36.410562" y="185.930987"/>
<use xlink:href="#glyph-0-16-e0bb49c3" x="44.194563" y="185.930987"/>
<use xlink:href="#glyph-0-12-e0bb49c3" x="52.370562" y="185.930987"/>
<use xlink:href="#glyph-0-13-e0bb49c3" x="60.154563" y="185.930987"/>
</g>
<g fill="rgb(0%, 0%, 0%)" fill-opacity="1">
<use xlink:href="#glyph-18-0-e0bb49c3" x="68.862564" y="180.330987"/>
</g>
<g fill="rgb(0%, 0%, 0%)" fill-opacity="1">
<use xlink:href="#glyph-0-14-e0bb49c3" x="36.410562" y="86.636509"/>
<use xlink:href="#glyph-0-16-e0bb49c3" x="44.194563" y="86.636509"/>
<use xlink:href="#glyph-0-12-e0bb49c3" x="52.370562" y="86.636509"/>
<use xlink:href="#glyph-0-13-e0bb49c3" x="60.154563" y="86.636509"/>
</g>
<g fill="rgb(0%, 0%, 0%)" fill-opacity="1">
<use xlink:href="#glyph-18-0-e0bb49c3" x="68.862564" y="81.036509"/>
</g>
<g clip-path="url(#clip-0-e0bb49c3)">
<path fill="none" stroke-width="1.5" stroke-linecap="butt" stroke-linejoin="miter" stroke="rgb(0%, 44.705883%, 69.803923%)" stroke-opacity="1" stroke-miterlimit="2" d="M 84 272.792969 L 84.273438 272.429688 L 84.542969 270.585938 L 84.816406 271.304688 L 85.085938 272.0625 L 85.359375 260.003906 L 85.632812 146.566406 L 85.902344 119.359375 L 86.175781 248.730469 L 86.445312 272.929688 L 86.71875 274.769531 L 86.992188 275.515625 L 87.261719 276.097656 L 87.535156 276.378906 L 87.804688 276.785156 L 88.078125 276.894531 L 88.351562 276.988281 L 88.621094 277.1875 L 88.894531 277.144531 L 89.164062 277.195312 L 89.4375 277.242188 L 89.707031 277.1875 L 89.980469 277.277344 L 90.253906 277.304688 L 90.523438 277.289062 L 90.796875 277.339844 L 91.066406 277.382812 L 91.339844 277.367188 L 91.609375 277.472656 L 91.882812 276.75 L 92.152344 276.421875 L 92.425781 276.042969 L 92.695312 276.269531 L 92.96875 276.257812 L 93.242188 275.554688 L 93.511719 276.164062 L 93.785156 276.875 L 94.054688 277.089844 L 94.324219 277.179688 L 94.597656 277.234375 L 94.867188 277.199219 L 95.140625 277.09375 L 95.410156 276.464844 L 95.683594 276.570312 L 95.953125 276.742188 L 96.226562 276.921875 L 96.496094 277.039062 L 96.765625 277.160156 L 97.039062 277.199219 L 97.308594 277.269531 L 97.578125 277.238281 L 97.851562 276.984375 L 98.121094 276.027344 L 98.390625 276.125 L 98.664062 275.347656 L 98.933594 249.488281 L 99.203125 217.507812 L 99.476562 256.855469 L 99.746094 273.777344 L 100.015625 275.902344 L 100.285156 276.507812 L 100.558594 276.695312 L 100.828125 276.851562 L 101.097656 276.863281 L 101.367188 277.023438 L 101.636719 276.832031 L 101.90625 262.519531 L 102.175781 213.203125 L 102.445312 236.285156 L 102.71875 269.632812 L 102.988281 274.898438 L 103.257812 275.921875 L 103.527344 276.402344 L 103.796875 276.589844 L 104.066406 276.808594 L 104.335938 276.882812 L 104.605469 276.925781 L 104.875 277.015625 L 105.144531 277.023438 L 105.410156 277.070312 L 105.679688 276.929688 L 105.949219 277.066406 L 106.21875 277.175781 L 106.488281 277.222656 L 106.757812 277.308594 L 107.023438 276.566406 L 107.292969 275.910156 L 107.5625 275.066406 L 107.832031 273.960938 L 108.097656 275.519531 L 108.367188 276.265625 L 108.636719 276.316406 L 108.902344 276.027344 L 109.171875 275.292969 L 109.4375 274.789062 L 109.707031 274.550781 L 109.972656 262.121094 L 110.242188 239.929688 L 110.507812 259.730469 L 110.777344 272.269531 L 111.042969 273.511719 L 111.3125 273.710938 L 111.578125 273.90625 L 111.84375 273.75 L 112.113281 273.914062 L 112.378906 273.847656 L 112.644531 273.816406 L 112.914062 273.875 L 113.179688 273.785156 L 113.445312 273.59375 L 113.710938 273.398438 L 113.980469 273.308594 L 114.246094 273.105469 L 114.511719 273.105469 L 114.777344 273.289062 L 115.042969 273.441406 L 115.308594 273.527344 L 115.574219 273.382812 L 115.839844 273.632812 L 116.105469 273.582031 L 116.371094 273.660156 L 116.636719 273.761719 L 116.902344 273.800781 L 117.167969 273.890625 L 117.433594 273.851562 L 117.699219 273.984375 L 117.964844 273.988281 L 118.230469 272.355469 L 118.496094 221.113281 L 118.757812 70.03125 L 119.023438 135.125 L 119.289062 253 L 119.554688 268.902344 L 119.820312 273.308594 L 120.082031 275.929688 L 120.347656 276.761719 L 120.613281 277.09375 L 120.875 277.316406 L 121.140625 277.277344 L 121.402344 277.214844 L 121.667969 277.390625 L 121.929688 277.511719 L 122.195312 277.605469 L 122.457031 277.527344 L 122.722656 277.636719 L 122.984375 277.695312 L 123.25 277.675781 L 123.511719 277.691406 L 123.777344 277.667969 L 124.039062 277.742188 L 124.300781 277.78125 L 124.566406 277.800781 L 124.828125 277.800781 L 125.089844 277.917969 L 125.351562 277.851562 L 125.617188 277.871094 L 125.878906 277.914062 L 126.140625 277.894531 L 126.402344 277.84375 L 126.664062 277.917969 L 126.929688 277.898438 L 127.191406 277.910156 L 127.453125 277.925781 L 127.714844 277.984375 L 127.976562 277.886719 L 128.238281 277.976562 L 128.5 277.914062 L 128.761719 277.90625 L 129.023438 277.855469 L 129.285156 277.863281 L 129.546875 277.890625 L 129.804688 277.917969 L 130.066406 277.949219 L 130.328125 277.988281 L 130.589844 277.925781 L 130.851562 277.957031 L 131.113281 277.960938 L 131.371094 277.957031 L 131.632812 278.007812 L 131.894531 277.910156 L 132.15625 277.9375 L 132.414062 277.984375 L 132.675781 278.035156 L 132.9375 278.023438 L 133.195312 277.996094 L 133.457031 277.925781 L 133.71875 277.917969 L 133.976562 277.71875 L 134.238281 277.929688 L 134.5 277.949219 L 134.757812 277.992188 L 135.019531 277.992188 L 135.277344 278.011719 L 135.539062 277.988281 L 135.796875 278.085938 L 136.058594 278.011719 L 136.320312 277.933594 L 136.578125 277.8125 L 136.839844 277.582031 L 137.097656 277.804688 L 137.359375 277.910156 L 137.617188 277.933594 L 137.878906 277.914062 L 138.136719 277.910156 L 138.398438 277.894531 L 138.65625 277.792969 L 138.917969 277.878906 L 139.175781 277.867188 L 139.433594 277.941406 L 139.695312 277.957031 L 139.953125 277.957031 L 140.214844 277.980469 L 140.472656 277.941406 L 140.734375 277.972656 L 140.992188 277.953125 L 141.253906 277.996094 L 141.511719 278.03125 L 141.769531 277.976562 L 142.03125 278 L 142.289062 277.988281 L 142.550781 278.015625 L 142.808594 278.007812 L 143.070312 278.050781 L 143.328125 278.03125 L 143.585938 278.015625 L 143.847656 277.996094 L 144.105469 277.917969 L 144.367188 277.949219 L 144.625 278.054688 L 144.886719 278 L 145.144531 278.046875 L 145.40625 278 L 145.664062 277.90625 L 145.925781 277.988281 L 146.183594 278.074219 L 146.445312 278.015625 L 146.703125 278.097656 L 146.964844 278.070312 L 147.222656 277.898438 L 147.484375 277.382812 L 147.742188 277.328125 L 148.003906 277.457031 L 148.261719 277.554688 L 148.523438 277.59375 L 148.78125 277.703125 L 149.042969 277.648438 L 149.304688 277.636719 L 149.5625 277.59375 L 149.824219 277.605469 L 150.085938 277.652344 L 150.34375 277.691406 L 150.605469 277.726562 L 150.867188 277.695312 L 151.125 277.488281 L 151.386719 264.53125 L 151.648438 144.769531 L 151.90625 38.9375 L 152.167969 192.90625 L 152.429688 261.476562 L 152.691406 271.058594 L 152.949219 274.703125 L 153.210938 276.167969 L 153.472656 276.730469 L 153.734375 277.097656 L 153.992188 277.40625 L 154.253906 277.457031 L 154.515625 277.550781 L 154.777344 277.390625 L 155.039062 277.339844 L 155.300781 277.359375 L 155.824219 277.328125 L 156.085938 277.367188 L 156.34375 277.523438 L 156.605469 277.488281 L 156.867188 277.5625 L 157.128906 277.628906 L 157.390625 277.671875 L 157.652344 277.730469 L 157.914062 277.738281 L 158.175781 277.792969 L 158.441406 277.628906 L 158.703125 277.40625 L 158.964844 277.382812 L 159.226562 277.511719 L 159.488281 277.523438 L 159.75 277.496094 L 160.011719 277.441406 L 160.273438 277.164062 L 160.539062 273.128906 L 160.800781 264.730469 L 161.0625 267.519531 L 161.324219 272.347656 L 161.585938 273.335938 L 161.851562 273.609375 L 162.113281 273.664062 L 162.375 273.761719 L 162.640625 274.050781 L 162.902344 274.226562 L 163.164062 274.300781 L 163.429688 274.503906 L 163.691406 275.3125 L 163.953125 277.054688 L 164.21875 277.871094 L 164.480469 277.996094 L 164.746094 278.0625 L 165.007812 278.042969 L 165.273438 278 L 165.535156 278.0625 L 165.800781 278.085938 L 166.0625 278.066406 L 166.328125 278.109375 L 166.589844 278.082031 L 166.855469 278.074219 L 167.121094 278.144531 L 167.382812 278.144531 L 167.648438 278.109375 L 167.914062 278.148438 L 168.175781 278.101562 L 168.441406 278.136719 L 168.707031 278.125 L 168.972656 278.070312 L 169.238281 278.148438 L 169.5 278.121094 L 169.765625 278.140625 L 170.03125 278.058594 L 170.296875 278.085938 L 170.5625 278.117188 L 170.828125 278.121094 L 171.089844 278.125 L 171.355469 278.164062 L 171.621094 278.152344 L 171.886719 278.15625 L 172.152344 278.1875 L 172.417969 278.1875 L 172.683594 278.144531 L 172.953125 278.179688 L 173.21875 278.179688 L 173.484375 278.203125 L 173.75 278.144531 L 174.015625 278.210938 L 174.28125 278.195312 L 174.546875 278.210938 L 174.816406 278.199219 L 175.082031 278.15625 L 175.347656 277.960938 L 175.613281 277.894531 L 175.882812 278.027344 L 176.148438 278.113281 L 176.414062 278.167969 L 176.683594 278.183594 L 176.949219 278.191406 L 177.21875 278.21875 L 177.484375 278.148438 L 177.753906 278.269531 L 178.019531 278.226562 L 178.289062 278.203125 L 178.554688 277.929688 L 178.824219 277.589844 L 179.089844 277.714844 L 179.359375 277.832031 L 179.625 277.84375 L 179.894531 277.882812 L 180.164062 277.886719 L 180.429688 277.9375 L 180.699219 278.011719 L 180.96875 278.167969 L 181.238281 278.214844 L 181.507812 278.285156 L 181.773438 278.285156 L 182.042969 278.304688 L 182.3125 278.230469 L 182.582031 278.175781 L 182.851562 278.226562 L 183.121094 278.214844 L 183.390625 278.277344 L 183.660156 278.226562 L 183.929688 278.285156 L 184.199219 277.207031 L 184.46875 241.464844 L 184.738281 86.601562 L 185.007812 68.511719 L 185.277344 222.117188 L 185.546875 264.265625 L 185.816406 271.070312 L 186.089844 274.292969 L 186.359375 275.863281 L 186.628906 276.683594 L 186.902344 277.257812 L 187.171875 277.460938 L 187.441406 277.679688 L 187.710938 277.765625 L 187.984375 277.800781 L 188.253906 277.867188 L 188.527344 277.925781 L 188.796875 277.929688 L 189.070312 278.011719 L 189.339844 278.039062 L 189.613281 278.101562 L 189.882812 278.027344 L 190.15625 278.109375 L 190.429688 278.078125 L 190.699219 278.148438 L 190.972656 278.125 L 191.246094 278.132812 L 191.515625 278.046875 L 191.789062 277.886719 L 192.0625 277.730469 L 192.335938 277.773438 L 192.609375 277.777344 L 192.878906 277.835938 L 193.152344 277.859375 L 193.425781 278.03125 L 193.699219 278.152344 L 193.972656 278.164062 L 194.246094 278.128906 L 194.519531 278.179688 L 194.792969 278.203125 L 195.066406 278.195312 L 195.339844 278.175781 L 195.617188 278.027344 L 195.890625 277.847656 L 196.164062 277.824219 L 196.4375 277.839844 L 196.710938 277.820312 L 196.988281 277.945312 L 197.261719 278.042969 L 197.535156 278.144531 L 197.8125 278.125 L 198.085938 278.085938 L 198.359375 278.089844 L 198.636719 278.15625 L 198.910156 278.207031 L 199.1875 278.242188 L 199.460938 278.214844 L 199.738281 278.253906 L 200.011719 278.148438 L 200.289062 278.109375 L 200.566406 278.015625 L 200.839844 278.023438 L 201.117188 278.164062 L 201.394531 278.175781 L 201.667969 278.242188 L 201.945312 278.246094 L 202.222656 278.234375 L 202.5 278.171875 L 202.777344 278.191406 L 203.050781 278.179688 L 203.328125 278.117188 L 203.605469 278.082031 L 203.882812 278.101562 L 204.160156 278.035156 L 204.4375 277.695312 L 204.714844 277.464844 L 204.992188 277.527344 L 205.269531 277.453125 L 205.546875 277.425781 L 205.828125 277.539062 L 206.105469 277.4375 L 206.382812 277.3125 L 206.660156 277.289062 L 206.9375 277.375 L 207.21875 277.371094 L 207.496094 277.3125 L 207.773438 277.457031 L 208.054688 277.414062 L 208.332031 277.21875 L 208.609375 277.113281 L 208.890625 277.167969 L 209.167969 276.859375 L 209.449219 276.457031 L 209.726562 276.820312 L 210.007812 277.222656 L 210.285156 277.234375 L 210.566406 277.191406 L 210.847656 277.214844 L 211.125 277.300781 L 211.40625 277.277344 L 211.6875 277.273438 L 211.964844 277.210938 L 212.246094 277.019531 L 212.527344 277.152344 L 212.808594 277.210938 L 213.089844 277.167969 L 213.367188 277.175781 L 213.648438 277.214844 L 213.929688 277.132812 L 214.210938 276.945312 L 214.492188 277.089844 L 214.773438 277.136719 L 215.054688 277.066406 L 215.335938 276.570312 L 215.617188 271.515625 L 215.898438 255.363281 L 216.183594 247.476562 L 216.464844 254.910156 L 216.746094 264.039062 L 217.027344 273.132812 L 217.3125 270.886719 L 217.59375 188.023438 L 217.875 36.785156 L 218.160156 127.960938 L 218.441406 250.492188 L 218.722656 267.742188 L 219.007812 271.835938 L 219.289062 274.402344 L 219.574219 275.6875 L 219.855469 276.167969 L 220.140625 276.332031 L 220.421875 276.355469 L 220.707031 276.136719 L 220.992188 276.15625 L 221.277344 276.433594 L 221.558594 276.804688 L 221.84375 276.988281 L 222.128906 277.027344 L 222.414062 276.972656 L 222.695312 276.851562 L 222.980469 276.679688 L 223.265625 276.8125 L 223.550781 276.667969 L 223.835938 276.582031 L 224.121094 276.785156 L 224.40625 276.664062 L 224.691406 276.101562 L 224.976562 275.929688 L 225.265625 276.402344 L 225.550781 276.859375 L 225.835938 277.003906 L 226.121094 277.101562 L 226.40625 277.203125 L 226.695312 277.296875 L 226.980469 277.109375 L 227.265625 277.140625 L 227.554688 277.054688 L 227.839844 276.78125 L 228.128906 276.550781 L 228.414062 276.679688 L 228.703125 276.757812 L 228.988281 276.730469 L 229.277344 276.769531 L 229.566406 276.984375 L 229.851562 277.179688 L 230.140625 277.257812 L 230.429688 277.070312 L 230.71875 276.65625 L 231.003906 276.265625 L 231.292969 276.601562 L 231.582031 276.929688 L 231.871094 277.003906 L 232.160156 277.15625 L 232.449219 277.183594 L 232.738281 277.285156 L 233.027344 277.335938 L 233.316406 277.316406 L 233.605469 277.367188 L 233.898438 277.160156 L 234.1875 276.796875 L 234.476562 276.335938 L 234.765625 275.933594 L 235.058594 276.25 L 235.347656 276.769531 L 235.640625 277.050781 L 235.929688 277.136719 L 236.21875 277.273438 L 236.511719 277.246094 L 236.804688 277.214844 L 237.09375 277.257812 L 237.386719 277.203125 L 237.675781 277.230469 L 237.96875 277.246094 L 238.261719 277.207031 L 238.554688 277.183594 L 238.84375 277.226562 L 239.136719 277.289062 L 239.429688 277.238281 L 239.722656 277.28125 L 240.015625 277.304688 L 240.308594 277.285156 L 240.601562 277.3125 L 240.894531 277.09375 L 241.1875 276.804688 L 241.480469 276.832031 L 241.777344 276.957031 L 242.070312 277.167969 L 242.363281 277.191406 L 242.65625 277.285156 L 242.953125 277.191406 L 243.246094 277.160156 L 243.539062 277.277344 L 243.835938 277.332031 L 244.128906 277.421875 L 244.722656 277.34375 L 245.015625 277.351562 L 245.3125 277.300781 L 245.605469 277.320312 L 245.902344 277.34375 L 246.199219 277.347656 L 246.496094 277.277344 L 246.789062 277.277344 L 247.085938 277.335938 L 247.382812 277.328125 L 247.679688 277.363281 L 247.976562 277.382812 L 248.273438 277.429688 L 248.570312 277.351562 L 248.867188 277.390625 L 249.164062 277.335938 L 249.460938 277.335938 L 249.761719 277.304688 L 250.058594 277.128906 L 250.355469 264.722656 L 250.652344 154.316406 L 250.953125 28.5 L 251.25 162.570312 L 251.546875 257.445312 L 251.847656 269.328125 L 252.144531 273.359375 L 252.445312 275.261719 L 252.746094 276.054688 L 253.042969 276.28125 L 253.34375 276.414062 L 253.640625 276.621094 L 253.941406 276.78125 L 254.242188 276.761719 L 254.542969 276.949219 L 254.839844 276.984375 L 255.140625 277.074219 L 255.441406 277.082031 L 255.742188 277.101562 L 256.042969 277.160156 L 256.34375 277.226562 L 256.644531 277.308594 L 256.945312 277.289062 L 257.246094 277.238281 L 257.550781 277.265625 L 257.851562 277.269531 L 258.152344 277.238281 L 258.453125 277.214844 L 258.757812 277.265625 L 259.058594 277.277344 L 259.359375 277.226562 L 259.664062 277.273438 L 259.964844 277.292969 L 260.269531 277.308594 L 260.570312 277.277344 L 260.875 277.304688 L 261.179688 277.304688 L 261.480469 277.300781 L 261.785156 277.28125 L 262.089844 277.308594 L 262.390625 277.160156 L 262.695312 277.230469 L 263 277.3125 L 263.304688 277.351562 L 263.609375 277.355469 L 263.914062 277.324219 L 264.21875 277.328125 L 264.523438 277.289062 L 264.828125 277.347656 L 265.132812 277.375 L 265.4375 277.359375 L 265.742188 277.320312 L 266.046875 277.289062 L 266.355469 277.328125 L 266.660156 277.230469 L 266.964844 277.246094 L 267.273438 277.152344 L 267.578125 277.203125 L 267.886719 277.28125 L 268.191406 277.121094 L 268.5 277.148438 L 268.804688 277.140625 L 269.113281 277.0625 L 269.417969 277.097656 L 269.726562 276.980469 L 270.035156 274.785156 L 270.339844 263.867188 L 270.648438 249.824219 L 270.957031 261.320312 L 271.265625 274.136719 L 271.574219 276.386719 L 271.882812 276.539062 L 272.191406 276.648438 L 272.5 276.933594 L 272.808594 277.171875 L 273.117188 277.230469 L 273.425781 277.296875 L 273.734375 277.101562 L 274.042969 277.011719 L 274.351562 276.996094 L 274.664062 277.101562 L 274.972656 277.070312 L 275.28125 277.03125 L 275.59375 277.234375 L 275.902344 277.269531 L 276.214844 277.355469 L 276.523438 277.320312 L 276.835938 277.246094 L 277.144531 277.21875 L 277.457031 277.253906 L 277.765625 277.292969 L 278.078125 277.070312 L 278.390625 277.027344 L 278.703125 277.25 L 279.011719 277.304688 L 279.324219 277.105469 L 279.636719 276.792969 L 279.949219 276.808594 L 280.261719 277.167969 L 280.574219 277.242188 L 280.886719 277.261719 L 281.199219 277.105469 L 281.511719 277.046875 L 281.824219 277.167969 L 282.136719 277.1875 L 282.449219 277.21875 L 282.765625 277.167969 L 283.078125 276.417969 L 283.390625 252.820312 L 283.707031 122.292969 L 284.019531 36.671875 L 284.332031 191.859375 L 284.648438 263.621094 L 284.960938 272.050781 L 285.277344 274.503906 L 285.589844 275.734375 L 285.90625 276.097656 L 286.222656 276.042969 L 286.535156 275.648438 L 286.851562 275.929688 L 287.167969 276.207031 L 287.484375 276.585938 L 287.796875 276.960938 L 288.113281 277.0625 L 288.429688 277.089844 L 288.746094 277.097656 L 289.0625 277.046875 L 289.378906 277.082031 L 289.695312 277.121094 L 290.011719 277.207031 L 290.328125 277.261719 L 290.648438 277.257812 L 290.964844 277.207031 L 291.28125 277.132812 L 291.597656 277.164062 L 291.917969 277.148438 L 292.234375 277.113281 L 292.550781 277.121094 L 292.871094 277.234375 L 293.1875 277.148438 L 293.507812 276.957031 L 293.824219 276.921875 L 294.144531 276.871094 L 294.464844 276.679688 L 294.78125 276.085938 L 295.101562 276.246094 L 295.421875 276.832031 L 295.742188 277.195312 L 296.058594 277.183594 L 296.378906 277.34375 L 296.699219 277.371094 L 297.019531 277.246094 L 297.339844 277.3125 L 297.660156 277.21875 L 297.980469 276.917969 L 298.300781 276.660156 L 298.625 276.851562 L 298.945312 277.085938 L 299.265625 276.863281 L 299.585938 276.566406 L 299.910156 276.472656 L 300.230469 276.519531 L 300.550781 276.667969 L 300.875 276.429688 L 301.195312 276.125 L 301.519531 275.976562 L 301.839844 276.386719 L 302.164062 276.800781 L 302.488281 276.765625 L 302.808594 276.59375 L 303.132812 276.609375 L 303.457031 276.601562 L 303.78125 276.742188 L 304.101562 276.832031 L 304.425781 276.71875 L 304.75 276.4375 L 305.074219 276.105469 L 305.398438 276.234375 L 305.722656 276.699219 L 306.046875 277.050781 L 306.371094 277.066406 L 306.695312 276.898438 L 307.023438 276.523438 L 307.347656 275.738281 L 307.671875 276.222656 L 308 276.84375 L 308.324219 276.695312 L 308.648438 276.691406 L 308.976562 277.027344 L 309.304688 277.136719 L 309.628906 277.261719 L 309.957031 277.242188 L 310.285156 277.21875 L 310.613281 277.050781 L 310.941406 276.972656 L 311.269531 277.160156 L 311.601562 277.28125 L 311.929688 277.300781 L 312.261719 277.277344 L 312.589844 277.253906 L 312.921875 277.261719 L 313.253906 277.292969 L 313.585938 277.203125 L 313.917969 277.234375 L 314.25 277.230469 L 314.585938 277.152344 L 314.917969 277.21875 L 315.253906 277.347656 L 315.589844 277.3125 L 315.925781 276.953125 L 316.265625 262.398438 L 316.601562 151.425781 L 316.941406 39.980469 L 317.28125 164.777344 L 317.621094 259.421875 L 317.960938 271.253906 L 318.300781 274.242188 L 318.644531 275.40625 L 318.988281 275.808594 L 319.332031 276.214844 L 319.675781 276.402344 L 320.023438 276.566406 L 320.371094 276.765625 L 320.71875 276.855469 L 321.066406 276.9375 L 321.414062 277.015625 L 321.765625 277.089844 L 322.117188 277.066406 L 322.46875 277.152344 L 322.824219 277.230469 L 323.175781 277.195312 L 323.53125 275.761719 L 323.890625 270.53125 L 324.246094 269.140625 L 324.605469 275.1875 L 324.964844 277.1875 L 325.328125 277.320312 L 325.691406 277.121094 L 326.054688 276.964844 L 326.417969 277.089844 L 326.785156 277.292969 L 327.152344 277.378906 L 327.519531 277.417969 L 327.890625 277.480469 L 328.261719 277.492188 L 328.632812 277.460938 L 329.007812 277.492188 L 329.382812 277.46875 L 329.757812 277.523438 L 330.136719 277.574219 L 330.515625 277.660156 L 330.894531 277.570312 L 331.277344 277.550781 L 331.664062 277.359375 L 332.046875 277.289062 L 332.433594 277.167969 L 332.820312 277.304688 L 333.210938 277.53125 L 333.601562 277.574219 L 333.996094 277.503906 L 334.390625 277.636719 L 334.785156 277.65625 L 335.183594 277.679688 L 335.582031 277.617188 L 335.984375 277.53125 L 336.386719 277.574219 L 336.789062 277.5625 L 337.195312 277.445312 L 337.601562 277.523438 L 338.011719 277.082031 L 338.421875 276.773438 L 338.835938 277.171875 L 339.25 277.527344 L 339.667969 277.554688 L 340.082031 277.601562 L 340.503906 277.523438 L 340.925781 277.609375 L 341.347656 277.636719 L 341.773438 277.710938 L 342.199219 277.699219 L 342.628906 277.851562 L 343.058594 277.738281 L 343.488281 277.667969 L 343.921875 277.722656 L 344.359375 277.710938 L 344.796875 277.703125 L 345.234375 277.550781 L 345.675781 277.695312 L 346.117188 277.664062 L 346.566406 277.761719 L 347.011719 277.8125 L 347.460938 277.722656 L 347.910156 277.539062 L 348.363281 277.664062 L 348.816406 277.507812 L 349.273438 258.054688 L 349.730469 101.804688 L 350.191406 106.757812 L 350.65625 260.121094 L 351.121094 274.148438 L 351.585938 276.21875 L 352.054688 276.832031 L 352.523438 277.105469 L 352.996094 277.253906 L 353.46875 277.503906 L 353.945312 277.632812 L 354.425781 277.648438 L 354.90625 277.738281 L 355.386719 277.769531 L 355.871094 277.761719 L 356.359375 277.800781 L 356.847656 277.828125 L 357.339844 277.820312 L 357.832031 277.84375 L 358.328125 277.808594 L 358.824219 277.757812 L 359.324219 277.84375 L 359.824219 277.875 L 360.328125 277.929688 L 360.835938 277.878906 L 361.34375 277.902344 L 361.851562 277.9375 L 362.367188 277.804688 L 362.878906 277.808594 L 363.398438 277.703125 L 363.917969 277.3125 L 364.4375 277.441406 L 364.960938 277.777344 L 365.488281 277.871094 L 366.015625 277.894531 L 366.546875 277.667969 L 367.078125 277.769531 L 367.613281 277.929688 L 368.152344 277.984375 L 368.691406 277.9375 L 369.234375 277.96875 L 369.777344 278.015625 L 370.324219 277.886719 L 370.875 277.738281 L 371.425781 277.914062 L 371.980469 278.039062 L 372.535156 277.617188 L 373.09375 273.324219 L 373.65625 271.511719 L 374.21875 276.824219 L 374.785156 277.855469 L 375.351562 277.957031 L 375.925781 277.960938 L 376.496094 277.957031 L 377.074219 277.992188 L 377.652344 277.953125 L 378.230469 278.042969 L 378.816406 278.070312 L 379.398438 278.050781 L 379.988281 278.066406 L 380.578125 278.015625 L 381.171875 278.035156 L 381.765625 274.664062 L 382.363281 165.621094 L 382.964844 113.4375 L 383.566406 263.164062 L 384.171875 275.289062 L 384.78125 276.722656 L 385.390625 277.355469 L 386.003906 277.671875 L 386.621094 277.894531 L 387.238281 277.902344 L 387.859375 277.980469 L 388.480469 278.007812 L 389.105469 278.019531 L 389.734375 278.082031 L 390.367188 278.113281 L 391 277.953125 L 391.636719 277.945312 L 392.273438 277.949219 L 392.914062 278.054688 L 393.558594 278.109375 L 394.207031 278.128906 L 394.855469 278.15625 L 395.507812 278.175781 L 396.160156 278.148438 L 396.820312 278.152344 L 397.476562 278.164062 L 398.140625 278.167969 L 398.804688 278.214844 L 399.472656 278.222656 L 400.144531 278.28125 L 400.816406 278.296875 L 401.492188 278.269531 L 402.171875 278.257812 L 402.851562 278.273438 L 403.535156 278.246094 L 404.222656 278.269531 L 404.910156 278.171875 L 405.601562 277.980469 L 406.296875 278.042969 L 406.996094 278.144531 L 407.695312 278.066406 L 408.398438 278.089844 L 409.105469 278.199219 L 409.8125 278.171875 L 410.523438 278.238281 L 411.238281 278.285156 L 411.953125 278.269531 L 412.675781 278.246094 L 413.398438 278.246094 L 414.121094 278.210938 L 414.851562 266.738281 L 415.582031 122.46875 L 416.316406 204.46875 L 417.050781 273.742188 L 417.789062 276.800781 L 418.53125 277.535156 L 419.277344 277.8125 L 420.027344 277.828125 L 420.777344 275.964844 L 421.53125 276.390625 L 422.289062 277.9375 L 423.046875 278.117188 L 423.808594 278.210938 L 424.574219 278.246094 L 425.34375 278.28125 L 426.113281 278.15625 L 426.886719 278.179688 L 427.664062 278.242188 L 428.445312 278.210938 L 429.226562 278.070312 L 430.015625 278.214844 L 430.804688 278.316406 L 431.597656 278.328125 L 432.390625 278.273438 L 433.191406 278.332031 L 433.992188 278.328125 L 434.796875 278.355469 L 435.605469 278.359375 L 436.417969 278.371094 L 437.230469 278.390625 L 438.046875 278.359375 L 438.867188 278.179688 L 439.691406 278.132812 L 440.519531 278.320312 L 441.351562 278.328125 L 442.183594 278.175781 L 443.023438 278.234375 L 443.863281 278.25 L 444.707031 278.304688 L 445.554688 278.277344 L 446.40625 278.203125 L 447.261719 276.496094 L 448.117188 187.65625 L 448.980469 160.203125 L 449.84375 271.003906 L 450.710938 276.625 L 451.582031 277.496094 L 452.457031 277.933594 L 453.335938 278.085938 L 454.21875 278.195312 L 455.105469 278.257812 L 455.996094 278.277344 L 456.886719 278.269531 L 457.785156 278.347656 L 458.683594 278.378906 L 459.589844 278.386719 L 460.496094 278.378906 L 461.40625 278.386719 L 462.320312 278.429688 L 463.242188 278.410156 L 464.164062 278.4375 L 465.089844 278.441406 L 466.019531 278.136719 L 466.953125 277.414062 L 467.890625 278.324219 L 468.832031 278.449219 L 469.777344 278.445312 L 470.726562 278.480469 L 471.679688 278.5 L 472.636719 278.464844 L 473.597656 278.425781 L 474.5625 278.421875 L 475.53125 278.484375 L 476.503906 278.460938 L 477.480469 278.472656 L 478.460938 278.414062 L 479.445312 278.363281 L 480.433594 267.71875 L 481.425781 136.632812 L 482.421875 246.59375 L 483.425781 275.246094 L 484.429688 277.183594 L 485.4375 277.792969 L 486.453125 278.054688 L 487.46875 278.171875 L 488.492188 278.277344 L 489.515625 278.316406 L 490.546875 278.378906 L 491.582031 278.394531 L 492.621094 278.410156 L 493.664062 278.414062 L 494.710938 278.417969 L 495.761719 278.429688 L 496.816406 278.460938 L 497.875 278.476562 L 498.933594 278.472656 L 500 278.492188 L 501.070312 278.5 L 502.144531 278.492188 L 503.222656 278.449219 L 504.300781 278.476562 L 505.386719 278.40625 L 506.472656 278.390625 L 507.5625 278.445312 L 508.65625 278.386719 L 509.75 278.332031 L 510.847656 277.707031 L 511.953125 277.984375 L 513.058594 277.753906 L 514.164062 207.789062 L 515.273438 187.957031 L 516.386719 271.71875 L 517.503906 276.398438 L 518.621094 277.421875 L 519.742188 277.789062 L 520.863281 277.964844 L 521.988281 278.09375 L 523.117188 278.164062 L 524.246094 278.222656 L 525.378906 278.273438 L 526.511719 278.273438 L 527.648438 278.328125 L 528.785156 278.320312 L 529.921875 278.292969 L 531.0625 278.292969 L 532.207031 278.296875 L 533.351562 278.332031 L 534.496094 278.3125 L 535.640625 278.28125 L 536.789062 278.3125 L 537.9375 278.285156 L 539.089844 278.328125 L 540.242188 278.285156 L 541.394531 278.316406 L 542.546875 278.273438 L 543.703125 278.265625 L 544.855469 278.238281 L 546.011719 274.398438 L 547.167969 164.4375 L 548.328125 232.570312 L 549.484375 273.425781 L 550.640625 276.355469 L 551.800781 277.242188 L 552.960938 277.167969 L 554.121094 277.238281 L 555.28125 277.792969 L 556.4375 277.976562 L 557.597656 278.035156 L 558.757812 278.023438 L 559.917969 278.089844 L 561.074219 278.132812 L 562.234375 278.136719 L 563.394531 278.179688 L 564.554688 278.15625 L 565.710938 278.167969 L 566.867188 278.183594 L 568.023438 278.15625 L 570.335938 278.15625 L 571.488281 278.132812 L 572.640625 278.105469 L 573.792969 278.085938 L 574.945312 278.078125 L 576.097656 278.089844 L 577.246094 278.078125 L 578.394531 277.652344 L 579.539062 230.789062 L 580.683594 168.570312 L 581.828125 264.804688 L 582.96875 274.515625 L 584.109375 276.253906 L 585.25 276.960938 L 586.386719 277.28125 L 587.523438 277.507812 L 588.65625 277.664062 L 589.789062 277.722656 L 590.917969 277.785156 L 592.046875 277.878906 L 593.175781 277.871094 L 594.300781 277.859375 L 595.425781 277.46875 L 596.546875 277.53125 L 597.667969 277.886719 L 598.785156 277.921875 L 599.902344 277.917969 L 601.015625 277.917969 L 602.128906 277.921875 L 603.238281 277.925781 L 604.347656 277.941406 L 605.453125 277.941406 L 606.558594 277.949219 L 607.660156 277.9375 L 608.757812 277.9375 L 609.855469 277.914062 L 610.953125 277.855469 L 612.042969 266.964844 L 613.136719 165.679688 L 614.222656 229.476562 L 615.3125 270.140625 L 616.394531 274.550781 L 617.476562 275.9375 L 618.554688 276.601562 L 619.632812 276.960938 L 620.707031 277.214844 L 621.777344 277.34375 L 622.847656 277.453125 L 623.914062 277.515625 L 624.976562 277.554688 L 626.039062 277.621094 L 627.097656 277.640625 L 628.152344 277.679688 L 629.207031 277.667969 L 630.257812 277.691406 L 631.304688 277.707031 L 632.347656 277.757812 L 633.390625 277.722656 L 634.429688 277.699219 L 635.46875 277.738281 L 636.5 277.707031 L 637.53125 277.535156 L 638.558594 277.339844 L 639.582031 277.574219 L 640.605469 277.679688 L 641.621094 277.675781 L 642.636719 277.6875 L 643.648438 277.6875 L 644.660156 277.242188 L 645.664062 248.695312 L 646.667969 159.589844 L 647.667969 239.914062 L 648.664062 269.675781 L 649.65625 273.625 L 650.644531 274.59375 L 651.632812 275.695312 L 652.613281 276.3125 L 653.59375 276.640625 L 654.570312 276.804688 L 655.542969 276.972656 L 656.511719 277.085938 L 657.476562 277.152344 L 658.4375 277.21875 L 659.394531 277.277344 L 660.351562 277.320312 L 661.300781 277.375 L 662.25 277.417969 L 663.191406 277.417969 L 664.132812 277.4375 L 665.066406 277.441406 L 666 277.476562 L 666.929688 277.476562 L 667.855469 277.4375 L 668.773438 277.464844 L 669.691406 277.472656 L 670.609375 277.503906 L 671.519531 277.472656 L 672.425781 277.488281 L 673.328125 277.5 L 674.230469 277.488281 L 675.125 277.46875 L 676.019531 277.480469 L 676.90625 277.511719 L 677.792969 277.007812 L 678.675781 258.066406 L 679.554688 172.140625 L 680.433594 209.503906 L 681.304688 261.394531 L 682.171875 270.667969 L 683.039062 273.3125 L 683.902344 274.640625 L 684.757812 275.363281 L 685.613281 275.796875 L 686.46875 276.140625 L 687.316406 276.339844 L 688.164062 276.523438 L 689.007812 276.652344 L 689.84375 276.707031 L 690.683594 276.757812 L 691.515625 276.84375 L 692.34375 276.894531 L 693.171875 277 L 693.996094 277.007812 L 694.816406 277.0625 L 695.632812 277.085938 L 696.449219 277.117188 L 697.257812 277.136719 L 698.066406 277.175781 L 698.875 277.136719 L 699.675781 277.132812 L 700.476562 277.101562 L 701.273438 277.105469 L 702.066406 277.175781 L 702.855469 277.171875 L 703.644531 277.140625 L 704.429688 277.082031 L 705.210938 277.132812 L 705.988281 277.132812 L 706.765625 277.1875 L 707.539062 277.15625 L 709.078125 277.203125 L 709.84375 277.164062 L 710.605469 277.054688 L 711.363281 273.757812 L 712.121094 236.714844 L 712.875 167.890625 L 713.628906 214.746094 L 714.375 259.074219 L 715.125 268.796875 L 715.867188 271.960938 L 716.609375 273.503906 L 717.347656 274.355469 L 718.082031 274.96875 L 718.816406 275.328125 L 719.546875 275.632812 L 720.273438 275.75 L 721 275.839844 L 721.722656 275.882812 L 722.445312 275.941406 L 723.164062 276.152344 L 723.878906 276.351562 L 724.59375 276.40625 L 725.304688 276.5 L 726.011719 276.542969 L 726.71875 276.636719 L 727.421875 276.675781 L 728.125 276.734375 L 728.824219 276.664062 L 729.523438 276.761719 L 730.21875 276.785156 L 730.910156 276.769531 L 731.601562 276.808594 L 732.289062 276.773438 L 732.972656 276.761719 L 733.65625 276.832031 L 734.339844 276.777344 L 735.019531 276.820312 L 735.695312 276.863281 L 736.371094 276.800781 L 737.042969 276.867188 L 737.710938 276.828125 L 738.378906 276.808594 L 739.046875 276.835938 L 739.710938 276.855469 L 740.371094 276.851562 L 741.03125 276.859375 L 741.6875 276.863281 L 742.34375 276.863281 L 742.996094 276.890625 L 743.648438 276.832031 L 744.296875 275.628906 L 744.941406 262.703125 L 745.585938 211.523438 L 746.230469 174.199219 L 746.871094 222.246094 L 747.507812 257.144531 L 748.144531 266.894531 L 748.78125 270.390625 L 749.410156 272.113281 L 750.042969 273.195312 L 750.671875 273.910156 L 751.296875 274.402344 L 751.921875 274.761719 L 752.542969 275.035156 L 753.164062 275.296875 L 753.78125 275.464844 L 754.398438 275.5625 L 755.011719 275.671875 L 755.625 275.710938 L 756.234375 275.800781 L 756.84375 275.898438 L 757.449219 275.972656 L 758.054688 276 L 758.65625 276.019531 L 759.257812 276.058594 L 759.859375 276.09375 L 760.453125 276.167969 L 761.050781 276.183594 L 761.644531 276.242188 L 762.234375 276.203125 L 762.824219 276.144531 L 763.414062 276.027344 L 764 276.105469 L 764.582031 276.222656 L 765.167969 276.246094 L 765.746094 276.332031 L 766.324219 276.316406 L 766.902344 276.375 L 767.476562 276.359375 L 768.625 276.320312 L 769.195312 276.339844 L 769.761719 276.34375 L 770.328125 276.371094 L 770.894531 276.324219 L 771.457031 276.375 L 772.019531 276.378906 L 772.578125 276.394531 L 773.136719 276.394531 L 773.695312 276.398438 L 774.25 276.40625 L 774.800781 276.308594 L 775.351562 276.339844 L 775.902344 276.429688 L 776.453125 276.328125 L 776.996094 276.214844 L 777.542969 274.550781 L 778.085938 262.761719 L 778.628906 222.621094 L 779.167969 181.792969 L 779.707031 202.828125 L 780.246094 243.878906 L 780.78125 260.953125 L 781.3125 266.761719 L 781.847656 269.65625 L 782.378906 271.148438 L 782.90625 272.214844 L 783.433594 272.972656 L 783.960938 273.457031 L 784.484375 273.878906 L 785.007812 274.144531 L 785.53125 274.402344 L 786.050781 274.609375 L 786.570312 274.820312 L 787.085938 274.917969 L 787.601562 275.023438 L 788.117188 275.171875 L 788.628906 275.261719 L 789.140625 275.269531 L 789.652344 275.371094 L 790.160156 275.453125 L 790.667969 275.511719 L 791.171875 275.554688 L 791.675781 275.621094 L 792.179688 275.632812 L 792.679688 275.644531 L 793.179688 275.679688 L 793.679688 275.722656 L 794.175781 275.753906 L 794.671875 275.75 L 795.164062 275.707031 L 795.660156 275.726562 L 796.148438 275.800781 L 796.640625 275.808594 L 797.128906 275.84375 L 797.617188 275.824219 L 798.101562 275.746094 L 798.585938 275.777344 L 799.070312 275.835938 L 799.550781 275.851562 L 800.03125 275.824219 L 800.511719 275.855469 L 800.992188 275.867188 L 801.46875 275.835938 L 801.945312 275.839844 L 802.417969 275.867188 L 802.890625 275.859375 L 803.363281 275.839844 L 803.832031 275.824219 L 804.300781 275.644531 L 804.769531 275.625 L 805.234375 275.6875 L 805.703125 275.765625 L 806.167969 275.816406 L 806.628906 275.835938 L 807.089844 275.796875 L 807.550781 275.828125 L 808.011719 275.8125 L 808.46875 275.808594 L 808.925781 275.863281 L 809.382812 275.824219 L 809.835938 275.8125 L 810.289062 275.601562 L 810.742188 274.234375 L 811.191406 265.363281 L 811.640625 239.0625 L 812.089844 202.324219 L 812.539062 192.476562 L 812.984375 220.542969 L 813.429688 247.671875 L 813.875 259.933594 L 814.316406 265.234375 L 814.761719 267.910156 L 815.199219 269.625 L 815.640625 270.71875 L 816.078125 271.480469 L 816.515625 272.125 L 816.953125 272.621094 L 817.386719 273.011719 L 817.824219 273.296875 L 818.257812 273.503906 L 818.6875 273.808594 L 819.121094 273.945312 L 819.550781 274.039062 L 819.976562 274.203125 L 820.40625 274.363281 L 820.832031 274.339844 L 821.257812 274.4375 L 821.683594 274.496094 L 822.105469 274.605469 L 822.53125 274.589844 L 822.953125 274.707031 L 823.371094 274.792969 L 823.792969 274.789062 L 824.210938 274.867188 L 824.628906 274.957031 L 825.042969 274.902344 L 825.460938 274.96875 L 825.875 274.925781 L 826.289062 274.996094 L 826.699219 274.984375 L 827.109375 275.003906 L 827.519531 275.085938 L 827.929688 275.019531 L 828.339844 275.101562 L 828.746094 275.0625 L 829.152344 275.074219 L 829.558594 275.117188 L 829.964844 275.101562 L 830.367188 275.128906 L 830.769531 275.132812 L 831.171875 275.113281 L 831.570312 275.042969 L 831.972656 275.171875 L 832.371094 275.15625 L 832.769531 275.175781 L 833.164062 275.140625 L 833.5625 275.148438 L 833.957031 275.136719 L 834.351562 275.15625 L 834.742188 275.097656 L 835.136719 275.214844 L 835.527344 275.136719 L 835.917969 275.125 L 836.308594 275.167969 L 836.695312 275.152344 L 837.082031 275.207031 L 837.46875 275.113281 L 837.855469 275.117188 L 838.242188 275.171875 L 838.625 275.195312 L 839.007812 275.1875 L 839.390625 275.234375 L 839.773438 275.175781 L 840.152344 275.160156 L 840.53125 275.167969 L 840.910156 275.183594 L 841.289062 275.160156 L 841.667969 275.167969 L 842.042969 275.167969 L 842.417969 275.132812 L 843.167969 275.132812 L 843.539062 274.710938 L 843.914062 272.949219 L 844.285156 266.617188 L 844.652344 249.980469 L 845.023438 221.277344 L 845.390625 197.070312 L 845.761719 204.144531 L 846.128906 227.03125 L 846.496094 246.875 L 846.859375 257.769531 L 847.222656 262.871094 L 847.589844 265.78125 L 847.953125 267.578125 L 848.3125 268.882812 L 848.675781 269.804688 L 849.035156 270.503906 L 849.394531 271.058594 L 849.753906 271.421875 L 850.113281 271.898438 L 850.472656 272.15625 L 850.828125 272.4375 L 851.183594 272.582031 L 851.539062 272.785156 L 851.894531 272.980469 L 852.25 273.171875 L 852.601562 273.347656 L 852.953125 273.3125 L 853.304688 273.507812 L 853.65625 273.535156 L 854.007812 273.644531 L 854.355469 273.746094 L 854.703125 273.78125 L 855.050781 273.71875 L 855.398438 273.8125 L 855.746094 273.886719 L 856.089844 273.878906 L 856.4375 273.941406 L 856.78125 274.046875 L 857.125 274.007812 L 857.46875 274.058594 L 857.808594 274.121094 L 858.152344 274.15625 L 858.492188 274.253906 L 858.832031 274.101562 L 859.171875 274.160156 L 859.511719 274.28125 L 859.847656 274.3125 L 860.183594 274.234375 L 860.523438 274.214844 L 860.859375 274.269531 L 861.191406 274.136719 L 861.527344 274.226562 L 861.859375 274.214844 L 862.195312 274.246094 L 862.527344 274.28125 L 862.859375 274.351562 L 863.191406 274.347656 L 863.519531 274.375 L 863.851562 274.359375 L 864.179688 274.289062 L 864.507812 274.308594 L 864.835938 274.375 L 865.164062 274.257812 L 865.492188 274.300781 L 865.816406 274.3125 L 866.140625 274.289062 L 866.464844 274.320312 L 866.789062 274.320312 L 867.113281 274.277344 L 867.4375 274.429688 L 867.757812 274.433594 L 868.082031 274.382812 L 868.402344 274.253906 L 868.722656 274.3125 L 869.042969 274.296875 L 869.363281 274.34375 L 869.679688 274.382812 L 870 274.34375 L 870.316406 274.320312 L 870.632812 274.378906 L 870.949219 274.339844 L 871.265625 274.277344 L 871.582031 274.238281 L 871.894531 274.246094 L 872.207031 274.226562 L 872.523438 274.308594 L 872.835938 274.25 L 873.148438 274.179688 L 873.457031 274.289062 L 873.769531 274.363281 L 874.082031 274.203125 L 874.390625 274.214844 L 874.699219 274.242188 L 875.007812 274.261719 L 875.316406 274.292969 L 875.625 274.238281 L 875.933594 274.15625 L 876.238281 274.207031 L 876.546875 274.011719 L 876.851562 273.199219 L 877.15625 270.488281 L 877.460938 263.519531 L 877.765625 249.230469 L 878.070312 228.539062 L 878.371094 210.046875 L 878.671875 204.042969 L 878.976562 214.828125 L 879.277344 234.746094 L 879.578125 248.714844 L 879.878906 256.9375 L 880.179688 261.304688 L 880.476562 264.066406 L 880.777344 265.808594 L 881.074219 267.097656 L 881.371094 268.058594 L 881.667969 268.855469 L 881.964844 269.332031 L 882.261719 269.824219 L 882.554688 270.273438 L 882.851562 270.566406 L 883.144531 270.945312 L 883.441406 271.136719 L 883.734375 271.332031 L 884.027344 271.636719 L 884.320312 271.707031 L 884.609375 271.941406 L 884.902344 271.917969 L 885.191406 272.179688 L 885.484375 272.1875 L 885.773438 272.359375 L 886.0625 272.273438 L 886.351562 272.394531 L 886.640625 272.449219 L 886.925781 272.535156 L 887.214844 272.476562 L 887.503906 272.566406 L 887.789062 272.632812 L 888.074219 272.859375 L 888.359375 272.808594 L 888.644531 272.820312 L 888.929688 272.878906 L 889.214844 272.925781 L 889.496094 272.960938 L 889.78125 272.972656 L 890.0625 273.070312 L 890.34375 273.019531 L 890.625 273.078125 L 890.90625 273.164062 L 891.1875 273.070312 L 891.46875 273.160156 L 891.746094 273.191406 L 892.027344 273.253906 L 892.304688 273.195312 L 892.582031 273.144531 L 892.863281 273.265625 L 893.140625 273.265625 L 893.414062 273.300781 L 893.691406 273.097656 L 893.96875 273.246094 L 894.242188 273.078125 L 894.519531 273.210938 L 894.792969 273.390625 L 895.066406 273.222656 L 895.339844 273.234375 L 895.613281 273.152344 L 895.886719 273.273438 L 896.160156 273.285156 L 896.429688 273.140625 L 896.703125 273.238281 L 896.972656 273.246094 L 897.242188 273.246094 L 897.515625 273.390625 L 897.785156 273.203125 L 898.050781 273.214844 L 898.320312 273.261719 L 898.589844 273.277344 L 898.859375 273.21875 L 899.125 273.296875 L 899.390625 273.175781 L 899.660156 273.3125 L 899.925781 273.269531 L 900.191406 273.242188 L 900.457031 273.328125 L 900.71875 273.273438 L 900.984375 273.304688 L 901.25 273.273438 L 901.511719 273.335938 L 901.777344 273.296875 L 902.039062 273.195312 L 902.300781 273.125 L 902.5625 273.164062 L 902.824219 273.140625 L 903.085938 273.171875 L 903.347656 273.21875 L 903.605469 273.257812 L 903.867188 273.179688 L 904.125 273.152344 L 904.382812 273.136719 L 904.644531 273.226562 L 904.902344 273.199219 L 905.160156 273.144531 L 905.417969 273.234375 L 905.671875 273.160156 L 905.929688 273.148438 L 906.1875 273.070312 L 906.441406 273.132812 L 906.699219 273.199219 L 906.953125 273.058594 L 907.207031 273.089844 L 907.460938 273.164062 L 907.714844 273.121094 L 908.222656 273.230469 L 908.476562 273.15625 L 908.726562 273.1875 L 908.980469 273.15625 L 909.230469 273.066406 L 909.480469 273.160156 L 909.734375 272.847656 L 909.984375 272.148438 L 910.234375 270.320312 L 910.484375 266.164062 L 910.730469 257.746094 L 910.980469 244.101562 L 911.230469 227.515625 L 911.476562 212.773438 L 911.726562 209.777344 L 911.972656 215.359375 L 912.21875 229.171875 L 912.464844 241.9375 L 912.710938 251.121094 L 912.957031 257.222656 L 913.203125 260.761719 L 913.449219 262.917969 L 913.695312 264.269531 L 913.9375 265.492188 L 914.183594 266.453125 L 914.425781 267.265625 L 914.671875 267.738281 L 914.914062 268.21875 L 915.15625 268.65625 L 915.398438 268.882812 L 915.640625 269.273438 L 915.882812 269.46875 L 916.125 269.859375 L 916.363281 269.945312 L 916.605469 270.160156 L 916.84375 270.316406 L 917.085938 270.503906 L 917.324219 270.574219 L 917.5625 270.75 L 917.804688 270.96875 L 918.042969 271.035156 L 918.28125 271.007812 L 918.519531 271.195312 L 918.753906 271.222656 L 918.992188 271.191406 L 919.230469 271.390625 L 919.464844 271.367188 L 919.703125 271.324219 L 919.9375 271.457031 L 920.175781 271.542969 L 920.410156 271.597656 L 920.644531 271.679688 L 920.878906 271.683594 L 921.113281 271.601562 L 921.347656 271.621094 L 921.582031 271.773438 L 921.8125 271.769531 L 922.046875 271.902344 L 922.277344 271.90625 L 922.511719 271.882812 L 922.742188 271.863281 L 922.972656 271.953125 L 923.207031 271.808594 L 923.4375 271.976562 L 923.667969 271.890625 L 923.898438 271.917969 L 924.125 271.980469 L 924.355469 272 L 924.585938 271.890625 L 924.816406 272.007812 L 925.042969 272.03125 L 925.269531 272.066406 L 925.5 271.953125 L 925.726562 271.945312 L 925.953125 272.125 L 926.179688 272.03125 L 926.40625 272.046875 L 926.632812 271.917969 L 926.859375 271.972656 L 927.085938 272 L 927.3125 271.988281 L 927.535156 272 L 927.761719 271.996094 L 927.984375 272.015625 L 928.207031 271.941406 L 928.433594 271.976562 L 928.65625 272.046875 L 928.878906 272.035156 L 929.101562 272.082031 L 929.324219 271.910156 L 929.546875 272.0625 L 929.769531 272.074219 L 929.988281 272.183594 L 930.210938 272.003906 L 930.429688 272.140625 L 930.652344 272.03125 L 930.871094 272.140625 L 931.09375 272.078125 L 931.3125 272.101562 L 931.53125 271.996094 L 931.75 272.085938 L 931.96875 271.992188 L 932.1875 272.070312 L 932.40625 271.949219 L 932.621094 272 L 932.839844 272.03125 L 933.054688 272.09375 L 933.273438 272.011719 L 933.488281 272.132812 L 933.707031 271.984375 L 933.921875 272.027344 L 934.136719 271.851562 L 934.351562 271.984375 L 934.566406 272.027344 L 934.78125 272.074219 L 934.996094 272.054688 L 935.210938 271.925781 L 935.425781 271.957031 L 935.636719 271.996094 L 935.851562 271.957031 L 936.0625 271.972656 L 936.277344 271.851562 L 936.488281 271.78125 L 936.699219 271.976562 L 936.910156 271.972656 L 937.121094 272.046875 L 937.332031 272.039062 L 937.542969 271.925781 L 937.753906 271.894531 L 937.964844 271.984375 L 938.175781 271.796875 L 938.382812 271.921875 L 938.59375 271.871094 L 938.800781 271.855469 L 939.011719 271.941406 L 939.21875 271.765625 L 939.425781 271.792969 L 939.632812 271.761719 L 939.839844 271.792969 L 940.046875 271.726562 L 940.253906 271.941406 L 940.460938 271.878906 L 940.667969 271.886719 L 940.875 271.890625 L 941.078125 271.882812 L 941.285156 271.910156 L 941.488281 271.769531 L 941.695312 271.832031 L 941.898438 271.738281 L 942.105469 271.8125 L 942.308594 271.800781 L 942.511719 271.667969 L 942.714844 271.464844 L 942.917969 271.257812 L 943.121094 270.484375 L 943.324219 269.0625 L 943.523438 265.976562 L 943.726562 261.03125 L 943.929688 252.601562 L 944.128906 242.78125 L 944.332031 230.644531 L 944.53125 219.433594 L 944.734375 215.375 L 944.933594 217.222656 L 945.132812 225.601562 L 945.332031 235.335938 L 945.53125 244.792969 L 945.730469 252.03125 L 945.929688 256.738281 L 946.128906 259.546875 L 946.328125 261.589844 L 946.523438 263.039062 L 946.722656 263.820312 L 946.917969 264.644531 L 947.117188 265.382812 L 947.3125 266.027344 L 947.511719 266.484375 L 947.707031 266.859375 L 947.902344 267.207031 L 948.097656 267.402344 L 948.292969 267.832031 L 948.488281 267.953125 L 948.683594 268.09375 L 948.878906 268.421875 L 949.074219 268.519531 L 949.269531 268.65625 L 949.460938 268.804688 L 949.65625 268.914062 L 949.847656 269.042969 L 950.042969 269.085938 L 950.234375 269.128906 L 950.429688 269.40625 L 950.621094 269.355469 L 950.8125 269.480469 L 951.003906 269.59375 L 951.195312 269.550781 L 951.386719 269.640625 L 951.578125 269.699219 L 951.769531 269.988281 L 951.960938 269.976562 L 952.148438 269.894531 L 952.339844 269.886719 L 952.53125 270.039062 L 952.71875 269.980469 L 952.910156 270.023438 L 953.097656 269.90625 L 953.289062 269.871094 L 953.476562 270.105469 L 953.664062 270.148438 L 953.851562 270.113281 L 954.039062 270.207031 L 954.226562 270.207031 L 954.417969 270.199219 L 954.605469 270.347656 L 954.789062 270.378906 L 954.976562 270.203125 L 955.164062 270.25 L 955.351562 270.277344 L 955.539062 270.230469 L 955.722656 270.214844 L 955.910156 270.492188 L 956.09375 270.289062 L 956.28125 270.152344 L 956.464844 270.257812 L 956.652344 270.332031 L 956.835938 270.257812 L 957.019531 270.238281 L 957.203125 270.355469 L 957.390625 270.367188 L 957.574219 270.429688 L 957.757812 270.390625 L 957.941406 270.496094 L 958.125 270.460938 L 958.308594 270.40625 L 958.492188 270.425781 L 958.671875 270.394531 L 958.855469 270.34375 L 959.039062 270.339844 L 959.222656 270.355469 L 959.402344 270.398438 L 959.585938 270.296875 L 959.769531 270.398438 L 959.949219 270.296875 L 960.132812 270.304688 L 960.3125 270.359375 L 960.492188 270.339844 L 960.675781 270.371094 L 960.855469 270.414062 L 961.035156 270.429688 L 961.21875 270.414062 L 961.398438 270.375 L 961.578125 270.355469 L 961.757812 270.285156 L 961.9375 270.375 L 962.117188 270.285156 L 962.296875 270.433594 L 962.476562 270.320312 L 962.65625 270.558594 L 962.835938 270.457031 L 963.015625 270.242188 L 963.195312 270.5 L 963.375 270.535156 L 963.550781 270.402344 L 963.730469 270.484375 L 963.910156 270.488281 L 964.089844 270.484375 L 964.265625 270.496094 L 964.445312 270.601562 L 964.625 270.4375 L 964.800781 270.609375 L 964.980469 270.496094 L 965.15625 270.386719 L 965.335938 270.652344 L 965.511719 270.445312 L 965.6875 270.523438 L 965.867188 270.355469 L 966.042969 270.539062 L 966.21875 270.421875 L 966.398438 270.449219 L 966.574219 270.40625 L 966.75 270.441406 L 966.929688 270.273438 L 967.105469 270.574219 L 967.28125 270.558594 L 967.457031 270.441406 L 967.632812 270.429688 L 967.808594 270.339844 L 967.984375 270.542969 L 968.164062 270.613281 L 968.339844 270.503906 L 968.515625 270.398438 L 968.691406 270.421875 L 968.863281 270.378906 L 969.039062 270.425781 L 969.214844 270.4375 L 969.390625 270.457031 L 969.566406 270.566406 L 969.742188 270.355469 L 969.917969 270.53125 L 970.09375 270.519531 L 970.269531 270.570312 L 970.441406 270.402344 L 970.617188 270.46875 L 970.792969 270.46875 L 970.96875 270.375 L 971.140625 270.449219 L 971.316406 270.484375 L 971.492188 270.523438 L 971.667969 270.519531 L 971.839844 270.621094 L 972.015625 270.421875 L 972.191406 270.613281 L 972.363281 270.5 L 972.539062 270.402344 L 972.710938 270.449219 L 972.886719 270.503906 L 973.0625 270.589844 L 973.234375 270.515625 L 973.410156 270.410156 L 973.582031 270.519531 L 973.757812 270.515625 L 973.929688 270.511719 L 974.105469 270.605469 L 974.28125 270.523438 L 974.453125 270.488281 L 974.625 270.582031 L 974.800781 270.539062 L 974.972656 270.582031 L 975.148438 270.589844 L 975.320312 270.585938 L 975.496094 270.464844 L 975.667969 270.378906 L 975.84375 270.179688 L 976.015625 269.964844 L 976.191406 269.082031 L 976.363281 267.941406 L 976.539062 265.59375 L 976.710938 261.890625 L 976.882812 257.210938 L 977.058594 250.265625 L 977.230469 243.546875 L 977.40625 234.480469 L 977.578125 227.511719 L 977.753906 223.3125 L 977.925781 223.027344 L 978.097656 227.710938 L 978.273438 233.929688 L 978.445312 241.105469 L 978.621094 247.117188 L 978.792969 252.359375 L 978.96875 256.128906 L 979.140625 258.882812 L 979.3125 260.785156 L 979.488281 262.375 L 979.660156 263.609375 L 979.835938 264.039062 L 980.007812 264.839844 L 980.183594 264.96875 L 980.355469 265.691406 L 980.527344 266.089844 L 980.703125 266.316406 L 980.875 266.644531 L 981.050781 266.621094 L 981.222656 267.199219 L 981.398438 267.433594 L 981.570312 267.605469 L 981.742188 267.628906 L 981.917969 267.691406 L 982.089844 267.957031 L 982.265625 268.101562 L 982.4375 268.085938 L 982.613281 268.265625 L 982.785156 268.335938 L 982.957031 268.433594 L 983.132812 268.65625 L 983.304688 268.753906 L 983.480469 268.613281 L 983.652344 268.71875 L 983.828125 268.820312 L 984 269.0625 "/>
</g>
<path fill="none" stroke-width="1" stroke-linecap="butt" stroke-linejoin="miter" stroke="rgb(0%, 0%, 0%)" stroke-opacity="1" stroke-miterlimit="1.154701" d="M 119.09375 291.5 L 119.09375 296.5 "/>
<path fill="none" stroke-width="1" stroke-linecap="butt" stroke-linejoin="miter" stroke="rgb(0%, 0%, 0%)" stroke-opacity="1" stroke-miterlimit="1.154701" d="M 449.429688 291.5 L 449.429688 296.5 "/>
<path fill="none" stroke-width="1" stroke-linecap="butt" stroke-linejoin="miter" stroke="rgb(0%, 0%, 0%)" stroke-opacity="1" stroke-miterlimit="1.154701" d="M 779.765625 291.5 L 779.765625 296.5 "/>
<path fill="none" stroke-width="1" stroke-linecap="butt" stroke-linejoin="miter" stroke="rgb(0%, 0%, 0%)" stroke-opacity="1" stroke-miterlimit="1.154701" d="M 83.5 279.578125 L 78.5 279.578125 "/>
<path fill="none" stroke-width="1" stroke-linecap="butt" stroke-linejoin="miter" stroke="rgb(0%, 0%, 0%)" stroke-opacity="1" stroke-miterlimit="1.154701" d="M 83.5 180.28125 L 78.5 180.28125 "/>
<path fill="none" stroke-width="1" stroke-linecap="butt" stroke-linejoin="miter" stroke="rgb(0%, 0%, 0%)" stroke-opacity="1" stroke-miterlimit="1.154701" d="M 83.5 80.988281 L 78.5 80.988281 "/>
<path fill="none" stroke-width="1" stroke-linecap="butt" stroke-linejoin="miter" stroke="rgb(0%, 0%, 0%)" stroke-opacity="1" stroke-miterlimit="1.154701" d="M 83.5 291 L 984.5 291 "/>
<path fill="none" stroke-width="1" stroke-linecap="butt" stroke-linejoin="miter" stroke="rgb(0%, 0%, 0%)" stroke-opacity="1" stroke-miterlimit="1.154701" d="M 84 291.5 L 84 15.5 "/>
<path fill="none" stroke-width="1" stroke-linecap="butt" stroke-linejoin="miter" stroke="rgb(0%, 0%, 0%)" stroke-opacity="1" stroke-miterlimit="1.154701" d="M 83.5 16 L 984.5 16 "/>
<path fill="none" stroke-width="1" stroke-linecap="butt" stroke-linejoin="miter" stroke="rgb(0%, 0%, 0%)" stroke-opacity="1" stroke-miterlimit="1.154701" d="M 984 291.5 L 984 15.5 "/>
</svg>
