<?xml version="1.0" encoding="UTF-8"?>
<svg xmlns="http://www.w3.org/2000/svg" xmlns:xlink="http://www.w3.org/1999/xlink" width="1000" height="350" viewBox="0 0 1000 350">
<defs>
<g>
<g id="glyph-0-0-8d87ebca">
<path d="M 9.5 0 C 9.5 0 7.921875 0 7.921875 0 C 7.734375 -0.421875 7.609375 -1.03125 7.625 -1.671875 C 7.625 -1.671875 7.640625 -2.578125 7.640625 -2.578125 C 7.65625 -3.84375 7.109375 -4.390625 5.96875 -4.390625 C 5.96875 -4.390625 2.609375 -4.390625 2.609375 -4.390625 C 2.609375 -4.390625 2.609375 0 2.609375 0 C 2.609375 0 1.296875 0 1.296875 0 C 1.296875 0 1.296875 -10.203125 1.296875 -10.203125 C 1.296875 -10.203125 6 -10.203125 6 -10.203125 C 8.015625 -10.203125 9.109375 -9.234375 9.109375 -7.46875 C 9.109375 -6.3125 8.65625 -5.59375 7.5 -5.046875 C 8.609375 -4.5625 8.859375 -4.0625 8.890625 -2.375 C 8.90625 -1.015625 9.015625 -0.65625 9.5 -0.328125 C 9.5 -0.328125 9.5 0 9.5 0 Z M 7.75 -7.296875 C 7.75 -8.4375 7.203125 -9.0625 5.75 -9.0625 C 5.75 -9.0625 2.609375 -9.0625 2.609375 -9.0625 C 2.609375 -9.0625 2.609375 -5.546875 2.609375 -5.546875 C 2.609375 -5.546875 5.75 -5.546875 5.75 -5.546875 C 7.140625 -5.546875 7.75 -6.09375 7.75 -7.296875 Z M 7.75 -7.296875 "/>
</g>
<g id="glyph-0-1-8d87ebca">
<path d="M 7.1875 -3.328125 C 7.1875 -3.328125 1.78125 -3.328125 1.78125 -3.328125 C 1.8125 -1.65625 2.71875 -0.875 3.9375 -0.875 C 4.875 -0.875 5.53125 -1.265625 5.859375 -2.21875 C 5.859375 -2.21875 7.03125 -2.21875 7.03125 -2.21875 C 6.734375 -0.734375 5.578125 0.203125 3.890625 0.203125 C 1.828125 0.203125 0.5625 -1.21875 0.5625 -3.625 C 0.5625 -6.03125 1.875 -7.546875 3.921875 -7.546875 C 5.296875 -7.546875 6.40625 -6.8125 6.890625 -5.609375 C 7.09375 -5.0625 7.1875 -4.390625 7.1875 -3.328125 Z M 5.9375 -4.375 C 5.9375 -5.515625 5.046875 -6.46875 3.90625 -6.46875 C 2.734375 -6.46875 1.90625 -5.59375 1.8125 -4.28125 C 1.8125 -4.28125 5.921875 -4.28125 5.921875 -4.28125 C 5.9375 -4.3125 5.9375 -4.375 5.9375 -4.375 Z M 5.9375 -4.375 "/>
</g>
<g id="glyph-0-2-8d87ebca">
<path d="M 3.5625 0 C 3.15625 0.0625 2.890625 0.09375 2.609375 0.09375 C 1.6875 0.09375 1.1875 -0.328125 1.1875 -1.0625 C 1.1875 -1.0625 1.1875 -6.390625 1.1875 -6.390625 C 1.1875 -6.390625 0.203125 -6.390625 0.203125 -6.390625 C 0.203125 -6.390625 0.203125 -7.34375 0.203125 -7.34375 C 0.203125 -7.34375 1.1875 -7.34375 1.1875 -7.34375 C 1.1875 -7.34375 1.1875 -9.359375 1.1875 -9.359375 C 1.1875 -9.359375 2.359375 -9.359375 2.359375 -9.359375 C 2.359375 -9.359375 2.359375 -7.34375 2.359375 -7.34375 C 2.359375 -7.34375 3.5625 -7.34375 3.5625 -7.34375 C 3.5625 -7.34375 3.5625 -6.390625 3.5625 -6.390625 C 3.5625 -6.390625 2.359375 -6.390625 2.359375 -6.390625 C 2.359375 -6.390625 2.359375 -1.578125 2.359375 -1.578125 C 2.359375 -1.0625 2.484375 -0.921875 3 -0.921875 C 3.21875 -0.921875 3.40625 -0.9375 3.5625 -0.984375 C 3.5625 -0.984375 3.5625 0 3.5625 0 Z M 3.5625 0 "/>
</g>
<g id="glyph-0-3-8d87ebca">
<path d="M 6.8125 0 C 6.8125 0 5.65625 0 5.65625 0 C 5.65625 0 5.65625 -5.078125 5.65625 -5.078125 C 5.65625 -5.96875 5.0625 -6.53125 4.140625 -6.53125 C 2.953125 -6.53125 2.140625 -5.546875 2.140625 -4.046875 C 2.140625 -4.046875 2.140625 0 2.140625 0 C 2.140625 0 0.984375 0 0.984375 0 C 0.984375 0 0.984375 -7.34375 0.984375 -7.34375 C 0.984375 -7.34375 2.0625 -7.34375 2.0625 -7.34375 C 2.0625 -7.34375 2.0625 -6.109375 2.0625 -6.109375 C 2.703125 -7.125 3.40625 -7.546875 4.5 -7.546875 C 5.90625 -7.546875 6.8125 -6.765625 6.8125 -5.546875 C 6.8125 -5.546875 6.8125 0 6.8125 0 Z M 6.8125 0 "/>
</g>
<g id="glyph-0-4-8d87ebca">
<path d="M 2.140625 0 C 2.140625 0 0.984375 0 0.984375 0 C 0.984375 0 0.984375 -7.34375 0.984375 -7.34375 C 0.984375 -7.34375 2.140625 -7.34375 2.140625 -7.34375 C 2.140625 -7.34375 2.140625 0 2.140625 0 Z M 2.296875 -8.4375 C 2.296875 -8.4375 0.84375 -8.4375 0.84375 -8.4375 C 0.84375 -8.4375 0.84375 -9.890625 0.84375 -9.890625 C 0.84375 -9.890625 2.296875 -9.890625 2.296875 -9.890625 C 2.296875 -9.890625 2.296875 -8.4375 2.296875 -8.4375 Z M 2.296875 -8.4375 "/>
</g>
<g id="glyph-0-5-8d87ebca">
<path d="M 7.140625 -3.609375 C 7.140625 -1.203125 5.875 0.203125 3.828125 0.203125 C 1.734375 0.203125 0.5 -1.203125 0.5 -3.671875 C 0.5 -6.125 1.75 -7.546875 3.8125 -7.546875 C 5.921875 -7.546875 7.140625 -6.140625 7.140625 -3.609375 Z M 5.921875 -3.625 C 5.921875 -5.453125 5.140625 -6.46875 3.828125 -6.46875 C 2.515625 -6.46875 1.71875 -5.4375 1.71875 -3.671875 C 1.71875 -1.890625 2.515625 -0.875 3.828125 -0.875 C 5.109375 -0.875 5.921875 -1.90625 5.921875 -3.625 Z M 5.921875 -3.625 "/>
</g>
<g id="glyph-0-6-8d87ebca">
</g>
<g id="glyph-0-7-8d87ebca">
<path d="M 3.5 2.96875 C 3.5 2.96875 0.890625 2.96875 0.890625 2.96875 C 0.890625 2.96875 0.890625 -10.203125 0.890625 -10.203125 C 0.890625 -10.203125 3.5 -10.203125 3.5 -10.203125 C 3.5 -10.203125 3.5 -9.203125 3.5 -9.203125 C 3.5 -9.203125 2.0625 -9.203125 2.0625 -9.203125 C 2.0625 -9.203125 2.0625 1.953125 2.0625 1.953125 C 2.0625 1.953125 3.5 1.953125 3.5 1.953125 C 3.5 1.953125 3.5 2.96875 3.5 2.96875 Z M 3.5 2.96875 "/>
</g>
<g id="glyph-0-8-8d87ebca">
<path d="M 10.640625 0 C 10.640625 0 9.484375 0 9.484375 0 C 9.484375 0 9.484375 -5.046875 9.484375 -5.046875 C 9.484375 -5.984375 8.984375 -6.53125 8.140625 -6.53125 C 7.1875 -6.53125 6.390625 -5.671875 6.390625 -4.609375 C 6.390625 -4.609375 6.390625 0 6.390625 0 C 6.390625 0 5.234375 0 5.234375 0 C 5.234375 0 5.234375 -5.046875 5.234375 -5.046875 C 5.234375 -5.984375 4.75 -6.53125 3.875 -6.53125 C 2.921875 -6.53125 2.15625 -5.671875 2.15625 -4.609375 C 2.15625 -4.609375 2.15625 0 2.15625 0 C 2.15625 0 1 0 1 0 C 1 0 1 -7.34375 1 -7.34375 C 1 -7.34375 2.0625 -7.34375 2.0625 -7.34375 C 2.0625 -7.34375 2.0625 -6.296875 2.0625 -6.296875 C 2.6875 -7.1875 3.328125 -7.546875 4.3125 -7.546875 C 5.265625 -7.546875 5.859375 -7.203125 6.28125 -6.421875 C 6.96875 -7.25 7.5625 -7.546875 8.546875 -7.546875 C 9.90625 -7.546875 10.640625 -6.8125 10.640625 -5.5 C 10.640625 -5.5 10.640625 0 10.640625 0 Z M 10.640625 0 "/>
</g>
<g id="glyph-0-9-8d87ebca">
<path d="M 6.75 0 C 6.75 0 5.703125 0 5.703125 0 C 5.703125 0 5.703125 -1.140625 5.703125 -1.140625 C 5.015625 -0.171875 4.328125 0.203125 3.25 0.203125 C 1.8125 0.203125 0.90625 -0.578125 0.90625 -1.796875 C 0.90625 -1.796875 0.90625 -7.34375 0.90625 -7.34375 C 0.90625 -7.34375 2.078125 -7.34375 2.078125 -7.34375 C 2.078125 -7.34375 2.078125 -2.25 2.078125 -2.25 C 2.078125 -1.375 2.65625 -0.8125 3.578125 -0.8125 C 4.796875 -0.8125 5.59375 -1.796875 5.59375 -3.296875 C 5.59375 -3.296875 5.59375 -7.34375 5.59375 -7.34375 C 5.59375 -7.34375 6.75 -7.34375 6.75 -7.34375 C 6.75 -7.34375 6.75 0 6.75 0 Z M 6.75 0 "/>
</g>
<g id="glyph-0-10-8d87ebca">
<path d="M 2.921875 2.96875 C 2.921875 2.96875 0.328125 2.96875 0.328125 2.96875 C 0.328125 2.96875 0.328125 1.953125 0.328125 1.953125 C 0.328125 1.953125 1.765625 1.953125 1.765625 1.953125 C 1.765625 1.953125 1.765625 -9.203125 1.765625 -9.203125 C 1.765625 -9.203125 0.328125 -9.203125 0.328125 -9.203125 C 0.328125 -9.203125 0.328125 -10.203125 0.328125 -10.203125 C 0.328125 -10.203125 2.921875 -10.203125 2.921875 -10.203125 C 2.921875 -10.203125 2.921875 2.96875 2.921875 2.96875 Z M 2.921875 2.96875 "/>
</g>
<g id="glyph-0-11-8d87ebca">
<path d="M 7.1875 -3.296875 C 7.1875 -1.1875 5.78125 0.203125 3.78125 0.203125 C 2.015625 0.203125 0.890625 -0.578125 0.484375 -2.546875 C 0.484375 -2.546875 1.71875 -2.546875 1.71875 -2.546875 C 2.015625 -1.421875 2.671875 -0.875 3.75 -0.875 C 5.09375 -0.875 5.921875 -1.6875 5.921875 -3.125 C 5.921875 -4.59375 5.078125 -5.453125 3.75 -5.453125 C 2.984375 -5.453125 2.5 -5.203125 1.9375 -4.515625 C 1.9375 -4.515625 0.796875 -4.515625 0.796875 -4.515625 C 0.796875 -4.515625 1.546875 -9.71875 1.546875 -9.71875 C 1.546875 -9.71875 6.65625 -9.71875 6.65625 -9.71875 C 6.65625 -9.71875 6.65625 -8.5 6.65625 -8.5 C 6.65625 -8.5 2.53125 -8.5 2.53125 -8.5 C 2.53125 -8.5 2.140625 -5.9375 2.140625 -5.9375 C 2.71875 -6.359375 3.28125 -6.53125 3.96875 -6.53125 C 5.875 -6.53125 7.1875 -5.25 7.1875 -3.296875 Z M 7.1875 -3.296875 "/>
</g>
<g id="glyph-0-12-8d87ebca">
<path d="M 7.1875 -3.078125 C 7.1875 -1.140625 5.828125 0.203125 3.9375 0.203125 C 1.671875 0.203125 0.609375 -1.421875 0.609375 -4.515625 C 0.609375 -7.984375 1.84375 -9.921875 4.15625 -9.921875 C 5.671875 -9.921875 6.734375 -8.953125 6.96875 -7.34375 C 6.96875 -7.34375 5.734375 -7.34375 5.734375 -7.34375 C 5.546875 -8.28125 4.9375 -8.828125 4.078125 -8.828125 C 2.65625 -8.828125 1.875 -7.484375 1.859375 -5.0625 C 2.390625 -5.796875 3.15625 -6.171875 4.140625 -6.171875 C 5.921875 -6.171875 7.1875 -4.921875 7.1875 -3.078125 Z M 5.921875 -2.984375 C 5.921875 -4.3125 5.1875 -5.078125 3.984375 -5.078125 C 2.765625 -5.078125 1.9375 -4.28125 1.9375 -3.046875 C 1.9375 -1.78125 2.796875 -0.875 3.953125 -0.875 C 5.078125 -0.875 5.921875 -1.734375 5.921875 -2.984375 Z M 5.921875 -2.984375 "/>
</g>
<g id="glyph-0-13-8d87ebca">
<path d="M 7.28125 -8.6875 C 5.1875 -6.203125 3.796875 -3.203125 3.25 0 C 3.25 0 1.9375 0 1.9375 0 C 2.625 -3.109375 4.03125 -6 6 -8.5 C 6 -8.5 0.640625 -8.5 0.640625 -8.5 C 0.640625 -8.5 0.640625 -9.71875 0.640625 -9.71875 C 0.640625 -9.71875 7.28125 -9.71875 7.28125 -9.71875 C 7.28125 -9.71875 7.28125 -8.6875 7.28125 -8.6875 Z M 7.28125 -8.6875 "/>
</g>
<g id="glyph-0-14-8d87ebca">
<path d="M 7.1875 -2.796875 C 7.1875 -1 5.8125 0.203125 3.84375 0.203125 C 1.890625 0.203125 0.515625 -1 0.515625 -2.8125 C 0.515625 -3.90625 1.078125 -4.671875 2.21875 -5.21875 C 1.203125 -5.859375 0.875 -6.359375 0.875 -7.28125 C 0.875 -8.828125 2.09375 -9.921875 3.84375 -9.921875 C 5.609375 -9.921875 6.828125 -8.828125 6.828125 -7.28125 C 6.828125 -6.34375 6.5 -5.84375 5.46875 -5.21875 C 6.625 -4.671875 7.1875 -3.90625 7.1875 -2.796875 Z M 5.578125 -7.25 C 5.578125 -8.21875 4.90625 -8.828125 3.84375 -8.828125 C 2.8125 -8.828125 2.125 -8.21875 2.125 -7.265625 C 2.125 -6.328125 2.8125 -5.71875 3.84375 -5.71875 C 4.890625 -5.71875 5.578125 -6.328125 5.578125 -7.25 Z M 5.921875 -2.78125 C 5.921875 -3.953125 5.078125 -4.671875 3.84375 -4.671875 C 2.625 -4.671875 1.78125 -3.953125 1.78125 -2.78125 C 1.78125 -1.625 2.625 -0.875 3.828125 -0.875 C 5.078125 -0.875 5.921875 -1.609375 5.921875 -2.78125 Z M 5.921875 -2.78125 "/>
</g>
<g id="glyph-0-15-8d87ebca">
<path d="M 7.125 -5.1875 C 7.125 -1.765625 5.875 0.203125 3.5625 0.203125 C 2.046875 0.203125 0.984375 -0.75 0.734375 -2.375 C 0.734375 -2.375 1.96875 -2.375 1.96875 -2.375 C 2.171875 -1.421875 2.765625 -0.875 3.640625 -0.875 C 5.046875 -0.875 5.84375 -2.21875 5.859375 -4.640625 C 5.203125 -3.875 4.515625 -3.546875 3.578125 -3.546875 C 1.796875 -3.546875 0.53125 -4.78125 0.53125 -6.640625 C 0.53125 -8.578125 1.890625 -9.921875 3.78125 -9.921875 C 6.046875 -9.921875 7.125 -8.296875 7.125 -5.1875 Z M 5.78125 -6.65625 C 5.78125 -7.953125 4.90625 -8.84375 3.765625 -8.84375 C 2.625 -8.84375 1.796875 -8 1.796875 -6.734375 C 1.796875 -5.40625 2.53125 -4.640625 3.71875 -4.640625 C 4.921875 -4.640625 5.78125 -5.453125 5.78125 -6.65625 Z M 5.78125 -6.65625 "/>
</g>
<g id="glyph-0-16-8d87ebca">
<path d="M 4.859375 0 C 4.859375 0 3.625 0 3.625 0 C 3.625 0 3.625 -7.0625 3.625 -7.0625 C 3.625 -7.0625 1.421875 -7.0625 1.421875 -7.0625 C 1.421875 -7.0625 1.421875 -7.953125 1.421875 -7.953125 C 3.328125 -8.1875 3.609375 -8.40625 4.046875 -9.921875 C 4.046875 -9.921875 4.859375 -9.921875 4.859375 -9.921875 C 4.859375 -9.921875 4.859375 0 4.859375 0 Z M 4.859375 0 "/>
</g>
<g id="glyph-0-17-8d87ebca">
<path d="M 7.09375 -4.78125 C 7.09375 -1.515625 5.953125 0.203125 3.84375 0.203125 C 1.71875 0.203125 0.609375 -1.515625 0.609375 -4.859375 C 0.609375 -8.1875 1.703125 -9.921875 3.84375 -9.921875 C 6 -9.921875 7.09375 -8.21875 7.09375 -4.78125 Z M 5.84375 -4.890625 C 5.84375 -7.546875 5.1875 -8.828125 3.84375 -8.828125 C 2.515625 -8.828125 1.859375 -7.5625 1.859375 -4.84375 C 1.859375 -2.125 2.515625 -0.8125 3.828125 -0.8125 C 5.1875 -0.8125 5.84375 -2.078125 5.84375 -4.890625 Z M 5.84375 -4.890625 "/>
</g>
<g id="glyph-0-18-8d87ebca">
<path d="M 7.15625 -7.015625 C 7.15625 -5.796875 6.4375 -4.765625 5.046875 -4.015625 C 5.046875 -4.015625 3.65625 -3.265625 3.65625 -3.265625 C 2.4375 -2.546875 1.984375 -2.03125 1.859375 -1.21875 C 1.859375 -1.21875 7.078125 -1.21875 7.078125 -1.21875 C 7.078125 -1.21875 7.078125 0 7.078125 0 C 7.078125 0 0.46875 0 0.46875 0 C 0.59375 -2.1875 1.1875 -3.125 3.265625 -4.296875 C 3.265625 -4.296875 4.546875 -5.03125 4.546875 -5.03125 C 5.4375 -5.53125 5.890625 -6.203125 5.890625 -6.984375 C 5.890625 -8.046875 5.046875 -8.84375 3.9375 -8.84375 C 2.71875 -8.84375 2.03125 -8.140625 1.9375 -6.484375 C 1.9375 -6.484375 0.703125 -6.484375 0.703125 -6.484375 C 0.765625 -8.890625 1.953125 -9.921875 3.96875 -9.921875 C 5.859375 -9.921875 7.15625 -8.6875 7.15625 -7.015625 Z M 7.15625 -7.015625 "/>
</g>
<g id="glyph-0-19-8d87ebca">
<path d="M 7.078125 -2.890625 C 7.078125 -1.015625 5.765625 0.203125 3.71875 0.203125 C 1.6875 0.203125 0.609375 -0.78125 0.453125 -3 C 0.453125 -3 1.6875 -3 1.6875 -3 C 1.765625 -1.546875 2.421875 -0.875 3.765625 -0.875 C 5.046875 -0.875 5.828125 -1.625 5.828125 -2.875 C 5.828125 -3.96875 5.125 -4.625 3.765625 -4.625 C 3.765625 -4.625 3.09375 -4.625 3.09375 -4.625 C 3.09375 -4.625 3.09375 -5.65625 3.09375 -5.65625 C 5.0625 -5.65625 5.53125 -6.09375 5.53125 -7.15625 C 5.53125 -8.203125 4.875 -8.84375 3.78125 -8.84375 C 2.515625 -8.84375 1.921875 -8.1875 1.890625 -6.71875 C 1.890625 -6.71875 0.65625 -6.71875 0.65625 -6.71875 C 0.703125 -8.828125 1.765625 -9.921875 3.765625 -9.921875 C 5.65625 -9.921875 6.796875 -8.90625 6.796875 -7.203125 C 6.796875 -6.203125 6.328125 -5.5625 5.40625 -5.1875 C 6.59375 -4.78125 7.078125 -4.09375 7.078125 -2.890625 Z M 7.078125 -2.890625 "/>
</g>
<g id="glyph-0-20-8d87ebca">
<path d="M 7.28125 -2.375 C 7.28125 -2.375 5.8125 -2.375 5.8125 -2.375 C 5.8125 -2.375 5.8125 0 5.8125 0 C 5.8125 0 4.578125 0 4.578125 0 C 4.578125 0 4.578125 -2.375 4.578125 -2.375 C 4.578125 -2.375 0.390625 -2.375 0.390625 -2.375 C 0.390625 -2.375 0.390625 -3.6875 0.390625 -3.6875 C 0.390625 -3.6875 4.90625 -9.921875 4.90625 -9.921875 C 4.90625 -9.921875 5.8125 -9.921875 5.8125 -9.921875 C 5.8125 -9.921875 5.8125 -3.484375 5.8125 -3.484375 C 5.8125 -3.484375 7.28125 -3.484375 7.28125 -3.484375 C 7.28125 -3.484375 7.28125 -2.375 7.28125 -2.375 Z M 4.578125 -3.484375 C 4.578125 -3.484375 4.578125 -7.828125 4.578125 -7.828125 C 4.578125 -7.828125 1.46875 -3.484375 1.46875 -3.484375 C 1.46875 -3.484375 4.578125 -3.484375 4.578125 -3.484375 Z M 4.578125 -3.484375 "/>
</g>
<g id="glyph-1-0-8d87ebca">
<path d="M 4.859375 0 C 4.859375 0 3.625 0 3.625 0 C 3.625 0 3.625 -7.0625 3.625 -7.0625 C 3.625 -7.0625 1.421875 -7.0625 1.421875 -7.0625 C 1.421875 -7.0625 1.421875 -7.953125 1.421875 -7.953125 C 3.328125 -8.1875 3.609375 -8.40625 4.046875 -9.921875 C 4.046875 -9.921875 4.859375 -9.921875 4.859375 -9.921875 C 4.859375 -9.921875 4.859375 0 4.859375 0 Z M 4.859375 0 "/>
</g>
<g id="glyph-1-1-8d87ebca">
<path d="M 7.1875 -3.078125 C 7.1875 -1.140625 5.828125 0.203125 3.9375 0.203125 C 1.671875 0.203125 0.609375 -1.421875 0.609375 -4.515625 C 0.609375 -7.984375 1.84375 -9.921875 4.15625 -9.921875 C 5.671875 -9.921875 6.734375 -8.953125 6.96875 -7.34375 C 6.96875 -7.34375 5.734375 -7.34375 5.734375 -7.34375 C 5.546875 -8.28125 4.9375 -8.828125 4.078125 -8.828125 C 2.65625 -8.828125 1.875 -7.484375 1.859375 -5.0625 C 2.390625 -5.796875 3.15625 -6.171875 4.140625 -6.171875 C 5.921875 -6.171875 7.1875 -4.921875 7.1875 -3.078125 Z M 5.921875 -2.984375 C 5.921875 -4.3125 5.1875 -5.078125 3.984375 -5.078125 C 2.765625 -5.078125 1.9375 -4.28125 1.9375 -3.046875 C 1.9375 -1.78125 2.796875 -0.875 3.953125 -0.875 C 5.078125 -0.875 5.921875 -1.734375 5.921875 -2.984375 Z M 5.921875 -2.984375 "/>
</g>
<g id="glyph-2-0-8d87ebca">
<path d="M 0 -2.703125 C 0 -2.703125 0 -1.40625 0 -1.40625 C 0 -1.40625 -10.203125 -1.40625 -10.203125 -1.40625 C -10.203125 -1.40625 -10.203125 -2.703125 -10.203125 -2.703125 C -10.203125 -2.703125 0 -2.703125 0 -2.703125 Z M 0 -2.703125 "/>
</g>
<g id="glyph-3-0-8d87ebca">
<path d="M 0 -6.8125 C 0 -6.8125 0 -5.65625 0 -5.65625 C 0 -5.65625 -5.078125 -5.65625 -5.078125 -5.65625 C -5.96875 -5.65625 -6.53125 -5.0625 -6.53125 -4.140625 C -6.53125 -2.953125 -5.546875 -2.140625 -4.046875 -2.140625 C -4.046875 -2.140625 0 -2.140625 0 -2.140625 C 0 -2.140625 0 -0.984375 0 -0.984375 C 0 -0.984375 -7.34375 -0.984375 -7.34375 -0.984375 C -7.34375 -0.984375 -7.34375 -2.0625 -7.34375 -2.0625 C -7.34375 -2.0625 -6.109375 -2.0625 -6.109375 -2.0625 C -7.125 -2.703125 -7.546875 -3.40625 -7.546875 -4.5 C -7.546875 -5.90625 -6.765625 -6.8125 -5.546875 -6.8125 C -5.546875 -6.8125 0 -6.8125 0 -6.8125 Z M 0 -6.8125 "/>
</g>
<g id="glyph-4-0-8d87ebca">
<path d="M 0 -3.5625 C 0.0625 -3.15625 0.09375 -2.890625 0.09375 -2.609375 C 0.09375 -1.6875 -0.328125 -1.1875 -1.0625 -1.1875 C -1.0625 -1.1875 -6.390625 -1.1875 -6.390625 -1.1875 C -6.390625 -1.1875 -6.390625 -0.203125 -6.390625 -0.203125 C -6.390625 -0.203125 -7.34375 -0.203125 -7.34375 -0.203125 C -7.34375 -0.203125 -7.34375 -1.1875 -7.34375 -1.1875 C -7.34375 -1.1875 -9.359375 -1.1875 -9.359375 -1.1875 C -9.359375 -1.1875 -9.359375 -2.359375 -9.359375 -2.359375 C -9.359375 -2.359375 -7.34375 -2.359375 -7.34375 -2.359375 C -7.34375 -2.359375 -7.34375 -3.5625 -7.34375 -3.5625 C -7.34375 -3.5625 -6.390625 -3.5625 -6.390625 -3.5625 C -6.390625 -3.5625 -6.390625 -2.359375 -6.390625 -2.359375 C -6.390625 -2.359375 -1.578125 -2.359375 -1.578125 -2.359375 C -1.0625 -2.359375 -0.921875 -2.484375 -0.921875 -3 C -0.921875 -3.21875 -0.9375 -3.40625 -0.984375 -3.5625 C -0.984375 -3.5625 0 -3.5625 0 -3.5625 Z M 0 -3.5625 "/>
</g>
<g id="glyph-4-1-8d87ebca">
<path d="M 0 -10.640625 C 0 -10.640625 0 -9.484375 0 -9.484375 C 0 -9.484375 -5.046875 -9.484375 -5.046875 -9.484375 C -5.984375 -9.484375 -6.53125 -8.984375 -6.53125 -8.140625 C -6.53125 -7.1875 -5.671875 -6.390625 -4.609375 -6.390625 C -4.609375 -6.390625 0 -6.390625 0 -6.390625 C 0 -6.390625 0 -5.234375 0 -5.234375 C 0 -5.234375 -5.046875 -5.234375 -5.046875 -5.234375 C -5.984375 -5.234375 -6.53125 -4.75 -6.53125 -3.875 C -6.53125 -2.921875 -5.671875 -2.15625 -4.609375 -2.15625 C -4.609375 -2.15625 0 -2.15625 0 -2.15625 C 0 -2.15625 0 -1 0 -1 C 0 -1 -7.34375 -1 -7.34375 -1 C -7.34375 -1 -7.34375 -2.0625 -7.34375 -2.0625 C -7.34375 -2.0625 -6.296875 -2.0625 -6.296875 -2.0625 C -7.1875 -2.6875 -7.546875 -3.328125 -7.546875 -4.3125 C -7.546875 -5.265625 -7.203125 -5.859375 -6.421875 -6.28125 C -7.25 -6.96875 -7.546875 -7.5625 -7.546875 -8.546875 C -7.546875 -9.90625 -6.8125 -10.640625 -5.5 -10.640625 C -5.5 -10.640625 0 -10.640625 0 -10.640625 Z M 0 -10.640625 "/>
</g>
<g id="glyph-5-0-8d87ebca">
<path d="M -3.328125 -7.1875 C -3.328125 -7.1875 -3.328125 -1.78125 -3.328125 -1.78125 C -1.65625 -1.8125 -0.875 -2.71875 -0.875 -3.9375 C -0.875 -4.875 -1.265625 -5.53125 -2.21875 -5.859375 C -2.21875 -5.859375 -2.21875 -7.03125 -2.21875 -7.03125 C -0.734375 -6.734375 0.203125 -5.578125 0.203125 -3.890625 C 0.203125 -1.828125 -1.21875 -0.5625 -3.625 -0.5625 C -6.03125 -0.5625 -7.546875 -1.875 -7.546875 -3.921875 C -7.546875 -5.296875 -6.8125 -6.40625 -5.609375 -6.890625 C -5.0625 -7.09375 -4.390625 -7.1875 -3.328125 -7.1875 Z M -4.375 -5.9375 C -5.515625 -5.9375 -6.46875 -5.046875 -6.46875 -3.90625 C -6.46875 -2.734375 -5.59375 -1.90625 -4.28125 -1.8125 C -4.28125 -1.8125 -4.28125 -5.921875 -4.28125 -5.921875 C -4.3125 -5.9375 -4.375 -5.9375 -4.375 -5.9375 Z M -4.375 -5.9375 "/>
</g>
<g id="glyph-5-1-8d87ebca">
<path d="M -7.34375 -6.6875 C -7.34375 -6.6875 1.546875 -3.4375 1.546875 -3.4375 C 2.59375 -3.03125 3.046875 -2.359375 3.046875 -1.546875 C 3.046875 -1.234375 3 -1 2.875 -0.75 C 2.875 -0.75 1.8125 -0.75 1.8125 -0.75 C 1.875 -1.015625 1.90625 -1.203125 1.90625 -1.375 C 1.90625 -1.875 1.703125 -2.109375 1.1875 -2.3125 C 1.1875 -2.3125 0.03125 -2.765625 0.03125 -2.765625 C 0.03125 -2.765625 -7.34375 -0.28125 -7.34375 -0.28125 C -7.34375 -0.28125 -7.34375 -1.53125 -7.34375 -1.53125 C -7.34375 -1.53125 -1.625 -3.40625 -1.625 -3.40625 C -1.625 -3.40625 -7.34375 -5.4375 -7.34375 -5.4375 C -7.34375 -5.4375 -7.34375 -6.6875 -7.34375 -6.6875 Z M -7.34375 -6.6875 "/>
</g>
<g id="glyph-5-2-8d87ebca">
<path d="M 2.96875 -3.5 C 2.96875 -3.5 2.96875 -0.890625 2.96875 -0.890625 C 2.96875 -0.890625 -10.203125 -0.890625 -10.203125 -0.890625 C -10.203125 -0.890625 -10.203125 -3.5 -10.203125 -3.5 C -10.203125 -3.5 -9.203125 -3.5 -9.203125 -3.5 C -9.203125 -3.5 -9.203125 -2.0625 -9.203125 -2.0625 C -9.203125 -2.0625 1.953125 -2.0625 1.953125 -2.0625 C 1.953125 -2.0625 1.953125 -3.5 1.953125 -3.5 C 1.953125 -3.5 2.96875 -3.5 2.96875 -3.5 Z M 2.96875 -3.5 "/>
</g>
<g id="glyph-6-0-8d87ebca">
<path d="M 0 -6.8125 C 0 -6.8125 0 -5.65625 0 -5.65625 C 0 -5.65625 -5.078125 -5.65625 -5.078125 -5.65625 C -5.96875 -5.65625 -6.53125 -5.0625 -6.53125 -4.140625 C -6.53125 -2.953125 -5.546875 -2.140625 -4.046875 -2.140625 C -4.046875 -2.140625 0 -2.140625 0 -2.140625 C 0 -2.140625 0 -0.984375 0 -0.984375 C 0 -0.984375 -7.34375 -0.984375 -7.34375 -0.984375 C -7.34375 -0.984375 -7.34375 -2.0625 -7.34375 -2.0625 C -7.34375 -2.0625 -6.109375 -2.0625 -6.109375 -2.0625 C -7.125 -2.703125 -7.546875 -3.40625 -7.546875 -4.5 C -7.546875 -5.90625 -6.765625 -6.8125 -5.546875 -6.8125 C -5.546875 -6.8125 0 -6.8125 0 -6.8125 Z M 0 -6.8125 "/>
</g>
<g id="glyph-7-0-8d87ebca">
<path d="M -2.0625 -6.421875 C -0.640625 -6.421875 0.203125 -5.25 0.203125 -3.40625 C 0.203125 -1.484375 -0.546875 -0.53125 -2.234375 -0.46875 C -2.234375 -0.46875 -2.234375 -1.703125 -2.234375 -1.703125 C -1.125 -1.859375 -0.875 -2.453125 -0.875 -3.5 C -0.875 -4.515625 -1.28125 -5.203125 -1.953125 -5.203125 C -2.484375 -5.203125 -2.734375 -4.890625 -2.921875 -4.078125 C -2.921875 -4.078125 -3.1875 -2.984375 -3.1875 -2.984375 C -3.609375 -1.25 -4.15625 -0.65625 -5.3125 -0.65625 C -6.65625 -0.65625 -7.546875 -1.765625 -7.546875 -3.46875 C -7.546875 -5.171875 -6.734375 -6.125 -5.296875 -6.125 C -5.296875 -6.125 -5.296875 -4.90625 -5.296875 -4.90625 C -6.0625 -4.875 -6.46875 -4.375 -6.46875 -3.4375 C -6.46875 -2.484375 -6.03125 -1.875 -5.359375 -1.875 C -4.84375 -1.875 -4.53125 -2.28125 -4.3125 -3.234375 C -4.3125 -3.234375 -4.046875 -4.359375 -4.046875 -4.359375 C -3.703125 -5.8125 -3.15625 -6.421875 -2.0625 -6.421875 Z M -2.0625 -6.421875 "/>
</g>
<g id="glyph-7-1-8d87ebca">
<path d="M 0 -2.140625 C 0 -2.140625 0 -0.984375 0 -0.984375 C 0 -0.984375 -7.34375 -0.984375 -7.34375 -0.984375 C -7.34375 -0.984375 -7.34375 -2.140625 -7.34375 -2.140625 C -7.34375 -2.140625 0 -2.140625 0 -2.140625 Z M -8.4375 -2.296875 C -8.4375 -2.296875 -8.4375 -0.84375 -8.4375 -0.84375 C -8.4375 -0.84375 -9.890625 -0.84375 -9.890625 -0.84375 C -9.890625 -0.84375 -9.890625 -2.296875 -9.890625 -2.296875 C -9.890625 -2.296875 -8.4375 -2.296875 -8.4375 -2.296875 Z M -8.4375 -2.296875 "/>
</g>
<g id="glyph-8-0-8d87ebca">
<path d="M 0 -3.5625 C 0.0625 -3.15625 0.09375 -2.890625 0.09375 -2.609375 C 0.09375 -1.6875 -0.328125 -1.1875 -1.0625 -1.1875 C -1.0625 -1.1875 -6.390625 -1.1875 -6.390625 -1.1875 C -6.390625 -1.1875 -6.390625 -0.203125 -6.390625 -0.203125 C -6.390625 -0.203125 -7.34375 -0.203125 -7.34375 -0.203125 C -7.34375 -0.203125 -7.34375 -1.1875 -7.34375 -1.1875 C -7.34375 -1.1875 -9.359375 -1.1875 -9.359375 -1.1875 C -9.359375 -1.1875 -9.359375 -2.359375 -9.359375 -2.359375 C -9.359375 -2.359375 -7.34375 -2.359375 -7.34375 -2.359375 C -7.34375 -2.359375 -7.34375 -3.5625 -7.34375 -3.5625 C -7.34375 -3.5625 -6.390625 -3.5625 -6.390625 -3.5625 C -6.390625 -3.5625 -6.390625 -2.359375 -6.390625 -2.359375 C -6.390625 -2.359375 -1.578125 -2.359375 -1.578125 -2.359375 C -1.0625 -2.359375 -0.921875 -2.484375 -0.921875 -3 C -0.921875 -3.21875 -0.9375 -3.40625 -0.984375 -3.5625 C -0.984375 -3.5625 0 -3.5625 0 -3.5625 Z M 0 -3.5625 "/>
</g>
<g id="glyph-9-0-8d87ebca">
</g>
<g id="glyph-10-0-8d87ebca">
<path d="M -4.609375 -5.953125 C -4.609375 -5.953125 -4.609375 -4.984375 -4.609375 -4.984375 C -4.609375 -4.984375 -8.8125 -3.28125 -8.8125 -3.28125 C -8.8125 -3.28125 -4.609375 -1.578125 -4.609375 -1.578125 C -4.609375 -1.578125 -4.609375 -0.609375 -4.609375 -0.609375 C -4.609375 -0.609375 -9.921875 -2.765625 -9.921875 -2.765625 C -9.921875 -2.765625 -9.921875 -3.78125 -9.921875 -3.78125 C -9.921875 -3.78125 -4.609375 -5.953125 -4.609375 -5.953125 Z M -4.609375 -5.953125 "/>
</g>
<g id="glyph-11-0-8d87ebca">
<path d="M -3.359375 -3.96875 C -3.359375 -3.96875 -3.359375 -0.640625 -3.359375 -0.640625 C -3.359375 -0.640625 -4.375 -0.640625 -4.375 -0.640625 C -4.375 -0.640625 -4.375 -3.96875 -4.375 -3.96875 C -4.375 -3.96875 -3.359375 -3.96875 -3.359375 -3.96875 Z M -3.359375 -3.96875 "/>
</g>
<g id="glyph-12-0-8d87ebca">
<path d="M 0 -4.859375 C 0 -4.859375 0 -3.625 0 -3.625 C 0 -3.625 -7.0625 -3.625 -7.0625 -3.625 C -7.0625 -3.625 -7.0625 -1.421875 -7.0625 -1.421875 C -7.0625 -1.421875 -7.953125 -1.421875 -7.953125 -1.421875 C -8.1875 -3.328125 -8.40625 -3.609375 -9.921875 -4.046875 C -9.921875 -4.046875 -9.921875 -4.859375 -9.921875 -4.859375 C -9.921875 -4.859375 0 -4.859375 0 -4.859375 Z M 0 -4.859375 "/>
</g>
<g id="glyph-13-0-8d87ebca">
<path d="M 2.96875 -2.921875 C 2.96875 -2.921875 2.96875 -0.328125 2.96875 -0.328125 C 2.96875 -0.328125 1.953125 -0.328125 1.953125 -0.328125 C 1.953125 -0.328125 1.953125 -1.765625 1.953125 -1.765625 C 1.953125 -1.765625 -9.203125 -1.765625 -9.203125 -1.765625 C -9.203125 -1.765625 -9.203125 -0.328125 -9.203125 -0.328125 C -9.203125 -0.328125 -10.203125 -0.328125 -10.203125 -0.328125 C -10.203125 -0.328125 -10.203125 -2.921875 -10.203125 -2.921875 C -10.203125 -2.921875 2.96875 -2.921875 2.96875 -2.921875 Z M 2.96875 -2.921875 "/>
</g>
<g id="glyph-14-0-8d87ebca">
<path d="M 7.09375 -4.78125 C 7.09375 -1.515625 5.953125 0.203125 3.84375 0.203125 C 1.71875 0.203125 0.609375 -1.515625 0.609375 -4.859375 C 0.609375 -8.1875 1.703125 -9.921875 3.84375 -9.921875 C 6 -9.921875 7.09375 -8.21875 7.09375 -4.78125 Z M 5.84375 -4.890625 C 5.84375 -7.546875 5.1875 -8.828125 3.84375 -8.828125 C 2.515625 -8.828125 1.859375 -7.5625 1.859375 -4.84375 C 1.859375 -2.125 2.515625 -0.8125 3.828125 -0.8125 C 5.1875 -0.8125 5.84375 -2.078125 5.84375 -4.890625 Z M 5.84375 -4.890625 "/>
</g>
</g>
<clipPath id="clip-0-8d87ebca">
<path clip-rule="nonzero" d="M 77 24 L 984 24 L 984 283 L 77 283 Z M 77 24 "/>
</clipPath>
</defs>
<rect x="-100" y="-35" width="1200" height="420" fill="rgb(100%, 100%, 100%)" fill-opacity="1"/>
<path fill-rule="nonzero" fill="rgb(100%, 100%, 100%)" fill-opacity="1" d="M 77 291 L 984 291 L 984 16 L 77 16 Z M 77 291 "/>
<path fill="none" stroke-width="1" stroke-linecap="butt" stroke-linejoin="miter" stroke="rgb(0%, 0%, 0%)" stroke-opacity="0.12" stroke-miterlimit="1.154701" d="M 108.535156 291 L 108.535156 16 "/>
<path fill="none" stroke-width="1" stroke-linecap="butt" stroke-linejoin="miter" stroke="rgb(0%, 0%, 0%)" stroke-opacity="0.12" stroke-miterlimit="1.154701" d="M 143.984375 291 L 143.984375 16 "/>
<path fill="none" stroke-width="1" stroke-linecap="butt" stroke-linejoin="miter" stroke="rgb(0%, 0%, 0%)" stroke-opacity="0.12" stroke-miterlimit="1.154701" d="M 179.429688 291 L 179.429688 16 "/>
<path fill="none" stroke-width="1" stroke-linecap="butt" stroke-linejoin="miter" stroke="rgb(0%, 0%, 0%)" stroke-opacity="0.12" stroke-miterlimit="1.154701" d="M 214.875 291 L 214.875 16 "/>
<path fill="none" stroke-width="1" stroke-linecap="butt" stroke-linejoin="miter" stroke="rgb(0%, 0%, 0%)" stroke-opacity="0.12" stroke-miterlimit="1.154701" d="M 250.324219 291 L 250.324219 16 "/>
<path fill="none" stroke-width="1" stroke-linecap="butt" stroke-linejoin="miter" stroke="rgb(0%, 0%, 0%)" stroke-opacity="0.12" stroke-miterlimit="1.154701" d="M 285.769531 291 L 285.769531 16 "/>
<path fill="none" stroke-width="1" stroke-linecap="butt" stroke-linejoin="miter" stroke="rgb(0%, 0%, 0%)" stroke-opacity="0.12" stroke-miterlimit="1.154701" d="M 321.214844 291 L 321.214844 16 "/>
<path fill="none" stroke-width="1" stroke-linecap="butt" stroke-linejoin="miter" stroke="rgb(0%, 0%, 0%)" stroke-opacity="0.12" stroke-miterlimit="1.154701" d="M 356.664062 291 L 356.664062 16 "/>
<path fill="none" stroke-width="1" stroke-linecap="butt" stroke-linejoin="miter" stroke="rgb(0%, 0%, 0%)" stroke-opacity="0.12" stroke-miterlimit="1.154701" d="M 392.109375 291 L 392.109375 16 "/>
<path fill="none" stroke-width="1" stroke-linecap="butt" stroke-linejoin="miter" stroke="rgb(0%, 0%, 0%)" stroke-opacity="0.12" stroke-miterlimit="1.154701" d="M 427.558594 291 L 427.558594 16 "/>
<path fill="none" stroke-width="1" stroke-linecap="butt" stroke-linejoin="miter" stroke="rgb(0%, 0%, 0%)" stroke-opacity="0.12" stroke-miterlimit="1.154701" d="M 463.003906 291 L 463.003906 16 "/>
<path fill="none" stroke-width="1" stroke-linecap="butt" stroke-linejoin="miter" stroke="rgb(0%, 0%, 0%)" stroke-opacity="0.12" stroke-miterlimit="1.154701" d="M 498.449219 291 L 498.449219 16 "/>
<path fill="none" stroke-width="1" stroke-linecap="butt" stroke-linejoin="miter" stroke="rgb(0%, 0%, 0%)" stroke-opacity="0.12" stroke-miterlimit="1.154701" d="M 533.898438 291 L 533.898438 16 "/>
<path fill="none" stroke-width="1" stroke-linecap="butt" stroke-linejoin="miter" stroke="rgb(0%, 0%, 0%)" stroke-opacity="0.12" stroke-miterlimit="1.154701" d="M 569.34375 291 L 569.34375 16 "/>
<path fill="none" stroke-width="1" stroke-linecap="butt" stroke-linejoin="miter" stroke="rgb(0%, 0%, 0%)" stroke-opacity="0.12" stroke-miterlimit="1.154701" d="M 604.789062 291 L 604.789062 16 "/>
<path fill="none" stroke-width="1" stroke-linecap="butt" stroke-linejoin="miter" stroke="rgb(0%, 0%, 0%)" stroke-opacity="0.12" stroke-miterlimit="1.154701" d="M 640.238281 291 L 640.238281 16 "/>
<path fill="none" stroke-width="1" stroke-linecap="butt" stroke-linejoin="miter" stroke="rgb(0%, 0%, 0%)" stroke-opacity="0.12" stroke-miterlimit="1.154701" d="M 675.683594 291 L 675.683594 16 "/>
<path fill="none" stroke-width="1" stroke-linecap="butt" stroke-linejoin="miter" stroke="rgb(0%, 0%, 0%)" stroke-opacity="0.12" stroke-miterlimit="1.154701" d="M 711.132812 291 L 711.132812 16 "/>
<path fill="none" stroke-width="1" stroke-linecap="butt" stroke-linejoin="miter" stroke="rgb(0%, 0%, 0%)" stroke-opacity="0.12" stroke-miterlimit="1.154701" d="M 746.578125 291 L 746.578125 16 "/>
<path fill="none" stroke-width="1" stroke-linecap="butt" stroke-linejoin="miter" stroke="rgb(0%, 0%, 0%)" stroke-opacity="0.12" stroke-miterlimit="1.154701" d="M 782.023438 291 L 782.023438 16 "/>
<path fill="none" stroke-width="1" stroke-linecap="butt" stroke-linejoin="miter" stroke="rgb(0%, 0%, 0%)" stroke-opacity="0.12" stroke-miterlimit="1.154701" d="M 817.472656 291 L 817.472656 16 "/>
<path fill="none" stroke-width="1" stroke-linecap="butt" stroke-linejoin="miter" stroke="rgb(0%, 0%, 0%)" stroke-opacity="0.12" stroke-miterlimit="1.154701" d="M 852.917969 291 L 852.917969 16 "/>
<path fill="none" stroke-width="1" stroke-linecap="butt" stroke-linejoin="miter" stroke="rgb(0%, 0%, 0%)" stroke-opacity="0.12" stroke-miterlimit="1.154701" d="M 888.367188 291 L 888.367188 16 "/>
<path fill="none" stroke-width="1" stroke-linecap="butt" stroke-linejoin="miter" stroke="rgb(0%, 0%, 0%)" stroke-opacity="0.12" stroke-miterlimit="1.154701" d="M 923.8125 291 L 923.8125 16 "/>
<path fill="none" stroke-width="1" stroke-linecap="butt" stroke-linejoin="miter" stroke="rgb(0%, 0%, 0%)" stroke-opacity="0.12" stroke-miterlimit="1.154701" d="M 959.257812 291 L 959.257812 16 "/>
<path fill="none" stroke-width="1" stroke-linecap="butt" stroke-linejoin="miter" stroke="rgb(0%, 0%, 0%)" stroke-opacity="0.12" stroke-miterlimit="1.154701" d="M 77 278.5 L 984 278.5 "/>
<path fill="none" stroke-width="1" stroke-linecap="butt" stroke-linejoin="miter" stroke="rgb(0%, 0%, 0%)" stroke-opacity="0.12" stroke-miterlimit="1.154701" d="M 77 186.492188 L 984 186.492188 "/>
<path fill="none" stroke-width="1" stroke-linecap="butt" stroke-linejoin="miter" stroke="rgb(0%, 0%, 0%)" stroke-opacity="0.12" stroke-miterlimit="1.154701" d="M 77 94.488281 L 984 94.488281 "/>
<g fill="rgb(0%, 0%, 0%)" fill-opacity="1">
<use xlink:href="#glyph-0-0-8d87ebca" x="473.695026" y="331.568"/>
<use xlink:href="#glyph-0-1-8d87ebca" x="483.803024" y="331.568"/>
<use xlink:href="#glyph-0-2-8d87ebca" x="491.587029" y="331.568"/>
<use xlink:href="#glyph-0-1-8d87ebca" x="495.479027" y="331.568"/>
<use xlink:href="#glyph-0-3-8d87ebca" x="503.263028" y="331.568"/>
<use xlink:href="#glyph-0-2-8d87ebca" x="511.047029" y="331.568"/>
<use xlink:href="#glyph-0-4-8d87ebca" x="514.939027" y="331.568"/>
<use xlink:href="#glyph-0-5-8d87ebca" x="518.047029" y="331.568"/>
<use xlink:href="#glyph-0-3-8d87ebca" x="525.83103" y="331.568"/>
<use xlink:href="#glyph-0-6-8d87ebca" x="533.615031" y="331.568"/>
<use xlink:href="#glyph-0-7-8d87ebca" x="537.507029" y="331.568"/>
<use xlink:href="#glyph-0-8-8d87ebca" x="541.399032" y="331.568"/>
<use xlink:href="#glyph-0-4-8d87ebca" x="553.061035" y="331.568"/>
<use xlink:href="#glyph-0-3-8d87ebca" x="556.169037" y="331.568"/>
<use xlink:href="#glyph-0-9-8d87ebca" x="563.953034" y="331.568"/>
<use xlink:href="#glyph-0-2-8d87ebca" x="571.73703" y="331.568"/>
<use xlink:href="#glyph-0-1-8d87ebca" x="575.629029" y="331.568"/>
<use xlink:href="#glyph-0-10-8d87ebca" x="583.413026" y="331.568"/>
</g>
<g fill="rgb(0%, 0%, 0%)" fill-opacity="1">
<use xlink:href="#glyph-0-11-8d87ebca" x="104.643825" y="312.258001"/>
</g>
<g fill="rgb(0%, 0%, 0%)" fill-opacity="1">
<use xlink:href="#glyph-0-12-8d87ebca" x="140.090612" y="312.258001"/>
</g>
<g fill="rgb(0%, 0%, 0%)" fill-opacity="1">
<use xlink:href="#glyph-0-13-8d87ebca" x="175.537406" y="312.258001"/>
</g>
<g fill="rgb(0%, 0%, 0%)" fill-opacity="1">
<use xlink:href="#glyph-0-14-8d87ebca" x="210.9842" y="312.258001"/>
</g>
<g fill="rgb(0%, 0%, 0%)" fill-opacity="1">
<use xlink:href="#glyph-0-15-8d87ebca" x="246.430995" y="312.258001"/>
</g>
<g fill="rgb(0%, 0%, 0%)" fill-opacity="1">
<use xlink:href="#glyph-0-16-8d87ebca" x="277.985789" y="312.258001"/>
<use xlink:href="#glyph-0-17-8d87ebca" x="285.769789" y="312.258001"/>
</g>
<g fill="rgb(0%, 0%, 0%)" fill-opacity="1">
<use xlink:href="#glyph-0-16-8d87ebca" x="313.432568" y="312.258001"/>
<use xlink:href="#glyph-0-16-8d87ebca" x="321.216568" y="312.258001"/>
</g>
<g fill="rgb(0%, 0%, 0%)" fill-opacity="1">
<use xlink:href="#glyph-0-16-8d87ebca" x="348.879347" y="312.258001"/>
<use xlink:href="#glyph-0-18-8d87ebca" x="356.663347" y="312.258001"/>
</g>
<g fill="rgb(0%, 0%, 0%)" fill-opacity="1">
<use xlink:href="#glyph-0-16-8d87ebca" x="384.326156" y="312.258001"/>
<use xlink:href="#glyph-0-19-8d87ebca" x="392.110157" y="312.258001"/>
</g>
<g fill="rgb(0%, 0%, 0%)" fill-opacity="1">
<use xlink:href="#glyph-0-16-8d87ebca" x="419.772935" y="312.258001"/>
<use xlink:href="#glyph-0-20-8d87ebca" x="427.556936" y="312.258001"/>
</g>
<g fill="rgb(0%, 0%, 0%)" fill-opacity="1">
<use xlink:href="#glyph-0-16-8d87ebca" x="455.219745" y="312.258001"/>
<use xlink:href="#glyph-0-11-8d87ebca" x="463.003745" y="312.258001"/>
</g>
<g fill="rgb(0%, 0%, 0%)" fill-opacity="1">
<use xlink:href="#glyph-1-0-8d87ebca" x="490.666524" y="312.258001"/>
<use xlink:href="#glyph-1-1-8d87ebca" x="498.450524" y="312.258001"/>
</g>
<g fill="rgb(0%, 0%, 0%)" fill-opacity="1">
<use xlink:href="#glyph-0-16-8d87ebca" x="526.113303" y="312.258001"/>
<use xlink:href="#glyph-0-13-8d87ebca" x="533.897303" y="312.258001"/>
</g>
<g fill="rgb(0%, 0%, 0%)" fill-opacity="1">
<use xlink:href="#glyph-0-16-8d87ebca" x="561.560082" y="312.258001"/>
<use xlink:href="#glyph-0-14-8d87ebca" x="569.344082" y="312.258001"/>
</g>
<g fill="rgb(0%, 0%, 0%)" fill-opacity="1">
<use xlink:href="#glyph-0-16-8d87ebca" x="597.006922" y="312.258001"/>
<use xlink:href="#glyph-0-15-8d87ebca" x="604.790922" y="312.258001"/>
</g>
<g fill="rgb(0%, 0%, 0%)" fill-opacity="1">
<use xlink:href="#glyph-0-18-8d87ebca" x="632.453701" y="312.258001"/>
<use xlink:href="#glyph-0-17-8d87ebca" x="640.237701" y="312.258001"/>
</g>
<g fill="rgb(0%, 0%, 0%)" fill-opacity="1">
<use xlink:href="#glyph-0-18-8d87ebca" x="667.90048" y="312.258001"/>
<use xlink:href="#glyph-0-16-8d87ebca" x="675.68448" y="312.258001"/>
</g>
<g fill="rgb(0%, 0%, 0%)" fill-opacity="1">
<use xlink:href="#glyph-0-18-8d87ebca" x="703.347259" y="312.258001"/>
<use xlink:href="#glyph-0-18-8d87ebca" x="711.131259" y="312.258001"/>
</g>
<g fill="rgb(0%, 0%, 0%)" fill-opacity="1">
<use xlink:href="#glyph-0-18-8d87ebca" x="738.794038" y="312.258001"/>
<use xlink:href="#glyph-0-19-8d87ebca" x="746.578038" y="312.258001"/>
</g>
<g fill="rgb(0%, 0%, 0%)" fill-opacity="1">
<use xlink:href="#glyph-0-18-8d87ebca" x="774.240817" y="312.258001"/>
<use xlink:href="#glyph-0-20-8d87ebca" x="782.024817" y="312.258001"/>
</g>
<g fill="rgb(0%, 0%, 0%)" fill-opacity="1">
<use xlink:href="#glyph-0-18-8d87ebca" x="809.687657" y="312.258001"/>
<use xlink:href="#glyph-0-11-8d87ebca" x="817.471657" y="312.258001"/>
</g>
<g fill="rgb(0%, 0%, 0%)" fill-opacity="1">
<use xlink:href="#glyph-0-18-8d87ebca" x="845.134436" y="312.258001"/>
<use xlink:href="#glyph-0-12-8d87ebca" x="852.918437" y="312.258001"/>
</g>
<g fill="rgb(0%, 0%, 0%)" fill-opacity="1">
<use xlink:href="#glyph-0-18-8d87ebca" x="880.581215" y="312.258001"/>
<use xlink:href="#glyph-0-13-8d87ebca" x="888.365216" y="312.258001"/>
</g>
<g fill="rgb(0%, 0%, 0%)" fill-opacity="1">
<use xlink:href="#glyph-0-18-8d87ebca" x="916.027994" y="312.258001"/>
<use xlink:href="#glyph-0-14-8d87ebca" x="923.811995" y="312.258001"/>
</g>
<g fill="rgb(0%, 0%, 0%)" fill-opacity="1">
<use xlink:href="#glyph-0-18-8d87ebca" x="951.474773" y="312.258001"/>
<use xlink:href="#glyph-0-15-8d87ebca" x="959.258774" y="312.258001"/>
</g>
<g fill="rgb(0%, 0%, 0%)" fill-opacity="1">
<use xlink:href="#glyph-2-0-8d87ebca" x="27.811997" y="204.242998"/>
</g>
<g fill="rgb(0%, 0%, 0%)" fill-opacity="1">
<use xlink:href="#glyph-3-0-8d87ebca" x="27.811997" y="200.351"/>
</g>
<g fill="rgb(0%, 0%, 0%)" fill-opacity="1">
<use xlink:href="#glyph-4-0-8d87ebca" x="27.811998" y="192.566999"/>
</g>
<g fill="rgb(0%, 0%, 0%)" fill-opacity="1">
<use xlink:href="#glyph-5-0-8d87ebca" x="27.811998" y="188.674997"/>
</g>
<g fill="rgb(0%, 0%, 0%)" fill-opacity="1">
<use xlink:href="#glyph-6-0-8d87ebca" x="27.811998" y="180.891001"/>
</g>
<g fill="rgb(0%, 0%, 0%)" fill-opacity="1">
<use xlink:href="#glyph-7-0-8d87ebca" x="27.811999" y="173.107"/>
<use xlink:href="#glyph-7-1-8d87ebca" x="27.811999" y="166.106999"/>
</g>
<g fill="rgb(0%, 0%, 0%)" fill-opacity="1">
<use xlink:href="#glyph-8-0-8d87ebca" x="27.811999" y="162.998998"/>
</g>
<g fill="rgb(0%, 0%, 0%)" fill-opacity="1">
<use xlink:href="#glyph-5-1-8d87ebca" x="27.812" y="159.107"/>
</g>
<g fill="rgb(0%, 0%, 0%)" fill-opacity="1">
<use xlink:href="#glyph-9-0-8d87ebca" x="27.812" y="152.107"/>
</g>
<g fill="rgb(0%, 0%, 0%)" fill-opacity="1">
<use xlink:href="#glyph-5-2-8d87ebca" x="27.812" y="148.215003"/>
</g>
<g fill="rgb(0%, 0%, 0%)" fill-opacity="1">
<use xlink:href="#glyph-4-1-8d87ebca" x="27.812" y="144.323005"/>
</g>
<g fill="rgb(0%, 0%, 0%)" fill-opacity="1">
<use xlink:href="#glyph-7-0-8d87ebca" x="27.812001" y="132.661004"/>
</g>
<g fill="rgb(0%, 0%, 0%)" fill-opacity="1">
<use xlink:href="#glyph-10-0-8d87ebca" x="27.812002" y="125.661004"/>
</g>
<g fill="rgb(0%, 0%, 0%)" fill-opacity="1">
<use xlink:href="#glyph-11-0-8d87ebca" x="27.812002" y="119.095004"/>
</g>
<g fill="rgb(0%, 0%, 0%)" fill-opacity="1">
<use xlink:href="#glyph-12-0-8d87ebca" x="27.812002" y="114.433001"/>
</g>
<g fill="rgb(0%, 0%, 0%)" fill-opacity="1">
<use xlink:href="#glyph-13-0-8d87ebca" x="27.812003" y="106.649005"/>
</g>
<g fill="rgb(0%, 0%, 0%)" fill-opacity="1">
<use xlink:href="#glyph-0-17-8d87ebca" x="59.216003" y="283.603001"/>
</g>
<g fill="rgb(0%, 0%, 0%)" fill-opacity="1">
<use xlink:href="#glyph-0-16-8d87ebca" x="35.864002" y="191.596425"/>
<use xlink:href="#glyph-0-17-8d87ebca" x="43.648003" y="191.596425"/>
</g>
<g fill="rgb(0%, 0%, 0%)" fill-opacity="1">
<use xlink:href="#glyph-14-0-8d87ebca" x="51.432003" y="191.596425"/>
</g>
<g fill="rgb(0%, 0%, 0%)" fill-opacity="1">
<use xlink:href="#glyph-0-17-8d87ebca" x="59.216002" y="191.596425"/>
</g>
<g fill="rgb(0%, 0%, 0%)" fill-opacity="1">
<use xlink:href="#glyph-0-18-8d87ebca" x="35.864002" y="99.589865"/>
<use xlink:href="#glyph-0-17-8d87ebca" x="43.648003" y="99.589865"/>
</g>
<g fill="rgb(0%, 0%, 0%)" fill-opacity="1">
<use xlink:href="#glyph-14-0-8d87ebca" x="51.432003" y="99.589865"/>
</g>
<g fill="rgb(0%, 0%, 0%)" fill-opacity="1">
<use xlink:href="#glyph-0-17-8d87ebca" x="59.216002" y="99.589865"/>
</g>
<g clip-path="url(#clip-0-8d87ebca)">
<path fill="none" stroke-width="1.5" stroke-linecap="butt" stroke-linejoin="miter" stroke="rgb(0%, 44.705883%, 69.803923%)" stroke-opacity="1" stroke-miterlimit="2" d="M 77 266.714844 L 77.417969 273.023438 L 77.839844 278.5 L 78.257812 269.210938 L 78.679688 265.257812 L 79.097656 269.972656 L 79.515625 269.417969 L 79.9375 274.269531 L 80.355469 277.390625 L 80.777344 277.875 L 81.195312 276.976562 L 81.613281 276.835938 L 82.035156 277.667969 L 82.453125 275.726562 L 82.875 275.65625 L 83.292969 274.617188 L 83.710938 274.480469 L 84.132812 275.519531 L 84.550781 277.390625 L 84.972656 277.183594 L 85.390625 276.835938 L 85.808594 275.726562 L 86.230469 276.28125 L 86.648438 276.90625 L 87.070312 276.558594 L 87.488281 277.183594 L 87.90625 276.835938 L 88.328125 276.90625 L 88.746094 277.945312 L 89.164062 275.867188 L 89.585938 276.765625 L 90.003906 274.203125 L 90.425781 276.765625 L 90.84375 277.53125 L 91.265625 277.253906 L 91.683594 277.042969 L 92.101562 277.667969 L 92.523438 276.835938 L 92.941406 276.835938 L 93.359375 275.3125 L 93.78125 275.589844 L 94.199219 276.488281 L 94.621094 276.28125 L 95.039062 274.617188 L 95.457031 276.351562 L 95.878906 276.90625 L 96.296875 274.269531 L 96.71875 273.09375 L 97.136719 277.253906 L 97.554688 277.460938 L 97.976562 276.976562 L 98.394531 277.113281 L 98.816406 277.253906 L 99.234375 274.0625 L 99.652344 274.617188 L 100.074219 274.480469 L 100.492188 274.894531 L 100.914062 274.480469 L 101.332031 273.507812 L 101.75 274.132812 L 102.171875 276.628906 L 102.589844 276.835938 L 103.011719 278.5 L 103.429688 276.835938 L 103.847656 276.28125 L 104.269531 277.460938 L 104.6875 274.617188 L 105.109375 264.011719 L 105.527344 262.832031 L 105.945312 271.359375 L 106.367188 277.738281 L 106.785156 277.320312 L 107.207031 276.351562 L 107.625 277.042969 L 108.042969 274.132812 L 108.464844 275.3125 L 108.882812 277.597656 L 109.300781 277.113281 L 109.722656 275.171875 L 110.140625 272.261719 L 110.5625 267.128906 L 110.980469 272.398438 L 111.402344 275.035156 L 111.820312 272.882812 L 112.238281 276.90625 L 112.660156 276.699219 L 113.078125 276.765625 L 113.5 276.835938 L 113.917969 278.5 L 114.335938 276.765625 L 114.757812 275.171875 L 115.175781 273.648438 L 115.59375 274.203125 L 116.015625 275.242188 L 116.433594 274.410156 L 116.855469 267.617188 L 117.273438 241.894531 L 117.695312 248.6875 L 118.113281 266.992188 L 118.53125 276.699219 L 118.953125 273.507812 L 119.371094 270.941406 L 119.789062 274.132812 L 120.210938 270.320312 L 120.628906 272.398438 L 121.050781 271.289062 L 121.46875 272.261719 L 121.886719 271.773438 L 122.308594 274.410156 L 122.726562 274.617188 L 123.148438 272.539062 L 123.566406 270.457031 L 123.984375 270.042969 L 124.40625 273.4375 L 124.824219 270.734375 L 125.246094 275.242188 L 125.664062 277.53125 L 126.082031 272.261719 L 126.503906 272.539062 L 126.921875 272.816406 L 127.34375 273.992188 L 127.761719 272.261719 L 128.179688 273.507812 L 128.601562 275.796875 L 129.019531 273.160156 L 129.441406 273.507812 L 129.859375 272.675781 L 130.277344 275.519531 L 130.699219 271.082031 L 131.117188 273.507812 L 131.539062 271.984375 L 131.957031 273.992188 L 132.375 273.371094 L 132.796875 277.042969 L 133.214844 276.699219 L 133.636719 277.113281 L 134.054688 277.113281 L 134.472656 276.351562 L 134.894531 277.253906 L 135.3125 277.253906 L 135.730469 277.597656 L 136.152344 273.578125 L 136.570312 277.320312 L 136.992188 277.042969 L 137.410156 276.558594 L 137.832031 277.390625 L 138.25 277.390625 L 138.667969 277.042969 L 139.089844 277.53125 L 139.507812 276.003906 L 139.929688 277.183594 L 140.347656 277.042969 L 140.765625 277.113281 L 141.1875 276.144531 L 141.605469 274.480469 L 142.023438 276.765625 L 142.445312 278.015625 L 142.863281 277.738281 L 143.285156 277.183594 L 143.703125 275.933594 L 144.125 274.964844 L 144.542969 275.933594 L 144.960938 277.183594 L 145.382812 276.074219 L 145.800781 275.933594 L 146.21875 277.390625 L 146.640625 277.808594 L 147.058594 277.113281 L 147.480469 277.320312 L 147.898438 277.113281 L 148.320312 277.53125 L 148.738281 277.738281 L 149.15625 278.5 L 149.578125 276.976562 L 149.996094 276.421875 L 150.414062 276.144531 L 150.835938 277.320312 L 151.253906 276.628906 L 151.675781 275.65625 L 152.09375 277.183594 L 152.511719 277.597656 L 152.933594 277.667969 L 153.351562 277.738281 L 153.773438 276.699219 L 154.191406 277.390625 L 154.609375 275.726562 L 155.03125 277.53125 L 155.449219 276.90625 L 155.871094 278.085938 L 156.289062 277.667969 L 156.707031 276.351562 L 157.128906 276.421875 L 157.546875 276.90625 L 157.96875 277.460938 L 158.386719 277.113281 L 158.804688 276.628906 L 159.226562 276.976562 L 159.644531 277.042969 L 160.066406 277.390625 L 160.484375 276.976562 L 160.902344 276.699219 L 161.324219 277.253906 L 161.742188 277.253906 L 162.164062 277.597656 L 162.582031 277.460938 L 163 277.460938 L 163.421875 277.253906 L 163.839844 276.421875 L 164.261719 276.765625 L 164.679688 276.976562 L 165.097656 277.253906 L 165.519531 277.738281 L 165.9375 277.183594 L 166.359375 278.5 L 166.777344 277.113281 L 167.195312 277.183594 L 167.617188 277.113281 L 168.035156 277.183594 L 168.457031 274.410156 L 168.875 276.765625 L 169.292969 277.183594 L 169.714844 277.597656 L 170.132812 276.351562 L 170.554688 277.667969 L 170.972656 276.765625 L 171.390625 277.183594 L 171.8125 278.015625 L 172.230469 277.253906 L 172.648438 276.90625 L 173.070312 277.253906 L 173.488281 277.875 L 173.910156 276.90625 L 174.328125 274.339844 L 174.75 276.835938 L 175.167969 277.253906 L 175.585938 277.667969 L 176.007812 277.390625 L 176.425781 276.976562 L 176.84375 275.65625 L 177.265625 276.144531 L 177.683594 278.5 L 178.105469 277.390625 L 178.523438 276.28125 L 178.941406 274.824219 L 179.363281 275.726562 L 179.78125 278.5 L 180.203125 276.421875 L 180.621094 276.558594 L 181.039062 277.597656 L 181.460938 277.597656 L 181.878906 275.867188 L 182.300781 276.835938 L 182.71875 277.042969 L 183.136719 277.183594 L 183.558594 277.390625 L 183.976562 276.976562 L 184.398438 277.253906 L 184.816406 276.765625 L 185.234375 277.042969 L 185.65625 277.320312 L 186.074219 277.738281 L 186.496094 278.5 L 186.914062 276.976562 L 187.332031 277.183594 L 187.753906 276.90625 L 188.171875 276.699219 L 188.59375 277.113281 L 189.011719 276.421875 L 189.429688 275.796875 L 189.851562 277.390625 L 190.269531 277.042969 L 190.691406 276.976562 L 191.109375 276.074219 L 191.527344 276.976562 L 191.949219 277.460938 L 192.367188 276.90625 L 192.785156 277.042969 L 193.207031 276.210938 L 193.625 276.699219 L 194.046875 277.390625 L 194.464844 276.835938 L 194.886719 276.835938 L 195.304688 278.5 L 195.722656 277.320312 L 196.144531 277.320312 L 196.5625 277.53125 L 196.984375 275.726562 L 197.402344 277.460938 L 197.820312 277.945312 L 198.242188 274.480469 L 198.660156 272.398438 L 199.078125 274.894531 L 199.5 277.460938 L 199.917969 277.253906 L 200.339844 276.699219 L 200.757812 276.976562 L 201.179688 277.320312 L 201.597656 277.808594 L 202.015625 276.421875 L 202.4375 278.5 L 202.855469 277.320312 L 203.273438 277.113281 L 203.695312 276.074219 L 204.113281 277.945312 L 204.535156 276.558594 L 204.953125 277.875 L 205.371094 277.320312 L 205.792969 278.5 L 206.210938 276.003906 L 206.632812 277.390625 L 207.050781 277.253906 L 207.46875 277.738281 L 207.890625 276.976562 L 208.308594 276.488281 L 208.730469 277.53125 L 209.148438 276.976562 L 209.566406 277.390625 L 209.988281 275.378906 L 210.40625 276.144531 L 210.828125 275.101562 L 211.246094 277.113281 L 211.664062 276.90625 L 212.085938 277.390625 L 212.503906 277.875 L 212.925781 277.320312 L 213.34375 276.976562 L 213.761719 277.460938 L 214.183594 278.5 L 214.601562 277.113281 L 215.023438 276.003906 L 215.441406 277.183594 L 215.859375 277.113281 L 216.28125 276.765625 L 216.699219 277.042969 L 217.121094 276.210938 L 217.539062 277.042969 L 217.957031 277.390625 L 218.378906 277.320312 L 218.796875 276.835938 L 219.214844 277.253906 L 219.636719 276.421875 L 220.054688 276.351562 L 220.476562 277.183594 L 220.894531 277.183594 L 221.316406 278.085938 L 221.734375 277.113281 L 222.152344 276.835938 L 222.574219 277.738281 L 222.992188 277.253906 L 223.414062 277.320312 L 223.832031 276.558594 L 224.25 276.351562 L 224.671875 273.992188 L 225.089844 274.824219 L 225.507812 277.667969 L 225.929688 277.738281 L 226.347656 277.183594 L 226.769531 278.015625 L 227.1875 278.015625 L 227.609375 278.5 L 228.027344 276.835938 L 228.445312 277.320312 L 228.867188 277.390625 L 229.285156 276.765625 L 229.703125 276.628906 L 230.125 278.222656 L 230.542969 275.449219 L 230.964844 276.835938 L 231.382812 277.597656 L 231.800781 277.875 L 232.222656 276.074219 L 232.640625 276.90625 L 233.0625 274.964844 L 233.480469 275.378906 L 233.898438 276.210938 L 234.320312 277.183594 L 234.738281 277.667969 L 235.160156 276.765625 L 235.578125 277.183594 L 235.996094 276.144531 L 236.417969 275.726562 L 236.835938 277.183594 L 237.257812 277.390625 L 237.675781 277.320312 L 238.09375 277.253906 L 238.515625 277.390625 L 238.933594 277.945312 L 239.355469 276.976562 L 239.773438 276.421875 L 240.191406 273.300781 L 240.613281 274.546875 L 241.03125 275.171875 L 241.453125 276.144531 L 241.871094 277.808594 L 242.289062 277.183594 L 242.710938 276.765625 L 243.128906 276.28125 L 243.550781 277.597656 L 243.96875 278.015625 L 244.386719 276.699219 L 244.808594 275.796875 L 245.226562 277.738281 L 245.644531 276.558594 L 246.066406 277.738281 L 246.484375 276.765625 L 246.90625 277.320312 L 247.324219 277.113281 L 247.746094 277.042969 L 248.164062 276.421875 L 248.582031 276.003906 L 249.003906 275.3125 L 249.421875 276.074219 L 249.84375 276.558594 L 250.261719 277.53125 L 250.679688 275.65625 L 251.101562 277.53125 L 251.519531 277.808594 L 251.9375 276.835938 L 252.359375 274.410156 L 252.777344 276.074219 L 253.199219 276.558594 L 253.617188 278.5 L 254.039062 276.699219 L 254.457031 276.90625 L 254.875 277.875 L 255.296875 277.597656 L 255.714844 277.460938 L 256.132812 276.628906 L 256.554688 275.796875 L 256.972656 277.945312 L 257.394531 278.5 L 257.8125 277.738281 L 258.230469 276.28125 L 258.652344 277.53125 L 259.070312 277.390625 L 259.492188 278.015625 L 259.910156 277.667969 L 260.328125 277.253906 L 260.75 277.253906 L 261.167969 276.003906 L 261.589844 275.378906 L 262.007812 276.210938 L 262.425781 277.320312 L 262.847656 277.390625 L 263.265625 277.597656 L 263.6875 276.976562 L 264.105469 277.320312 L 264.523438 276.765625 L 264.945312 277.875 L 265.363281 276.28125 L 265.785156 276.976562 L 266.203125 277.390625 L 266.621094 277.53125 L 267.042969 278.015625 L 267.460938 276.210938 L 267.882812 277.738281 L 268.300781 277.253906 L 268.71875 277.320312 L 269.140625 275.519531 L 269.558594 277.113281 L 269.980469 276.210938 L 270.398438 274.269531 L 270.816406 274.964844 L 271.238281 278.5 L 271.65625 276.765625 L 272.074219 277.042969 L 272.496094 277.183594 L 272.914062 277.667969 L 273.335938 276.003906 L 273.753906 276.835938 L 274.175781 277.253906 L 274.59375 276.765625 L 275.011719 276.699219 L 275.433594 274.480469 L 275.851562 274.617188 L 276.269531 277.53125 L 276.691406 275.65625 L 277.109375 276.351562 L 277.53125 275.933594 L 277.949219 274.132812 L 278.367188 278.5 L 278.789062 277.253906 L 279.207031 277.53125 L 279.628906 276.90625 L 280.046875 277.113281 L 280.46875 276.90625 L 281.304688 277.460938 L 281.726562 277.460938 L 282.144531 277.390625 L 282.5625 277.875 L 282.984375 277.738281 L 283.402344 277.460938 L 283.824219 277.320312 L 284.242188 275.867188 L 284.660156 273.578125 L 285.082031 278.5 L 285.5 276.976562 L 285.921875 277.113281 L 286.339844 277.460938 L 286.757812 276.90625 L 287.179688 276.90625 L 287.597656 275.933594 L 288.019531 276.558594 L 288.4375 277.253906 L 288.855469 278.5 L 289.277344 276.835938 L 289.695312 276.835938 L 290.117188 275.65625 L 290.535156 273.714844 L 290.953125 274.894531 L 291.375 277.53125 L 291.792969 277.390625 L 292.214844 274.132812 L 292.632812 276.90625 L 293.050781 277.390625 L 293.472656 276.558594 L 293.890625 277.738281 L 294.3125 277.597656 L 294.730469 277.808594 L 295.148438 277.042969 L 295.570312 276.488281 L 295.988281 276.351562 L 296.410156 276.421875 L 296.828125 276.976562 L 297.246094 274.964844 L 297.667969 275.65625 L 298.085938 277.253906 L 298.503906 276.90625 L 298.925781 276.074219 L 299.34375 277.113281 L 299.765625 277.320312 L 300.183594 274.410156 L 300.605469 273.160156 L 301.023438 276.558594 L 301.441406 277.460938 L 301.863281 278.5 L 302.28125 276.976562 L 302.699219 278.5 L 303.121094 277.667969 L 303.539062 277.113281 L 303.960938 276.558594 L 304.378906 274.132812 L 304.796875 272.882812 L 305.21875 277.042969 L 305.636719 277.253906 L 306.058594 276.976562 L 306.476562 277.183594 L 306.898438 277.53125 L 307.316406 278.152344 L 307.734375 277.597656 L 308.15625 275.519531 L 308.574219 273.714844 L 308.992188 275.3125 L 309.414062 276.835938 L 309.832031 277.253906 L 310.253906 277.738281 L 310.671875 278.015625 L 311.089844 276.351562 L 311.511719 278.5 L 311.929688 278.5 L 312.351562 276.976562 L 312.769531 276.074219 L 313.1875 277.183594 L 313.609375 278.5 L 314.027344 277.042969 L 314.449219 276.699219 L 314.867188 275.726562 L 315.285156 277.320312 L 315.707031 276.90625 L 316.125 277.53125 L 316.546875 276.628906 L 316.964844 277.320312 L 317.382812 275.867188 L 317.804688 276.558594 L 318.222656 273.992188 L 318.644531 276.765625 L 319.0625 276.976562 L 319.480469 278.5 L 319.902344 277.183594 L 320.320312 276.835938 L 320.742188 277.460938 L 321.160156 275.726562 L 321.578125 275.933594 L 322 277.320312 L 322.417969 276.28125 L 322.839844 275.65625 L 323.257812 277.113281 L 323.675781 276.351562 L 324.097656 276.28125 L 324.515625 277.808594 L 324.933594 276.765625 L 325.355469 276.558594 L 325.773438 277.113281 L 326.195312 277.460938 L 326.613281 277.320312 L 327.035156 277.460938 L 327.453125 277.113281 L 327.871094 277.320312 L 328.292969 277.320312 L 328.710938 277.460938 L 329.128906 275.035156 L 329.550781 277.183594 L 329.96875 276.699219 L 330.390625 275.242188 L 330.808594 275.519531 L 331.226562 277.460938 L 331.648438 276.351562 L 332.066406 277.390625 L 332.488281 275.867188 L 332.90625 277.53125 L 333.328125 277.390625 L 333.746094 277.53125 L 334.164062 276.835938 L 334.585938 278.5 L 335.003906 277.320312 L 335.421875 277.53125 L 335.84375 278.5 L 336.261719 275.519531 L 336.683594 277.738281 L 337.101562 276.351562 L 337.523438 274.6875 L 337.941406 277.320312 L 338.359375 276.074219 L 338.78125 277.945312 L 339.199219 277.390625 L 339.617188 277.460938 L 340.039062 277.53125 L 340.457031 277.53125 L 340.878906 276.074219 L 341.296875 278.5 L 341.714844 277.667969 L 342.136719 278.015625 L 342.554688 278.222656 L 342.976562 277.113281 L 343.394531 276.628906 L 343.8125 278.363281 L 344.234375 277.253906 L 344.652344 277.875 L 345.074219 277.113281 L 345.492188 276.976562 L 345.910156 276.699219 L 346.332031 276.976562 L 346.75 276.210938 L 347.171875 275.796875 L 347.589844 276.90625 L 348.007812 276.488281 L 348.429688 276.488281 L 348.847656 277.183594 L 349.269531 277.253906 L 349.6875 276.976562 L 350.105469 277.042969 L 350.527344 275.726562 L 350.945312 275.867188 L 351.367188 276.210938 L 351.785156 276.90625 L 352.203125 276.765625 L 352.625 276.976562 L 353.042969 276.421875 L 353.464844 276.90625 L 353.882812 277.113281 L 354.300781 277.875 L 354.722656 277.808594 L 355.140625 277.597656 L 355.558594 277.738281 L 355.980469 276.90625 L 356.398438 276.765625 L 356.820312 276.699219 L 357.238281 276.765625 L 357.660156 275.449219 L 358.078125 277.320312 L 358.496094 277.113281 L 358.917969 277.738281 L 359.335938 277.738281 L 359.753906 278.5 L 360.175781 276.210938 L 360.59375 276.90625 L 361.015625 277.53125 L 361.433594 277.320312 L 361.851562 277.808594 L 362.273438 275.867188 L 362.691406 277.667969 L 363.113281 276.28125 L 363.53125 276.074219 L 363.953125 277.113281 L 364.371094 276.699219 L 364.789062 277.113281 L 365.210938 278.5 L 365.628906 275.726562 L 366.046875 274.6875 L 366.46875 276.90625 L 366.886719 277.320312 L 367.308594 276.976562 L 367.726562 276.90625 L 368.144531 277.808594 L 368.566406 277.53125 L 368.984375 277.183594 L 369.40625 277.53125 L 369.824219 278.5 L 370.242188 277.042969 L 370.664062 277.945312 L 371.082031 277.042969 L 371.503906 277.042969 L 371.921875 278.5 L 372.339844 276.90625 L 372.761719 278.5 L 373.179688 277.042969 L 373.601562 275.933594 L 374.019531 274.6875 L 374.4375 276.90625 L 374.859375 277.667969 L 375.277344 276.976562 L 375.699219 276.90625 L 376.117188 277.320312 L 376.535156 276.976562 L 376.957031 277.738281 L 377.375 277.320312 L 377.796875 277.808594 L 378.214844 276.976562 L 378.632812 276.699219 L 379.054688 277.320312 L 379.472656 276.003906 L 379.894531 275.519531 L 380.3125 277.113281 L 380.730469 278.152344 L 381.152344 278.5 L 381.570312 276.976562 L 381.988281 278.222656 L 382.410156 278.5 L 382.828125 273.785156 L 383.25 272.46875 L 383.667969 273.578125 L 384.089844 274.480469 L 384.507812 277.183594 L 384.925781 277.53125 L 385.347656 276.488281 L 385.765625 276.765625 L 386.183594 275.3125 L 386.605469 271.914062 L 387.023438 277.390625 L 387.445312 276.699219 L 387.863281 276.90625 L 388.28125 278.5 L 388.703125 277.183594 L 389.121094 276.765625 L 389.542969 275.519531 L 389.960938 278.5 L 390.382812 276.144531 L 390.800781 277.113281 L 391.21875 277.667969 L 391.640625 277.945312 L 392.058594 276.628906 L 392.476562 278.085938 L 392.898438 276.835938 L 393.316406 276.351562 L 393.738281 277.183594 L 394.15625 276.144531 L 394.574219 276.976562 L 394.996094 277.460938 L 395.414062 275.378906 L 395.835938 275.3125 L 396.253906 277.460938 L 396.671875 276.976562 L 397.09375 278.5 L 397.511719 276.835938 L 397.933594 276.835938 L 398.351562 276.28125 L 398.769531 275.867188 L 399.191406 275.726562 L 399.609375 277.113281 L 400.03125 278.5 L 400.449219 273.785156 L 400.867188 270.179688 L 401.289062 273.4375 L 401.707031 275.449219 L 402.128906 274.410156 L 402.546875 272.398438 L 402.964844 272.816406 L 403.386719 275.726562 L 403.804688 277.042969 L 404.226562 273.855469 L 404.644531 275.101562 L 405.0625 277.320312 L 405.484375 272.46875 L 405.902344 273.023438 L 406.324219 274.546875 L 406.742188 277.042969 L 407.160156 275.519531 L 407.582031 276.003906 L 408 274.339844 L 408.417969 275.796875 L 408.839844 275.378906 L 409.257812 276.628906 L 409.679688 274.617188 L 410.097656 275.449219 L 410.519531 276.351562 L 410.9375 274.546875 L 411.355469 274.269531 L 411.777344 276.976562 L 412.195312 277.808594 L 412.613281 277.113281 L 413.035156 276.628906 L 413.453125 274.617188 L 413.875 274.964844 L 414.292969 272.191406 L 414.710938 273.992188 L 415.132812 276.488281 L 415.550781 275.101562 L 415.972656 278.5 L 416.390625 276.003906 L 416.8125 274.410156 L 417.230469 275.242188 L 417.648438 277.113281 L 418.070312 275.3125 L 418.488281 274.269531 L 418.90625 274.824219 L 419.328125 273.925781 L 419.746094 276.835938 L 420.167969 277.460938 L 420.585938 277.113281 L 421.003906 276.074219 L 421.425781 276.003906 L 421.84375 277.53125 L 422.265625 278.5 L 422.683594 270.320312 L 423.101562 259.503906 L 423.523438 261.238281 L 423.941406 249.9375 L 424.363281 256.316406 L 424.78125 257.5625 L 425.199219 267.476562 L 425.621094 264.496094 L 426.039062 266.851562 L 426.460938 266.296875 L 426.878906 266.019531 L 427.296875 258.324219 L 427.71875 266.714844 L 428.136719 269.488281 L 428.558594 267.960938 L 428.976562 268.449219 L 429.394531 267.546875 L 429.816406 269.417969 L 430.234375 272.261719 L 430.65625 272.328125 L 431.074219 273.09375 L 431.492188 270.664062 L 431.914062 271.011719 L 432.332031 270.386719 L 432.753906 270.734375 L 433.171875 270.597656 L 433.589844 269.554688 L 434.011719 272.46875 L 434.429688 273.371094 L 434.847656 274.480469 L 435.269531 270.804688 L 435.6875 275.3125 L 436.109375 274.339844 L 436.527344 272.050781 L 436.949219 274.757812 L 437.367188 273.925781 L 437.785156 274.757812 L 438.207031 273.648438 L 438.625 272.882812 L 439.042969 273.300781 L 439.464844 277.253906 L 439.882812 274.757812 L 440.304688 273.925781 L 440.722656 273.371094 L 441.140625 272.953125 L 441.5625 274.617188 L 441.980469 274.410156 L 442.402344 277.53125 L 442.820312 276.765625 L 443.238281 277.320312 L 443.660156 277.460938 L 444.078125 274.894531 L 444.5 274.410156 L 444.917969 274.546875 L 445.335938 273.925781 L 445.757812 269.695312 L 446.175781 274.339844 L 446.597656 275.3125 L 447.015625 275.035156 L 447.433594 271.984375 L 447.855469 278.5 L 448.273438 273.578125 L 448.695312 273.300781 L 449.113281 273.023438 L 449.53125 274.269531 L 449.953125 273.925781 L 450.371094 274.339844 L 450.792969 275.867188 L 451.210938 278.5 L 451.628906 275.378906 L 452.050781 275.519531 L 452.46875 277.113281 L 452.890625 276.699219 L 453.308594 274.964844 L 453.726562 275.589844 L 454.148438 277.113281 L 454.566406 276.210938 L 454.988281 276.210938 L 455.40625 276.699219 L 455.824219 276.558594 L 456.246094 273.925781 L 456.664062 275.726562 L 457.085938 276.144531 L 457.503906 276.90625 L 457.921875 275.796875 L 458.34375 273.230469 L 458.761719 274.203125 L 459.183594 274.203125 L 459.601562 274.894531 L 460.019531 273.507812 L 460.441406 268.792969 L 460.859375 267.894531 L 461.277344 270.804688 L 461.699219 270.042969 L 462.117188 269.417969 L 462.539062 273.785156 L 462.957031 274.0625 L 463.378906 271.566406 L 463.796875 273.4375 L 464.214844 277.253906 L 464.636719 278.5 L 465.054688 276.699219 L 465.472656 273.023438 L 465.894531 272.746094 L 466.3125 275.449219 L 466.734375 272.191406 L 467.152344 275.519531 L 467.570312 273.855469 L 467.992188 274.617188 L 468.410156 276.976562 L 468.832031 278.5 L 469.25 273.925781 L 469.667969 275.101562 L 470.089844 276.835938 L 470.507812 275.171875 L 470.929688 275.589844 L 471.347656 276.210938 L 471.765625 275.101562 L 472.1875 274.132812 L 472.605469 274.269531 L 473.027344 277.113281 L 473.445312 276.976562 L 473.863281 273.992188 L 474.285156 273.992188 L 474.703125 274.824219 L 475.125 275.796875 L 475.542969 275.171875 L 475.960938 276.765625 L 476.382812 258.671875 L 476.800781 131.105469 L 477.222656 31.132812 L 477.640625 28.5 L 478.058594 53.527344 L 478.480469 144 L 478.898438 184.28125 L 479.320312 187.054688 L 479.738281 194.679688 L 480.15625 214.230469 L 480.578125 219.640625 L 480.996094 240.785156 L 481.417969 247.09375 L 481.835938 253.195312 L 482.253906 255.066406 L 482.675781 254.929688 L 483.09375 252.710938 L 483.515625 258.742188 L 483.933594 259.503906 L 484.351562 260.472656 L 484.773438 263.734375 L 485.191406 268.308594 L 485.613281 264.425781 L 486.03125 259.574219 L 486.449219 264.496094 L 486.871094 266.230469 L 487.289062 267.894531 L 487.707031 266.785156 L 488.128906 265.605469 L 488.546875 270.597656 L 488.96875 266.644531 L 489.386719 268.378906 L 489.808594 267.40625 L 490.226562 269 L 490.644531 268.726562 L 491.066406 270.804688 L 491.484375 270.941406 L 491.902344 269.972656 L 492.324219 272.328125 L 492.742188 270.179688 L 493.164062 274.0625 L 493.582031 273.371094 L 494 271.84375 L 494.421875 271.359375 L 494.839844 272.261719 L 495.261719 271.082031 L 495.679688 274.480469 L 496.097656 273.785156 L 496.519531 272.675781 L 496.9375 273.507812 L 497.359375 272.675781 L 497.777344 274.0625 L 498.195312 273.714844 L 498.617188 273.855469 L 499.035156 271.21875 L 499.457031 267.960938 L 499.875 263.734375 L 500.296875 266.4375 L 500.714844 269.765625 L 501.132812 268.863281 L 501.554688 269.417969 L 501.972656 272.816406 L 502.390625 271.636719 L 502.8125 275.796875 L 503.230469 273.855469 L 503.652344 273.855469 L 504.070312 272.675781 L 504.488281 273.925781 L 504.910156 270.320312 L 505.328125 269.972656 L 505.75 272.050781 L 506.167969 271.429688 L 506.585938 274.546875 L 507.007812 273.023438 L 507.425781 272.328125 L 507.847656 271.914062 L 508.265625 278.5 L 508.683594 270.875 L 509.105469 270.941406 L 509.523438 269.972656 L 509.945312 274.203125 L 510.363281 272.816406 L 510.78125 274.269531 L 511.203125 275.378906 L 511.621094 277.460938 L 512.042969 273.160156 L 512.460938 275.796875 L 512.878906 276.421875 L 513.300781 274.410156 L 513.71875 273.714844 L 514.136719 274.6875 L 514.558594 275.867188 L 514.976562 269.625 L 515.398438 273.4375 L 515.816406 272.121094 L 516.238281 274.894531 L 516.65625 273.785156 L 517.074219 273.160156 L 517.496094 273.507812 L 517.914062 272.191406 L 518.332031 276.488281 L 518.753906 271.496094 L 519.171875 268.65625 L 519.59375 271.914062 L 520.011719 273.230469 L 520.433594 269.695312 L 520.851562 275.378906 L 521.269531 271.21875 L 521.691406 272.191406 L 522.109375 272.328125 L 522.527344 270.664062 L 522.949219 272.261719 L 523.367188 273.4375 L 523.789062 269.972656 L 524.207031 272.953125 L 524.625 274.824219 L 525.046875 277.042969 L 525.464844 273.4375 L 525.886719 273.09375 L 526.304688 273.09375 L 526.722656 274.410156 L 527.144531 275.101562 L 527.5625 274.203125 L 527.984375 275.171875 L 528.402344 277.113281 L 528.820312 274.617188 L 529.242188 275.035156 L 529.660156 276.003906 L 530.082031 274.480469 L 530.5 268.792969 L 530.917969 272.539062 L 531.339844 275.65625 L 531.757812 272.46875 L 532.179688 271.21875 L 532.597656 277.53125 L 533.015625 275.242188 L 533.4375 275.449219 L 533.855469 273.925781 L 534.277344 267.199219 L 534.695312 271.496094 L 535.113281 273.371094 L 535.535156 272.675781 L 535.953125 275.035156 L 536.375 274.0625 L 536.792969 273.785156 L 537.210938 272.882812 L 537.632812 273.160156 L 538.050781 273.992188 L 538.472656 272.050781 L 538.890625 273.925781 L 539.308594 272.191406 L 539.730469 269.902344 L 540.148438 273.160156 L 540.570312 273.300781 L 540.988281 274.6875 L 541.40625 273.4375 L 541.828125 273.160156 L 542.246094 276.558594 L 542.667969 273.992188 L 543.085938 271.914062 L 543.503906 272.605469 L 543.925781 274.339844 L 544.34375 276.488281 L 544.761719 274.0625 L 545.183594 274.617188 L 545.601562 274.894531 L 546.023438 275.378906 L 546.441406 274.546875 L 546.863281 274.546875 L 547.28125 274.203125 L 547.699219 275.449219 L 548.121094 275.378906 L 548.539062 274.410156 L 548.957031 275.796875 L 549.378906 274.480469 L 549.796875 275.171875 L 550.21875 274.894531 L 550.636719 271.082031 L 551.054688 274.546875 L 551.476562 271.84375 L 551.894531 278.5 L 552.316406 272.328125 L 552.734375 274.480469 L 553.152344 273.785156 L 553.574219 267.960938 L 553.992188 269.554688 L 554.414062 272.539062 L 554.832031 273.925781 L 555.25 271.566406 L 555.671875 274.824219 L 556.089844 274.894531 L 556.511719 274.824219 L 556.929688 275.171875 L 557.347656 274.269531 L 557.769531 273.300781 L 558.1875 271.566406 L 558.609375 271.152344 L 559.027344 269.554688 L 559.445312 275.171875 L 559.867188 271.636719 L 560.285156 275.035156 L 560.703125 273.300781 L 561.125 272.605469 L 561.542969 272.746094 L 561.964844 272.398438 L 562.382812 271.359375 L 562.804688 273.160156 L 563.222656 272.953125 L 563.640625 272.953125 L 564.0625 271.707031 L 564.480469 271.082031 L 564.902344 272.328125 L 565.320312 274.757812 L 565.738281 273.507812 L 566.160156 273.507812 L 566.578125 274.0625 L 567 272.746094 L 567.417969 274.824219 L 567.835938 272.261719 L 568.257812 272.746094 L 568.675781 273.785156 L 569.097656 271.289062 L 569.515625 272.953125 L 569.933594 272.816406 L 570.355469 273.925781 L 570.773438 273.160156 L 571.191406 273.785156 L 571.613281 269.210938 L 572.03125 272.746094 L 572.453125 273.785156 L 572.871094 272.539062 L 573.292969 274.132812 L 573.710938 272.816406 L 574.128906 278.5 L 574.550781 269 L 574.96875 266.296875 L 575.386719 272.953125 L 575.808594 270.527344 L 576.226562 267.960938 L 576.648438 272.605469 L 577.066406 273.648438 L 577.484375 274.132812 L 577.90625 275.589844 L 578.324219 271.566406 L 578.746094 269.902344 L 579.164062 268.171875 L 579.582031 273.023438 L 580.003906 271.84375 L 580.421875 272.746094 L 580.84375 272.882812 L 581.261719 271.011719 L 581.679688 272.882812 L 582.101562 262.207031 L 582.519531 273.4375 L 582.941406 274.894531 L 583.359375 273.371094 L 583.777344 273.714844 L 584.199219 273.4375 L 584.617188 272.746094 L 585.039062 273.300781 L 585.457031 271.496094 L 585.875 273.507812 L 586.296875 271.429688 L 586.714844 270.734375 L 587.136719 271.011719 L 587.554688 270.457031 L 587.972656 272.953125 L 588.394531 274.0625 L 588.8125 271.082031 L 589.234375 270.734375 L 589.652344 272.191406 L 590.070312 272.328125 L 590.492188 273.507812 L 590.910156 274.546875 L 591.328125 274.894531 L 591.75 272.816406 L 592.167969 274.410156 L 592.589844 270.804688 L 593.007812 271.914062 L 593.429688 266.296875 L 593.847656 271.359375 L 594.265625 272.953125 L 594.6875 265.8125 L 595.105469 272.816406 L 595.527344 271.773438 L 595.945312 271.773438 L 596.363281 272.398438 L 596.785156 273.992188 L 597.203125 273.300781 L 597.621094 272.191406 L 598.042969 272.539062 L 598.460938 272.398438 L 598.882812 270.734375 L 599.300781 272.675781 L 599.722656 278.5 L 600.140625 266.644531 L 600.558594 270.527344 L 600.980469 269.972656 L 601.398438 271.984375 L 601.816406 269.695312 L 602.238281 274.339844 L 602.65625 273.160156 L 603.078125 271.984375 L 603.496094 271.566406 L 603.914062 271.21875 L 604.335938 274.410156 L 604.753906 270.457031 L 605.175781 273.648438 L 605.59375 273.785156 L 606.011719 273.714844 L 606.433594 272.539062 L 606.851562 269.488281 L 607.273438 272.605469 L 607.691406 268.863281 L 608.109375 270.527344 L 608.53125 271.566406 L 608.949219 270.179688 L 609.371094 268.449219 L 609.789062 271.496094 L 610.207031 269.070312 L 610.628906 271.84375 L 611.046875 271.566406 L 611.46875 273.160156 L 611.886719 271.359375 L 612.304688 269.695312 L 612.726562 274.894531 L 613.144531 270.457031 L 613.566406 271.429688 L 613.984375 273.023438 L 614.402344 278.5 L 614.824219 272.816406 L 615.242188 271.359375 L 615.664062 271.636719 L 616.082031 273.578125 L 616.5 268.171875 L 616.921875 269.972656 L 617.339844 270.25 L 617.757812 271.566406 L 618.179688 268.726562 L 618.597656 278.5 L 619.019531 271.496094 L 619.4375 272.191406 L 619.859375 270.597656 L 620.277344 269.832031 L 620.695312 271.289062 L 621.117188 269.765625 L 621.535156 271.082031 L 621.957031 272.191406 L 622.375 272.816406 L 622.792969 273.4375 L 623.214844 273.09375 L 623.632812 274.203125 L 624.050781 271.914062 L 624.472656 269.625 L 624.890625 270.804688 L 625.3125 266.851562 L 625.730469 269.417969 L 626.152344 269.140625 L 626.570312 271.707031 L 626.988281 271.636719 L 627.410156 270.320312 L 627.828125 273.714844 L 628.246094 272.539062 L 628.667969 272.46875 L 629.085938 271.289062 L 629.507812 272.050781 L 629.925781 278.5 L 630.34375 270.664062 L 630.765625 272.816406 L 631.183594 273.925781 L 631.605469 267.546875 L 632.023438 270.109375 L 632.441406 264.632812 L 632.863281 273.925781 L 633.28125 270.527344 L 633.703125 270.941406 L 634.121094 274.0625 L 634.539062 274.617188 L 634.960938 266.367188 L 635.378906 270.664062 L 635.800781 272.953125 L 636.21875 273.785156 L 636.636719 272.746094 L 637.058594 270.320312 L 637.476562 271.566406 L 637.898438 273.023438 L 638.316406 271.84375 L 638.734375 274.269531 L 639.15625 272.605469 L 639.574219 272.816406 L 639.996094 275.933594 L 640.414062 274.480469 L 640.832031 274.410156 L 641.253906 272.121094 L 641.671875 269.625 L 642.09375 273.160156 L 642.511719 273.4375 L 642.929688 270.527344 L 643.351562 271.152344 L 643.769531 271.707031 L 644.1875 272.953125 L 644.609375 267.960938 L 645.027344 270.457031 L 645.449219 271.707031 L 645.867188 273.578125 L 646.289062 272.953125 L 646.707031 272.605469 L 647.125 271.773438 L 647.546875 270.734375 L 647.964844 272.746094 L 648.386719 273.230469 L 648.804688 271.152344 L 649.222656 267.269531 L 649.644531 272.882812 L 650.0625 273.992188 L 650.480469 269.140625 L 650.902344 276.003906 L 651.320312 271.636719 L 651.742188 272.328125 L 652.160156 266.507812 L 652.582031 271.011719 L 653 273.648438 L 653.417969 273.160156 L 653.839844 269.695312 L 654.257812 272.050781 L 654.675781 272.328125 L 655.097656 272.328125 L 655.515625 271.84375 L 655.9375 275.3125 L 656.355469 273.300781 L 656.773438 272.605469 L 657.195312 273.507812 L 657.613281 273.4375 L 658.035156 271.082031 L 658.453125 271.496094 L 658.871094 270.804688 L 659.292969 271.636719 L 659.710938 270.664062 L 660.132812 264.910156 L 660.550781 273.578125 L 660.96875 273.925781 L 661.390625 274.894531 L 661.808594 273.925781 L 662.230469 266.921875 L 662.648438 271.566406 L 663.066406 271.566406 L 663.488281 272.46875 L 663.90625 275.101562 L 664.328125 273.09375 L 664.746094 269.972656 L 665.164062 269.210938 L 665.585938 273.300781 L 666.003906 270.734375 L 666.425781 269 L 666.84375 273.160156 L 667.261719 271.289062 L 667.683594 271.359375 L 668.101562 273.023438 L 668.523438 274.0625 L 668.941406 274.546875 L 669.359375 272.261719 L 669.78125 272.191406 L 670.199219 267.40625 L 670.617188 271.289062 L 671.039062 271.773438 L 671.457031 273.230469 L 671.878906 271.082031 L 672.296875 270.179688 L 672.71875 270.941406 L 673.136719 272.953125 L 673.554688 271.773438 L 673.976562 273.09375 L 674.394531 271.914062 L 674.8125 272.675781 L 675.234375 273.578125 L 675.652344 269.695312 L 676.074219 264.355469 L 676.492188 269.902344 L 676.914062 272.050781 L 677.332031 269.488281 L 677.75 273.371094 L 678.171875 272.882812 L 678.589844 274.132812 L 679.011719 270.941406 L 679.429688 273.855469 L 679.847656 272.191406 L 680.269531 270.457031 L 680.6875 272.539062 L 681.105469 266.785156 L 681.527344 270.664062 L 681.945312 273.648438 L 682.367188 270.527344 L 682.785156 269.695312 L 683.203125 275.101562 L 683.625 273.578125 L 684.042969 278.5 L 684.464844 271.914062 L 684.882812 272.398438 L 685.300781 271.359375 L 685.722656 271.152344 L 686.140625 273.507812 L 686.5625 270.941406 L 686.980469 271.773438 L 687.398438 274.410156 L 687.820312 270.597656 L 688.238281 273.09375 L 688.660156 271.082031 L 689.078125 271.011719 L 689.496094 272.882812 L 689.917969 267.199219 L 690.335938 272.191406 L 690.757812 272.746094 L 691.175781 273.4375 L 691.59375 273.648438 L 692.015625 277.113281 L 692.433594 270.734375 L 692.855469 266.851562 L 693.273438 270.179688 L 693.691406 272.191406 L 694.113281 274.0625 L 694.53125 271.082031 L 694.953125 273.09375 L 695.371094 269.554688 L 695.789062 272.328125 L 696.210938 274.894531 L 696.628906 272.882812 L 697.046875 273.300781 L 697.46875 272.46875 L 697.886719 273.648438 L 698.308594 272.46875 L 698.726562 272.191406 L 699.148438 273.578125 L 699.566406 271.566406 L 699.984375 273.785156 L 700.40625 273.371094 L 700.824219 275.796875 L 701.242188 272.675781 L 701.664062 273.230469 L 702.082031 269.765625 L 702.503906 271.566406 L 702.921875 270.941406 L 703.34375 272.953125 L 703.761719 270.734375 L 704.179688 271.707031 L 704.601562 271.359375 L 705.019531 275.171875 L 705.441406 273.714844 L 705.859375 269.625 L 706.277344 273.160156 L 706.699219 272.675781 L 707.117188 270.734375 L 707.535156 273.09375 L 707.957031 271.566406 L 708.375 270.25 L 708.796875 272.746094 L 709.214844 273.992188 L 709.632812 272.539062 L 710.054688 271.984375 L 710.472656 272.121094 L 710.894531 272.605469 L 711.3125 269.554688 L 711.730469 272.191406 L 712.152344 272.882812 L 712.570312 266.230469 L 712.992188 272.882812 L 713.410156 272.261719 L 713.828125 269.488281 L 714.25 270.875 L 714.667969 271.082031 L 715.089844 271.496094 L 715.507812 272.328125 L 715.925781 271.359375 L 716.347656 277.042969 L 716.765625 276.699219 L 717.1875 274.203125 L 717.605469 271.011719 L 718.023438 273.507812 L 718.445312 271.359375 L 718.863281 266.296875 L 719.285156 271.914062 L 719.703125 275.867188 L 720.121094 273.714844 L 720.542969 272.050781 L 720.960938 274.617188 L 721.382812 268.238281 L 721.800781 273.300781 L 722.21875 271.773438 L 722.640625 271.429688 L 723.058594 273.785156 L 723.476562 272.398438 L 723.898438 272.605469 L 724.316406 278.5 L 724.738281 272.675781 L 725.15625 271.496094 L 725.578125 274.203125 L 725.996094 271.429688 L 726.414062 271.984375 L 726.835938 275.449219 L 727.253906 274.203125 L 727.671875 274.617188 L 728.09375 271.984375 L 728.511719 271.914062 L 728.933594 268.449219 L 729.351562 272.328125 L 729.773438 271.773438 L 730.191406 271.082031 L 730.609375 271.21875 L 731.03125 273.648438 L 731.449219 274.546875 L 731.871094 273.855469 L 732.289062 274.132812 L 732.707031 273.648438 L 733.128906 271.289062 L 733.546875 271.152344 L 733.964844 268.585938 L 734.386719 272.46875 L 734.804688 270.804688 L 735.226562 273.785156 L 735.644531 278.5 L 736.066406 271.429688 L 736.484375 267.476562 L 736.902344 272.261719 L 737.324219 273.507812 L 737.742188 273.507812 L 738.160156 271.152344 L 738.582031 267.683594 L 739 272.050781 L 739.421875 273.578125 L 739.839844 272.882812 L 740.257812 272.746094 L 740.679688 269.695312 L 741.097656 273.578125 L 741.519531 272.261719 L 741.9375 268.726562 L 742.355469 272.953125 L 742.777344 273.578125 L 743.195312 273.507812 L 743.617188 274.0625 L 744.035156 272.816406 L 744.453125 269.277344 L 744.875 271.429688 L 745.292969 273.785156 L 745.714844 271.496094 L 746.132812 273.578125 L 746.550781 271.984375 L 746.972656 273.578125 L 747.390625 270.527344 L 747.8125 272.605469 L 748.230469 273.023438 L 748.648438 271.914062 L 749.070312 269.625 L 749.488281 269.972656 L 749.910156 271.152344 L 750.328125 271.21875 L 750.746094 271.289062 L 751.167969 273.371094 L 751.585938 268.515625 L 752.007812 271.84375 L 752.425781 272.816406 L 752.84375 273.160156 L 753.265625 274.410156 L 753.683594 275.035156 L 754.101562 267.824219 L 754.523438 269.902344 L 754.941406 271.566406 L 755.363281 275.242188 L 755.78125 272.46875 L 756.203125 275.519531 L 756.621094 272.261719 L 757.039062 272.816406 L 757.460938 272.675781 L 757.878906 269.625 L 758.296875 272.605469 L 758.71875 274.617188 L 759.136719 272.539062 L 759.558594 273.230469 L 759.976562 271.429688 L 760.394531 273.992188 L 760.816406 272.953125 L 761.234375 270.527344 L 761.65625 272.605469 L 762.074219 274.132812 L 762.496094 270.875 L 762.914062 274.0625 L 763.332031 269.417969 L 763.753906 273.09375 L 764.171875 271.84375 L 764.589844 273.160156 L 765.011719 272.746094 L 765.429688 271.707031 L 765.851562 270.457031 L 766.269531 272.816406 L 766.6875 275.035156 L 767.109375 271.082031 L 767.527344 272.882812 L 767.949219 271.21875 L 768.367188 270.386719 L 768.785156 271.84375 L 769.207031 275.035156 L 769.625 274.546875 L 770.046875 273.4375 L 770.464844 273.023438 L 770.882812 271.84375 L 771.304688 268.863281 L 771.722656 273.578125 L 772.144531 272.46875 L 772.5625 273.230469 L 772.980469 273.300781 L 773.402344 271.429688 L 773.820312 273.785156 L 774.242188 273.785156 L 774.660156 271.773438 L 775.078125 270.804688 L 775.5 273.023438 L 775.917969 272.882812 L 776.339844 271.082031 L 776.757812 278.5 L 777.175781 272.328125 L 777.597656 271.984375 L 778.015625 272.121094 L 778.4375 272.882812 L 778.855469 269.625 L 779.273438 278.5 L 779.695312 268.308594 L 780.113281 269.765625 L 780.53125 269 L 780.953125 272.816406 L 781.371094 272.191406 L 781.792969 273.785156 L 782.210938 268.378906 L 782.632812 269.277344 L 783.050781 270.875 L 783.46875 275.449219 L 783.890625 272.816406 L 784.308594 271.773438 L 784.726562 271.636719 L 785.148438 272.050781 L 785.566406 271.636719 L 785.988281 273.160156 L 786.40625 273.230469 L 786.824219 273.785156 L 787.246094 269.902344 L 787.664062 273.714844 L 788.085938 269.140625 L 788.503906 273.4375 L 788.925781 274.269531 L 789.34375 271.082031 L 789.761719 271.914062 L 790.183594 270.875 L 790.601562 273.648438 L 791.019531 274.0625 L 791.441406 273.160156 L 791.859375 271.707031 L 792.28125 268.308594 L 792.699219 273.300781 L 793.117188 272.398438 L 793.539062 272.675781 L 793.957031 273.507812 L 794.378906 270.597656 L 794.796875 271.566406 L 795.214844 269 L 795.636719 271.082031 L 796.054688 271.914062 L 796.476562 265.953125 L 796.894531 270.179688 L 797.3125 270.664062 L 797.734375 272.539062 L 798.152344 272.675781 L 798.574219 272.46875 L 798.992188 274.894531 L 799.410156 274.480469 L 799.832031 272.46875 L 800.25 272.675781 L 800.671875 268.726562 L 801.089844 275.035156 L 801.507812 273.992188 L 801.929688 274.480469 L 802.347656 269.210938 L 802.769531 269.902344 L 803.1875 271.566406 L 803.605469 270.597656 L 804.027344 274.269531 L 804.445312 278.5 L 804.867188 272.539062 L 805.285156 271.566406 L 805.703125 272.261719 L 806.125 271.84375 L 806.542969 272.816406 L 806.960938 272.328125 L 807.382812 270.042969 L 807.800781 273.371094 L 808.222656 274.546875 L 808.640625 274.132812 L 809.0625 274.546875 L 809.480469 277.183594 L 809.898438 272.882812 L 810.320312 275.378906 L 810.738281 274.6875 L 811.15625 275.101562 L 811.578125 274.617188 L 811.996094 270.457031 L 812.417969 273.507812 L 812.835938 276.003906 L 813.253906 272.746094 L 813.675781 274.339844 L 814.09375 278.5 L 814.515625 273.925781 L 814.933594 272.46875 L 815.355469 273.507812 L 815.773438 273.714844 L 816.191406 272.121094 L 816.613281 271.914062 L 817.03125 270.597656 L 817.449219 273.992188 L 817.871094 273.648438 L 818.289062 272.605469 L 818.710938 277.183594 L 819.128906 278.5 L 819.546875 278.5 L 819.96875 271.84375 L 820.386719 272.953125 L 820.808594 269.765625 L 821.226562 270.734375 L 821.644531 271.011719 L 822.066406 272.605469 L 822.484375 277.320312 L 822.90625 278.5 L 823.324219 277.042969 L 823.742188 274.132812 L 824.164062 273.023438 L 824.582031 273.160156 L 825.003906 272.675781 L 825.421875 273.855469 L 825.839844 273.714844 L 826.261719 272.882812 L 826.679688 273.714844 L 827.101562 271.152344 L 827.519531 273.160156 L 827.9375 273.300781 L 828.359375 272.261719 L 828.777344 272.605469 L 829.199219 274.132812 L 829.617188 273.507812 L 830.035156 273.230469 L 830.457031 270.179688 L 830.875 271.84375 L 831.296875 271.84375 L 831.714844 273.4375 L 832.132812 270.527344 L 832.554688 270.597656 L 832.972656 271.566406 L 833.390625 271.566406 L 833.8125 273.023438 L 834.230469 271.429688 L 834.652344 274.410156 L 835.070312 275.65625 L 835.492188 274.203125 L 835.910156 273.855469 L 836.328125 273.578125 L 836.75 272.261719 L 837.167969 273.023438 L 837.585938 270.527344 L 838.007812 274.480469 L 838.425781 270.109375 L 838.847656 272.121094 L 839.265625 267.824219 L 839.6875 271.984375 L 840.105469 270.664062 L 840.523438 273.855469 L 840.945312 271.566406 L 841.363281 271.636719 L 841.78125 274.410156 L 842.203125 268.378906 L 842.621094 273.371094 L 843.042969 269 L 843.460938 272.539062 L 843.878906 270.734375 L 844.300781 276.835938 L 844.71875 275.933594 L 845.140625 273.371094 L 845.558594 271.914062 L 845.976562 271.707031 L 846.398438 271.566406 L 846.816406 269.417969 L 847.238281 273.855469 L 847.65625 274.339844 L 848.074219 271.21875 L 848.496094 274.480469 L 848.914062 271.566406 L 849.335938 272.675781 L 849.753906 270.109375 L 850.171875 271.289062 L 850.59375 270.25 L 851.011719 273.09375 L 851.433594 271.636719 L 851.851562 271.496094 L 852.269531 275.242188 L 852.691406 274.0625 L 853.109375 273.300781 L 853.53125 275.378906 L 853.949219 273.300781 L 854.367188 275.378906 L 854.789062 269.554688 L 855.207031 270.875 L 855.628906 272.328125 L 856.046875 271.429688 L 856.464844 275.519531 L 856.886719 278.5 L 857.304688 271.773438 L 857.726562 267.128906 L 858.144531 266.785156 L 858.5625 271.289062 L 858.984375 274.132812 L 859.402344 272.121094 L 859.820312 269.140625 L 860.242188 272.675781 L 860.660156 271.984375 L 861.082031 271.984375 L 861.5 273.648438 L 861.921875 277.597656 L 862.339844 272.675781 L 862.757812 271.496094 L 863.179688 271.636719 L 863.597656 274.410156 L 864.015625 274.410156 L 864.4375 270.597656 L 864.855469 269.277344 L 865.277344 271.152344 L 865.695312 274.617188 L 866.117188 273.578125 L 866.535156 273.300781 L 866.953125 271.914062 L 867.375 273.648438 L 867.792969 274.6875 L 868.210938 270.042969 L 868.632812 270.875 L 869.050781 272.191406 L 869.472656 274.269531 L 869.890625 271.359375 L 870.308594 271.84375 L 870.730469 271.707031 L 871.148438 273.09375 L 871.570312 271.082031 L 871.988281 271.496094 L 872.40625 273.300781 L 872.828125 273.992188 L 873.246094 274.132812 L 873.667969 273.785156 L 874.085938 273.578125 L 874.503906 274.339844 L 874.925781 274.757812 L 875.34375 275.242188 L 875.765625 276.699219 L 876.183594 271.359375 L 876.601562 272.398438 L 877.023438 272.191406 L 877.441406 270.941406 L 877.863281 272.261719 L 878.28125 270.457031 L 878.699219 274.617188 L 879.121094 274.6875 L 879.539062 270.527344 L 879.960938 273.09375 L 880.378906 273.507812 L 880.796875 274.339844 L 881.21875 272.46875 L 881.636719 271.359375 L 882.058594 272.328125 L 882.476562 266.019531 L 882.894531 274.546875 L 883.316406 273.992188 L 883.734375 276.90625 L 884.15625 278.5 L 884.574219 271.707031 L 884.992188 272.675781 L 885.414062 271.914062 L 885.832031 273.855469 L 886.25 271.773438 L 886.671875 272.261719 L 887.089844 272.953125 L 887.511719 272.398438 L 887.929688 274.757812 L 888.351562 273.714844 L 888.769531 264.566406 L 889.1875 275.242188 L 889.609375 271.082031 L 890.027344 273.855469 L 890.445312 273.785156 L 890.867188 275.519531 L 891.285156 272.191406 L 891.707031 273.371094 L 892.125 269.832031 L 892.546875 272.398438 L 892.964844 268.726562 L 893.382812 272.398438 L 893.804688 270.875 L 894.222656 271.082031 L 894.640625 267.40625 L 895.0625 272.675781 L 895.480469 269 L 895.902344 272.882812 L 896.320312 269.554688 L 896.738281 277.390625 L 897.160156 272.050781 L 897.578125 272.328125 L 898 270.597656 L 898.417969 273.785156 L 898.839844 273.300781 L 899.257812 272.539062 L 899.675781 272.261719 L 900.097656 272.261719 L 900.515625 270.179688 L 900.933594 273.160156 L 901.355469 272.953125 L 901.773438 272.882812 L 902.195312 270.320312 L 902.613281 273.160156 L 903.03125 273.507812 L 903.453125 271.429688 L 903.871094 274.132812 L 904.292969 269.210938 L 904.710938 271.496094 L 905.128906 270.527344 L 905.550781 278.5 L 905.96875 271.429688 L 906.390625 270.320312 L 906.808594 272.816406 L 907.226562 270.734375 L 907.648438 272.328125 L 908.066406 272.953125 L 908.488281 271.914062 L 908.90625 271.914062 L 909.324219 271.984375 L 909.746094 271.773438 L 910.164062 272.882812 L 910.585938 272.675781 L 911.003906 270.734375 L 911.421875 272.605469 L 911.84375 273.371094 L 912.261719 273.230469 L 912.683594 270.527344 L 913.101562 273.785156 L 913.519531 272.191406 L 913.941406 273.160156 L 914.359375 269.210938 L 914.78125 278.5 L 915.199219 271.914062 L 915.617188 271.429688 L 916.039062 271.21875 L 916.457031 271.984375 L 916.875 274.546875 L 917.296875 270.320312 L 917.714844 271.566406 L 918.136719 273.785156 L 918.554688 272.46875 L 918.976562 274.546875 L 919.394531 273.714844 L 919.8125 272.050781 L 920.234375 270.597656 L 920.652344 273.4375 L 921.070312 271.496094 L 921.492188 273.09375 L 921.910156 271.21875 L 922.332031 271.289062 L 922.75 274.894531 L 923.167969 270.25 L 923.589844 270.320312 L 924.007812 272.746094 L 924.429688 273.371094 L 924.847656 274.617188 L 925.265625 271.011719 L 925.6875 271.289062 L 926.105469 275.726562 L 926.527344 272.539062 L 926.945312 273.507812 L 927.363281 269.488281 L 927.785156 270.457031 L 928.203125 273.300781 L 928.625 278.5 L 929.042969 278.5 L 929.460938 272.882812 L 929.882812 272.605469 L 930.300781 272.46875 L 930.722656 271.84375 L 931.140625 270.179688 L 931.558594 270.25 L 931.980469 271.566406 L 932.398438 270.734375 L 932.820312 272.675781 L 933.238281 272.261719 L 933.65625 273.714844 L 934.078125 271.011719 L 934.496094 272.46875 L 934.917969 275.101562 L 935.335938 267.683594 L 935.753906 270.179688 L 936.175781 272.953125 L 936.59375 273.714844 L 937.015625 272.46875 L 937.433594 273.855469 L 937.851562 271.21875 L 938.273438 273.578125 L 938.691406 273.09375 L 939.113281 272.816406 L 939.53125 278.5 L 939.949219 278.5 L 940.371094 274.0625 L 940.789062 271.082031 L 941.210938 273.507812 L 941.628906 272.539062 L 942.046875 276.835938 L 942.46875 273.4375 L 942.886719 271.773438 L 943.304688 274.964844 L 943.726562 271.773438 L 944.144531 271.566406 L 944.566406 270.109375 L 944.984375 270.320312 L 945.40625 272.46875 L 945.824219 270.734375 L 946.242188 272.398438 L 946.664062 272.605469 L 947.082031 273.160156 L 947.5 271.429688 L 947.921875 275.171875 L 948.339844 275.171875 L 948.761719 272.746094 L 949.179688 271.359375 L 949.597656 273.785156 L 950.019531 273.230469 L 950.4375 271.914062 L 950.859375 272.675781 L 951.277344 271.984375 L 951.695312 272.191406 L 952.117188 271.84375 L 952.535156 274.269531 L 952.957031 267.0625 L 953.375 271.707031 L 953.792969 274.964844 L 954.214844 273.855469 L 954.632812 273.507812 L 955.054688 272.328125 L 955.472656 271.496094 L 955.890625 270.941406 L 956.3125 272.539062 L 956.730469 274.410156 L 957.152344 271.359375 L 957.570312 271.636719 L 957.988281 271.566406 L 958.410156 269.210938 L 958.828125 272.121094 L 959.25 270.664062 L 959.667969 268.726562 L 960.085938 272.398438 L 960.507812 273.855469 L 960.925781 274.132812 L 961.347656 272.121094 L 961.765625 274.546875 L 962.183594 273.300781 L 962.605469 273.09375 L 963.023438 270.386719 L 963.445312 274.203125 L 963.863281 271.359375 L 964.28125 273.855469 L 964.703125 274.269531 L 965.121094 271.359375 L 965.542969 274.0625 L 965.960938 269.902344 L 966.378906 272.953125 L 966.800781 271.082031 L 967.21875 272.953125 L 967.640625 268.449219 L 968.058594 272.882812 L 968.476562 274.339844 L 968.898438 272.675781 L 969.316406 272.746094 L 969.734375 274.339844 L 970.15625 272.953125 L 970.574219 274.132812 L 970.996094 271.773438 L 971.414062 273.714844 L 971.835938 270.527344 L 972.253906 273.230469 L 972.671875 274.894531 L 973.09375 273.371094 L 973.511719 272.328125 L 973.929688 266.921875 L 974.351562 272.261719 L 974.769531 272.816406 L 975.191406 271.636719 L 975.609375 270.320312 L 976.027344 274.132812 L 976.449219 271.84375 L 976.867188 272.46875 L 977.289062 270.042969 L 977.707031 270.734375 L 978.125 270.320312 L 978.546875 272.261719 L 978.964844 272.191406 L 979.386719 277.183594 L 979.804688 271.636719 L 980.222656 273.300781 L 980.644531 273.855469 L 981.0625 273.230469 L 981.484375 273.578125 L 981.902344 273.371094 L 982.320312 270.527344 L 982.742188 271.289062 L 983.160156 272.816406 L 983.582031 278.5 L 984 273.230469 "/>
</g>
<path fill="none" stroke-width="1" stroke-linecap="butt" stroke-linejoin="miter" stroke="rgb(0%, 0%, 0%)" stroke-opacity="1" stroke-miterlimit="1.154701" d="M 108.535156 291.5 L 108.535156 296.5 "/>
<path fill="none" stroke-width="1" stroke-linecap="butt" stroke-linejoin="miter" stroke="rgb(0%, 0%, 0%)" stroke-opacity="1" stroke-miterlimit="1.154701" d="M 143.984375 291.5 L 143.984375 296.5 "/>
<path fill="none" stroke-width="1" stroke-linecap="butt" stroke-linejoin="miter" stroke="rgb(0%, 0%, 0%)" stroke-opacity="1" stroke-miterlimit="1.154701" d="M 179.429688 291.5 L 179.429688 296.5 "/>
<path fill="none" stroke-width="1" stroke-linecap="butt" stroke-linejoin="miter" stroke="rgb(0%, 0%, 0%)" stroke-opacity="1" stroke-miterlimit="1.154701" d="M 214.875 291.5 L 214.875 296.5 "/>
<path fill="none" stroke-width="1" stroke-linecap="butt" stroke-linejoin="miter" stroke="rgb(0%, 0%, 0%)" stroke-opacity="1" stroke-miterlimit="1.154701" d="M 250.324219 291.5 L 250.324219 296.5 "/>
<path fill="none" stroke-width="1" stroke-linecap="butt" stroke-linejoin="miter" stroke="rgb(0%, 0%, 0%)" stroke-opacity="1" stroke-miterlimit="1.154701" d="M 285.769531 291.5 L 285.769531 296.5 "/>
<path fill="none" stroke-width="1" stroke-linecap="butt" stroke-linejoin="miter" stroke="rgb(0%, 0%, 0%)" stroke-opacity="1" stroke-miterlimit="1.154701" d="M 321.214844 291.5 L 321.214844 296.5 "/>
<path fill="none" stroke-width="1" stroke-linecap="butt" stroke-linejoin="miter" stroke="rgb(0%, 0%, 0%)" stroke-opacity="1" stroke-miterlimit="1.154701" d="M 356.664062 291.5 L 356.664062 296.5 "/>
<path fill="none" stroke-width="1" stroke-linecap="butt" stroke-linejoin="miter" stroke="rgb(0%, 0%, 0%)" stroke-opacity="1" stroke-miterlimit="1.154701" d="M 392.109375 291.5 L 392.109375 296.5 "/>
<path fill="none" stroke-width="1" stroke-linecap="butt" stroke-linejoin="miter" stroke="rgb(0%, 0%, 0%)" stroke-opacity="1" stroke-miterlimit="1.154701" d="M 427.558594 291.5 L 427.558594 296.5 "/>
<path fill="none" stroke-width="1" stroke-linecap="butt" stroke-linejoin="miter" stroke="rgb(0%, 0%, 0%)" stroke-opacity="1" stroke-miterlimit="1.154701" d="M 463.003906 291.5 L 463.003906 296.5 "/>
<path fill="none" stroke-width="1" stroke-linecap="butt" stroke-linejoin="miter" stroke="rgb(0%, 0%, 0%)" stroke-opacity="1" stroke-miterlimit="1.154701" d="M 498.449219 291.5 L 498.449219 296.5 "/>
<path fill="none" stroke-width="1" stroke-linecap="butt" stroke-linejoin="miter" stroke="rgb(0%, 0%, 0%)" stroke-opacity="1" stroke-miterlimit="1.154701" d="M 533.898438 291.5 L 533.898438 296.5 "/>
<path fill="none" stroke-width="1" stroke-linecap="butt" stroke-linejoin="miter" stroke="rgb(0%, 0%, 0%)" stroke-opacity="1" stroke-miterlimit="1.154701" d="M 569.34375 291.5 L 569.34375 296.5 "/>
<path fill="none" stroke-width="1" stroke-linecap="butt" stroke-linejoin="miter" stroke="rgb(0%, 0%, 0%)" stroke-opacity="1" stroke-miterlimit="1.154701" d="M 604.789062 291.5 L 604.789062 296.5 "/>
<path fill="none" stroke-width="1" stroke-linecap="butt" stroke-linejoin="miter" stroke="rgb(0%, 0%, 0%)" stroke-opacity="1" stroke-miterlimit="1.154701" d="M 640.238281 291.5 L 640.238281 296.5 "/>
<path fill="none" stroke-width="1" stroke-linecap="butt" stroke-linejoin="miter" stroke="rgb(0%, 0%, 0%)" stroke-opacity="1" stroke-miterlimit="1.154701" d="M 675.683594 291.5 L 675.683594 296.5 "/>
<path fill="none" stroke-width="1" stroke-linecap="butt" stroke-linejoin="miter" stroke="rgb(0%, 0%, 0%)" stroke-opacity="1" stroke-miterlimit="1.154701" d="M 711.132812 291.5 L 711.132812 296.5 "/>
<path fill="none" stroke-width="1" stroke-linecap="butt" stroke-linejoin="miter" stroke="rgb(0%, 0%, 0%)" stroke-opacity="1" stroke-miterlimit="1.154701" d="M 746.578125 291.5 L 746.578125 296.5 "/>
<path fill="none" stroke-width="1" stroke-linecap="butt" stroke-linejoin="miter" stroke="rgb(0%, 0%, 0%)" stroke-opacity="1" stroke-miterlimit="1.154701" d="M 782.023438 291.5 L 782.023438 296.5 "/>
<path fill="none" stroke-width="1" stroke-linecap="butt" stroke-linejoin="miter" stroke="rgb(0%, 0%, 0%)" stroke-opacity="1" stroke-miterlimit="1.154701" d="M 817.472656 291.5 L 817.472656 296.5 "/>
<path fill="none" stroke-width="1" stroke-linecap="butt" stroke-linejoin="miter" stroke="rgb(0%, 0%, 0%)" stroke-opacity="1" stroke-miterlimit="1.154701" d="M 852.917969 291.5 L 852.917969 296.5 "/>
<path fill="none" stroke-width="1" stroke-linecap="butt" stroke-linejoin="miter" stroke="rgb(0%, 0%, 0%)" stroke-opacity="1" stroke-miterlimit="1.154701" d="M 888.367188 291.5 L 888.367188 296.5 "/>
<path fill="none" stroke-width="1" stroke-linecap="butt" stroke-linejoin="miter" stroke="rgb(0%, 0%, 0%)" stroke-opacity="1" stroke-miterlimit="1.154701" d="M 923.8125 291.5 L 923.8125 296.5 "/>
<path fill="none" stroke-width="1" stroke-linecap="butt" stroke-linejoin="miter" stroke="rgb(0%, 0%, 0%)" stroke-opacity="1" stroke-miterlimit="1.154701" d="M 959.257812 291.5 L 959.257812 296.5 "/>
<path fill="none" stroke-width="1" stroke-linecap="butt" stroke-linejoin="miter" stroke="rgb(0%, 0%, 0%)" stroke-opacity="1" stroke-miterlimit="1.154701" d="M 76.5 278.5 L 71.5 278.5 "/>
<path fill="none" stroke-width="1" stroke-linecap="butt" stroke-linejoin="miter" stroke="rgb(0%, 0%, 0%)" stroke-opacity="1" stroke-miterlimit="1.154701" d="M 76.5 186.492188 L 71.5 186.492188 "/>
<path fill="none" stroke-width="1" stroke-linecap="butt" stroke-linejoin="miter" stroke="rgb(0%, 0%, 0%)" stroke-opacity="1" stroke-miterlimit="1.154701" d="M 76.5 94.488281 L 71.5 94.488281 "/>
<path fill="none" stroke-width="1" stroke-linecap="butt" stroke-linejoin="miter" stroke="rgb(0%, 0%, 0%)" stroke-opacity="1" stroke-miterlimit="1.154701" d="M 76.5 291 L 984.5 291 "/>
<path fill="none" stroke-width="1" stroke-linecap="butt" stroke-linejoin="miter" stroke="rgb(0%, 0%, 0%)" stroke-opacity="1" stroke-miterlimit="1.154701" d="M 77 291.5 L 77 15.5 "/>
<path fill="none" stroke-width="1" stroke-linecap="butt" stroke-linejoin="miter" stroke="rgb(0%, 0%, 0%)" stroke-opacity="1" stroke-miterlimit="1.154701" d="M 76.5 16 L 984.5 16 "/>
<path fill="none" stroke-width="1" stroke-linecap="butt" stroke-linejoin="miter" stroke="rgb(0%, 0%, 0%)" stroke-opacity="1" stroke-miterlimit="1.154701" d="M 984 291.5 L 984 15.5 "/>
</svg>
