<?xml version="1.0" encoding="UTF-8"?>
<svg xmlns="http://www.w3.org/2000/svg" xmlns:xlink="http://www.w3.org/1999/xlink" width="1200" height="600" viewBox="0 0 1200 600">
<defs>
<g>
<g id="glyph-0-0-21b0292d">
<path d="M 9.21875 0 C 9.21875 0 7.671875 0 7.671875 0 C 7.671875 0 4.078125 -5.234375 4.078125 -5.234375 C 4.078125 -5.234375 2.40625 -3.5625 2.40625 -3.5625 C 2.40625 -3.5625 2.40625 0 2.40625 0 C 2.40625 0 1.109375 0 1.109375 0 C 1.109375 0 1.109375 -10.203125 1.109375 -10.203125 C 1.109375 -10.203125 2.40625 -10.203125 2.40625 -10.203125 C 2.40625 -10.203125 2.40625 -5.046875 2.40625 -5.046875 C 2.40625 -5.046875 7.484375 -10.203125 7.484375 -10.203125 C 7.484375 -10.203125 9.171875 -10.203125 9.171875 -10.203125 C 9.171875 -10.203125 5.015625 -6.046875 5.015625 -6.046875 C 5.015625 -6.046875 9.21875 0 9.21875 0 Z M 9.21875 0 "/>
</g>
<g id="glyph-0-1-21b0292d">
<path d="M 7.140625 -3.609375 C 7.140625 -1.203125 5.875 0.203125 3.828125 0.203125 C 1.734375 0.203125 0.5 -1.203125 0.5 -3.671875 C 0.5 -6.125 1.75 -7.546875 3.8125 -7.546875 C 5.921875 -7.546875 7.140625 -6.140625 7.140625 -3.609375 Z M 5.921875 -3.625 C 5.921875 -5.453125 5.140625 -6.46875 3.828125 -6.46875 C 2.515625 -6.46875 1.71875 -5.4375 1.71875 -3.671875 C 1.71875 -1.890625 2.515625 -0.875 3.828125 -0.875 C 5.109375 -0.875 5.921875 -1.90625 5.921875 -3.625 Z M 5.921875 -3.625 "/>
</g>
<g id="glyph-0-2-21b0292d">
<path d="M 6.796875 -7.34375 C 6.796875 -7.34375 3.984375 0 3.984375 0 C 3.984375 0 2.71875 0 2.71875 0 C 2.71875 0 0.140625 -7.34375 0.140625 -7.34375 C 0.140625 -7.34375 1.453125 -7.34375 1.453125 -7.34375 C 1.453125 -7.34375 3.421875 -1.390625 3.421875 -1.390625 C 3.421875 -1.390625 5.484375 -7.34375 5.484375 -7.34375 C 5.484375 -7.34375 6.796875 -7.34375 6.796875 -7.34375 Z M 6.796875 -7.34375 "/>
</g>
<g id="glyph-0-3-21b0292d">
<path d="M 7.484375 -0.03125 C 7.109375 0.0625 6.9375 0.09375 6.6875 0.09375 C 6.125 0.09375 5.609375 -0.3125 5.484375 -0.875 C 4.84375 -0.1875 3.9375 0.203125 3 0.203125 C 1.515625 0.203125 0.59375 -0.578125 0.59375 -1.90625 C 0.59375 -2.796875 1.015625 -3.453125 1.875 -3.8125 C 2.328125 -3.984375 2.578125 -4.046875 4.234375 -4.25 C 5.15625 -4.375 5.453125 -4.578125 5.453125 -5.0625 C 5.453125 -5.0625 5.453125 -5.375 5.453125 -5.375 C 5.453125 -6.078125 4.859375 -6.46875 3.8125 -6.46875 C 2.71875 -6.46875 2.1875 -6.0625 2.09375 -5.171875 C 2.09375 -5.171875 0.90625 -5.171875 0.90625 -5.171875 C 0.984375 -6.859375 2.078125 -7.546875 3.84375 -7.546875 C 5.65625 -7.546875 6.609375 -6.84375 6.609375 -5.546875 C 6.609375 -5.546875 6.609375 -1.453125 6.609375 -1.453125 C 6.609375 -1.09375 6.828125 -0.875 7.234375 -0.875 C 7.3125 -0.875 7.359375 -0.875 7.484375 -0.90625 C 7.484375 -0.90625 7.484375 -0.03125 7.484375 -0.03125 Z M 5.453125 -2.53125 C 5.453125 -2.53125 5.453125 -3.625 5.453125 -3.625 C 5.046875 -3.4375 4.796875 -3.390625 3.5625 -3.21875 C 2.328125 -3.03125 1.8125 -2.703125 1.8125 -1.9375 C 1.8125 -1.140625 2.34375 -0.8125 3.25 -0.8125 C 4.375 -0.8125 5.453125 -1.484375 5.453125 -2.53125 Z M 5.453125 -2.53125 "/>
</g>
<g id="glyph-0-4-21b0292d">
</g>
<g id="glyph-0-5-21b0292d">
<path d="M 4.5 -6.3125 C 2.6875 -6.28125 2.140625 -5.453125 2.140625 -3.8125 C 2.140625 -3.8125 2.140625 0 2.140625 0 C 2.140625 0 0.984375 0 0.984375 0 C 0.984375 0 0.984375 -7.34375 0.984375 -7.34375 C 0.984375 -7.34375 2.046875 -7.34375 2.046875 -7.34375 C 2.046875 -7.34375 2.046875 -6 2.046875 -6 C 2.71875 -7.09375 3.296875 -7.546875 4.046875 -7.546875 C 4.203125 -7.546875 4.296875 -7.53125 4.5 -7.5 C 4.5 -7.5 4.5 -6.3125 4.5 -6.3125 Z M 4.5 -6.3125 "/>
</g>
<g id="glyph-0-6-21b0292d">
<path d="M 7.1875 -3.328125 C 7.1875 -3.328125 1.78125 -3.328125 1.78125 -3.328125 C 1.8125 -1.65625 2.71875 -0.875 3.9375 -0.875 C 4.875 -0.875 5.53125 -1.265625 5.859375 -2.21875 C 5.859375 -2.21875 7.03125 -2.21875 7.03125 -2.21875 C 6.734375 -0.734375 5.578125 0.203125 3.890625 0.203125 C 1.828125 0.203125 0.5625 -1.21875 0.5625 -3.625 C 0.5625 -6.03125 1.875 -7.546875 3.921875 -7.546875 C 5.296875 -7.546875 6.40625 -6.8125 6.890625 -5.609375 C 7.09375 -5.0625 7.1875 -4.390625 7.1875 -3.328125 Z M 5.9375 -4.375 C 5.9375 -5.515625 5.046875 -6.46875 3.90625 -6.46875 C 2.734375 -6.46875 1.90625 -5.59375 1.8125 -4.28125 C 1.8125 -4.28125 5.921875 -4.28125 5.921875 -4.28125 C 5.9375 -4.3125 5.9375 -4.375 5.9375 -4.375 Z M 5.9375 -4.375 "/>
</g>
<g id="glyph-0-7-21b0292d">
<path d="M 6.8125 0 C 6.8125 0 5.65625 0 5.65625 0 C 5.65625 0 5.65625 -5.078125 5.65625 -5.078125 C 5.65625 -5.96875 5.0625 -6.53125 4.140625 -6.53125 C 2.953125 -6.53125 2.140625 -5.546875 2.140625 -4.046875 C 2.140625 -4.046875 2.140625 0 2.140625 0 C 2.140625 0 0.984375 0 0.984375 0 C 0.984375 0 0.984375 -7.34375 0.984375 -7.34375 C 0.984375 -7.34375 2.0625 -7.34375 2.0625 -7.34375 C 2.0625 -7.34375 2.0625 -6.109375 2.0625 -6.109375 C 2.703125 -7.125 3.40625 -7.546875 4.5 -7.546875 C 5.90625 -7.546875 6.8125 -6.765625 6.8125 -5.546875 C 6.8125 -5.546875 6.8125 0 6.8125 0 Z M 6.8125 0 "/>
</g>
<g id="glyph-0-8-21b0292d">
<path d="M 3.5625 0 C 3.15625 0.0625 2.890625 0.09375 2.609375 0.09375 C 1.6875 0.09375 1.1875 -0.328125 1.1875 -1.0625 C 1.1875 -1.0625 1.1875 -6.390625 1.1875 -6.390625 C 1.1875 -6.390625 0.203125 -6.390625 0.203125 -6.390625 C 0.203125 -6.390625 0.203125 -7.34375 0.203125 -7.34375 C 0.203125 -7.34375 1.1875 -7.34375 1.1875 -7.34375 C 1.1875 -7.34375 1.1875 -9.359375 1.1875 -9.359375 C 1.1875 -9.359375 2.359375 -9.359375 2.359375 -9.359375 C 2.359375 -9.359375 2.359375 -7.34375 2.359375 -7.34375 C 2.359375 -7.34375 3.5625 -7.34375 3.5625 -7.34375 C 3.5625 -7.34375 3.5625 -6.390625 3.5625 -6.390625 C 3.5625 -6.390625 2.359375 -6.390625 2.359375 -6.390625 C 2.359375 -6.390625 2.359375 -1.578125 2.359375 -1.578125 C 2.359375 -1.0625 2.484375 -0.921875 3 -0.921875 C 3.21875 -0.921875 3.40625 -0.9375 3.5625 -0.984375 C 3.5625 -0.984375 3.5625 0 3.5625 0 Z M 3.5625 0 "/>
</g>
<g id="glyph-0-9-21b0292d">
<path d="M 2.140625 0 C 2.140625 0 0.984375 0 0.984375 0 C 0.984375 0 0.984375 -7.34375 0.984375 -7.34375 C 0.984375 -7.34375 2.140625 -7.34375 2.140625 -7.34375 C 2.140625 -7.34375 2.140625 0 2.140625 0 Z M 2.296875 -8.4375 C 2.296875 -8.4375 0.84375 -8.4375 0.84375 -8.4375 C 0.84375 -8.4375 0.84375 -9.890625 0.84375 -9.890625 C 0.84375 -9.890625 2.296875 -9.890625 2.296875 -9.890625 C 2.296875 -9.890625 2.296875 -8.4375 2.296875 -8.4375 Z M 2.296875 -8.4375 "/>
</g>
<g id="glyph-0-10-21b0292d">
<path d="M 6.625 0 C 6.625 0 5.265625 0 5.265625 0 C 5.265625 0 3.4375 -2.8125 3.4375 -2.8125 C 3.4375 -2.8125 1.5625 0 1.5625 0 C 1.5625 0 0.234375 0 0.234375 0 C 0.234375 0 2.828125 -3.734375 2.828125 -3.734375 C 2.828125 -3.734375 0.375 -7.34375 0.375 -7.34375 C 0.375 -7.34375 1.703125 -7.34375 1.703125 -7.34375 C 1.703125 -7.34375 3.46875 -4.671875 3.46875 -4.671875 C 3.46875 -4.671875 5.234375 -7.34375 5.234375 -7.34375 C 5.234375 -7.34375 6.546875 -7.34375 6.546875 -7.34375 C 6.546875 -7.34375 4.09375 -3.796875 4.09375 -3.796875 C 4.09375 -3.796875 6.625 0 6.625 0 Z M 6.625 0 "/>
</g>
<g id="glyph-0-11-21b0292d">
<path d="M 7.09375 -4.78125 C 7.09375 -1.515625 5.953125 0.203125 3.84375 0.203125 C 1.71875 0.203125 0.609375 -1.515625 0.609375 -4.859375 C 0.609375 -8.1875 1.703125 -9.921875 3.84375 -9.921875 C 6 -9.921875 7.09375 -8.21875 7.09375 -4.78125 Z M 5.84375 -4.890625 C 5.84375 -7.546875 5.1875 -8.828125 3.84375 -8.828125 C 2.515625 -8.828125 1.859375 -7.5625 1.859375 -4.84375 C 1.859375 -2.125 2.515625 -0.8125 3.828125 -0.8125 C 5.1875 -0.8125 5.84375 -2.078125 5.84375 -4.890625 Z M 5.84375 -4.890625 "/>
</g>
<g id="glyph-0-12-21b0292d">
<path d="M 7.15625 -7.015625 C 7.15625 -5.796875 6.4375 -4.765625 5.046875 -4.015625 C 5.046875 -4.015625 3.65625 -3.265625 3.65625 -3.265625 C 2.4375 -2.546875 1.984375 -2.03125 1.859375 -1.21875 C 1.859375 -1.21875 7.078125 -1.21875 7.078125 -1.21875 C 7.078125 -1.21875 7.078125 0 7.078125 0 C 7.078125 0 0.46875 0 0.46875 0 C 0.59375 -2.1875 1.1875 -3.125 3.265625 -4.296875 C 3.265625 -4.296875 4.546875 -5.03125 4.546875 -5.03125 C 5.4375 -5.53125 5.890625 -6.203125 5.890625 -6.984375 C 5.890625 -8.046875 5.046875 -8.84375 3.9375 -8.84375 C 2.71875 -8.84375 2.03125 -8.140625 1.9375 -6.484375 C 1.9375 -6.484375 0.703125 -6.484375 0.703125 -6.484375 C 0.765625 -8.890625 1.953125 -9.921875 3.96875 -9.921875 C 5.859375 -9.921875 7.15625 -8.6875 7.15625 -7.015625 Z M 7.15625 -7.015625 "/>
</g>
<g id="glyph-0-13-21b0292d">
<path d="M 4.859375 0 C 4.859375 0 3.625 0 3.625 0 C 3.625 0 3.625 -7.0625 3.625 -7.0625 C 3.625 -7.0625 1.421875 -7.0625 1.421875 -7.0625 C 1.421875 -7.0625 1.421875 -7.953125 1.421875 -7.953125 C 3.328125 -8.1875 3.609375 -8.40625 4.046875 -9.921875 C 4.046875 -9.921875 4.859375 -9.921875 4.859375 -9.921875 C 4.859375 -9.921875 4.859375 0 4.859375 0 Z M 4.859375 0 "/>
</g>
<g id="glyph-0-14-21b0292d">
<path d="M 7.28125 -2.375 C 7.28125 -2.375 5.8125 -2.375 5.8125 -2.375 C 5.8125 -2.375 5.8125 0 5.8125 0 C 5.8125 0 4.578125 0 4.578125 0 C 4.578125 0 4.578125 -2.375 4.578125 -2.375 C 4.578125 -2.375 0.390625 -2.375 0.390625 -2.375 C 0.390625 -2.375 0.390625 -3.6875 0.390625 -3.6875 C 0.390625 -3.6875 4.90625 -9.921875 4.90625 -9.921875 C 4.90625 -9.921875 5.8125 -9.921875 5.8125 -9.921875 C 5.8125 -9.921875 5.8125 -3.484375 5.8125 -3.484375 C 5.8125 -3.484375 7.28125 -3.484375 7.28125 -3.484375 C 7.28125 -3.484375 7.28125 -2.375 7.28125 -2.375 Z M 4.578125 -3.484375 C 4.578125 -3.484375 4.578125 -7.828125 4.578125 -7.828125 C 4.578125 -7.828125 1.46875 -3.484375 1.46875 -3.484375 C 1.46875 -3.484375 4.578125 -3.484375 4.578125 -3.484375 Z M 4.578125 -3.484375 "/>
</g>
<g id="glyph-0-15-21b0292d">
<path d="M 7.1875 -3.078125 C 7.1875 -1.140625 5.828125 0.203125 3.9375 0.203125 C 1.671875 0.203125 0.609375 -1.421875 0.609375 -4.515625 C 0.609375 -7.984375 1.84375 -9.921875 4.15625 -9.921875 C 5.671875 -9.921875 6.734375 -8.953125 6.96875 -7.34375 C 6.96875 -7.34375 5.734375 -7.34375 5.734375 -7.34375 C 5.546875 -8.28125 4.9375 -8.828125 4.078125 -8.828125 C 2.65625 -8.828125 1.875 -7.484375 1.859375 -5.0625 C 2.390625 -5.796875 3.15625 -6.171875 4.140625 -6.171875 C 5.921875 -6.171875 7.1875 -4.921875 7.1875 -3.078125 Z M 5.921875 -2.984375 C 5.921875 -4.3125 5.1875 -5.078125 3.984375 -5.078125 C 2.765625 -5.078125 1.9375 -4.28125 1.9375 -3.046875 C 1.9375 -1.78125 2.796875 -0.875 3.953125 -0.875 C 5.078125 -0.875 5.921875 -1.734375 5.921875 -2.984375 Z M 5.921875 -2.984375 "/>
</g>
<g id="glyph-0-16-21b0292d">
<path d="M 7.1875 -2.796875 C 7.1875 -1 5.8125 0.203125 3.84375 0.203125 C 1.890625 0.203125 0.515625 -1 0.515625 -2.8125 C 0.515625 -3.90625 1.078125 -4.671875 2.21875 -5.21875 C 1.203125 -5.859375 0.875 -6.359375 0.875 -7.28125 C 0.875 -8.828125 2.09375 -9.921875 3.84375 -9.921875 C 5.609375 -9.921875 6.828125 -8.828125 6.828125 -7.28125 C 6.828125 -6.34375 6.5 -5.84375 5.46875 -5.21875 C 6.625 -4.671875 7.1875 -3.90625 7.1875 -2.796875 Z M 5.578125 -7.25 C 5.578125 -8.21875 4.90625 -8.828125 3.84375 -8.828125 C 2.8125 -8.828125 2.125 -8.21875 2.125 -7.265625 C 2.125 -6.328125 2.8125 -5.71875 3.84375 -5.71875 C 4.890625 -5.71875 5.578125 -6.328125 5.578125 -7.25 Z M 5.921875 -2.78125 C 5.921875 -3.953125 5.078125 -4.671875 3.84375 -4.671875 C 2.625 -4.671875 1.78125 -3.953125 1.78125 -2.78125 C 1.78125 -1.625 2.625 -0.875 3.828125 -0.875 C 5.078125 -0.875 5.921875 -1.609375 5.921875 -2.78125 Z M 5.921875 -2.78125 "/>
</g>
<g id="glyph-1-0-21b0292d">
<path d="M 3.5625 0 C 3.15625 0.0625 2.890625 0.09375 2.609375 0.09375 C 1.6875 0.09375 1.1875 -0.328125 1.1875 -1.0625 C 1.1875 -1.0625 1.1875 -6.390625 1.1875 -6.390625 C 1.1875 -6.390625 0.203125 -6.390625 0.203125 -6.390625 C 0.203125 -6.390625 0.203125 -7.34375 0.203125 -7.34375 C 0.203125 -7.34375 1.1875 -7.34375 1.1875 -7.34375 C 1.1875 -7.34375 1.1875 -9.359375 1.1875 -9.359375 C 1.1875 -9.359375 2.359375 -9.359375 2.359375 -9.359375 C 2.359375 -9.359375 2.359375 -7.34375 2.359375 -7.34375 C 2.359375 -7.34375 3.5625 -7.34375 3.5625 -7.34375 C 3.5625 -7.34375 3.5625 -6.390625 3.5625 -6.390625 C 3.5625 -6.390625 2.359375 -6.390625 2.359375 -6.390625 C 2.359375 -6.390625 2.359375 -1.578125 2.359375 -1.578125 C 2.359375 -1.0625 2.484375 -0.921875 3 -0.921875 C 3.21875 -0.921875 3.40625 -0.9375 3.5625 -0.984375 C 3.5625 -0.984375 3.5625 0 3.5625 0 Z M 3.5625 0 "/>
</g>
<g id="glyph-1-1-21b0292d">
<path d="M 6.421875 -2.0625 C 6.421875 -0.640625 5.25 0.203125 3.40625 0.203125 C 1.484375 0.203125 0.53125 -0.546875 0.46875 -2.234375 C 0.46875 -2.234375 1.703125 -2.234375 1.703125 -2.234375 C 1.859375 -1.125 2.453125 -0.875 3.5 -0.875 C 4.515625 -0.875 5.203125 -1.28125 5.203125 -1.953125 C 5.203125 -2.484375 4.890625 -2.734375 4.078125 -2.921875 C 4.078125 -2.921875 2.984375 -3.1875 2.984375 -3.1875 C 1.25 -3.609375 0.65625 -4.15625 0.65625 -5.3125 C 0.65625 -6.65625 1.765625 -7.546875 3.46875 -7.546875 C 5.171875 -7.546875 6.125 -6.734375 6.125 -5.296875 C 6.125 -5.296875 4.90625 -5.296875 4.90625 -5.296875 C 4.875 -6.0625 4.375 -6.46875 3.4375 -6.46875 C 2.484375 -6.46875 1.875 -6.03125 1.875 -5.359375 C 1.875 -4.84375 2.28125 -4.53125 3.234375 -4.3125 C 3.234375 -4.3125 4.359375 -4.046875 4.359375 -4.046875 C 5.8125 -3.703125 6.421875 -3.15625 6.421875 -2.0625 Z M 6.421875 -2.0625 "/>
</g>
<g id="glyph-1-2-21b0292d">
<path d="M 7.1875 -3.328125 C 7.1875 -3.328125 1.78125 -3.328125 1.78125 -3.328125 C 1.8125 -1.65625 2.71875 -0.875 3.9375 -0.875 C 4.875 -0.875 5.53125 -1.265625 5.859375 -2.21875 C 5.859375 -2.21875 7.03125 -2.21875 7.03125 -2.21875 C 6.734375 -0.734375 5.578125 0.203125 3.890625 0.203125 C 1.828125 0.203125 0.5625 -1.21875 0.5625 -3.625 C 0.5625 -6.03125 1.875 -7.546875 3.921875 -7.546875 C 5.296875 -7.546875 6.40625 -6.8125 6.890625 -5.609375 C 7.09375 -5.0625 7.1875 -4.390625 7.1875 -3.328125 Z M 5.9375 -4.375 C 5.9375 -5.515625 5.046875 -6.46875 3.90625 -6.46875 C 2.734375 -6.46875 1.90625 -5.59375 1.8125 -4.28125 C 1.8125 -4.28125 5.921875 -4.28125 5.921875 -4.28125 C 5.9375 -4.3125 5.9375 -4.375 5.9375 -4.375 Z M 5.9375 -4.375 "/>
</g>
<g id="glyph-1-3-21b0292d">
<path d="M 7.09375 -4.78125 C 7.09375 -1.515625 5.953125 0.203125 3.84375 0.203125 C 1.71875 0.203125 0.609375 -1.515625 0.609375 -4.859375 C 0.609375 -8.1875 1.703125 -9.921875 3.84375 -9.921875 C 6 -9.921875 7.09375 -8.21875 7.09375 -4.78125 Z M 5.84375 -4.890625 C 5.84375 -7.546875 5.1875 -8.828125 3.84375 -8.828125 C 2.515625 -8.828125 1.859375 -7.5625 1.859375 -4.84375 C 1.859375 -2.125 2.515625 -0.8125 3.828125 -0.8125 C 5.1875 -0.8125 5.84375 -2.078125 5.84375 -4.890625 Z M 5.84375 -4.890625 "/>
</g>
<g id="glyph-1-4-21b0292d">
<path d="M 4.859375 0 C 4.859375 0 3.625 0 3.625 0 C 3.625 0 3.625 -7.0625 3.625 -7.0625 C 3.625 -7.0625 1.421875 -7.0625 1.421875 -7.0625 C 1.421875 -7.0625 1.421875 -7.953125 1.421875 -7.953125 C 3.328125 -8.1875 3.609375 -8.40625 4.046875 -9.921875 C 4.046875 -9.921875 4.859375 -9.921875 4.859375 -9.921875 C 4.859375 -9.921875 4.859375 0 4.859375 0 Z M 4.859375 0 "/>
</g>
<g id="glyph-2-0-21b0292d">
<path d="M 2.140625 0 C 2.140625 0 0.984375 0 0.984375 0 C 0.984375 0 0.984375 -7.34375 0.984375 -7.34375 C 0.984375 -7.34375 2.140625 -7.34375 2.140625 -7.34375 C 2.140625 -7.34375 2.140625 0 2.140625 0 Z M 2.296875 -8.4375 C 2.296875 -8.4375 0.84375 -8.4375 0.84375 -8.4375 C 0.84375 -8.4375 0.84375 -9.890625 0.84375 -9.890625 C 0.84375 -9.890625 2.296875 -9.890625 2.296875 -9.890625 C 2.296875 -9.890625 2.296875 -8.4375 2.296875 -8.4375 Z M 2.296875 -8.4375 "/>
</g>
<g id="glyph-2-1-21b0292d">
</g>
<g id="glyph-2-2-21b0292d">
<path d="M 6.9375 0 C 6.9375 0 5.890625 0 5.890625 0 C 5.890625 0 5.890625 -1.078125 5.890625 -1.078125 C 5.265625 -0.171875 4.5625 0.203125 3.5625 0.203125 C 1.578125 0.203125 0.359375 -1.265625 0.359375 -3.734375 C 0.359375 -6.078125 1.609375 -7.546875 3.515625 -7.546875 C 4.5 -7.546875 5.28125 -7.15625 5.765625 -6.40625 C 5.765625 -6.40625 5.765625 -10.203125 5.765625 -10.203125 C 5.765625 -10.203125 6.9375 -10.203125 6.9375 -10.203125 C 6.9375 -10.203125 6.9375 0 6.9375 0 Z M 5.765625 -3.640625 C 5.765625 -5.328125 4.96875 -6.453125 3.703125 -6.453125 C 2.4375 -6.453125 1.578125 -5.375 1.578125 -3.671875 C 1.578125 -1.953125 2.4375 -0.875 3.71875 -0.875 C 4.953125 -0.875 5.765625 -1.953125 5.765625 -3.640625 Z M 5.765625 -3.640625 "/>
</g>
<g id="glyph-2-3-21b0292d">
<path d="M 7.09375 -4.78125 C 7.09375 -1.515625 5.953125 0.203125 3.84375 0.203125 C 1.71875 0.203125 0.609375 -1.515625 0.609375 -4.859375 C 0.609375 -8.1875 1.703125 -9.921875 3.84375 -9.921875 C 6 -9.921875 7.09375 -8.21875 7.09375 -4.78125 Z M 5.84375 -4.890625 C 5.84375 -7.546875 5.1875 -8.828125 3.84375 -8.828125 C 2.515625 -8.828125 1.859375 -7.5625 1.859375 -4.84375 C 1.859375 -2.125 2.515625 -0.8125 3.828125 -0.8125 C 5.1875 -0.8125 5.84375 -2.078125 5.84375 -4.890625 Z M 5.84375 -4.890625 "/>
</g>
<g id="glyph-3-0-21b0292d">
<path d="M 4.859375 0 C 4.859375 0 3.625 0 3.625 0 C 3.625 0 3.625 -7.0625 3.625 -7.0625 C 3.625 -7.0625 1.421875 -7.0625 1.421875 -7.0625 C 1.421875 -7.0625 1.421875 -7.953125 1.421875 -7.953125 C 3.328125 -8.1875 3.609375 -8.40625 4.046875 -9.921875 C 4.046875 -9.921875 4.859375 -9.921875 4.859375 -9.921875 C 4.859375 -9.921875 4.859375 0 4.859375 0 Z M 4.859375 0 "/>
</g>
<g id="glyph-3-1-21b0292d">
<path d="M 2.671875 0 C 2.671875 0 1.21875 0 1.21875 0 C 1.21875 0 1.21875 -1.453125 1.21875 -1.453125 C 1.21875 -1.453125 2.671875 -1.453125 2.671875 -1.453125 C 2.671875 -1.453125 2.671875 0 2.671875 0 Z M 2.671875 0 "/>
</g>
<g id="glyph-3-2-21b0292d">
<path d="M 6.640625 -1.625 C 6.640625 -1.625 5.96875 -0.953125 5.96875 -0.953125 C 5.96875 -0.953125 4.09375 -2.828125 4.09375 -2.828125 C 4.09375 -2.828125 2.21875 -0.953125 2.21875 -0.953125 C 2.21875 -0.953125 1.546875 -1.625 1.546875 -1.625 C 1.546875 -1.625 3.421875 -3.5 3.421875 -3.5 C 3.421875 -3.5 1.546875 -5.375 1.546875 -5.375 C 1.546875 -5.375 2.21875 -6.046875 2.21875 -6.046875 C 2.21875 -6.046875 4.09375 -4.171875 4.09375 -4.171875 C 4.09375 -4.171875 5.96875 -6.046875 5.96875 -6.046875 C 5.96875 -6.046875 6.640625 -5.375 6.640625 -5.375 C 6.640625 -5.375 4.765625 -3.5 4.765625 -3.5 C 4.765625 -3.5 6.640625 -1.625 6.640625 -1.625 Z M 6.640625 -1.625 "/>
</g>
<g id="glyph-4-0-21b0292d">
<path d="M 7.09375 -4.78125 C 7.09375 -1.515625 5.953125 0.203125 3.84375 0.203125 C 1.71875 0.203125 0.609375 -1.515625 0.609375 -4.859375 C 0.609375 -8.1875 1.703125 -9.921875 3.84375 -9.921875 C 6 -9.921875 7.09375 -8.21875 7.09375 -4.78125 Z M 5.84375 -4.890625 C 5.84375 -7.546875 5.1875 -8.828125 3.84375 -8.828125 C 2.515625 -8.828125 1.859375 -7.5625 1.859375 -4.84375 C 1.859375 -2.125 2.515625 -0.8125 3.828125 -0.8125 C 5.1875 -0.8125 5.84375 -2.078125 5.84375 -4.890625 Z M 5.84375 -4.890625 "/>
</g>
<g id="glyph-5-0-21b0292d">
<path d="M 7.09375 -4.78125 C 7.09375 -1.515625 5.953125 0.203125 3.84375 0.203125 C 1.71875 0.203125 0.609375 -1.515625 0.609375 -4.859375 C 0.609375 -8.1875 1.703125 -9.921875 3.84375 -9.921875 C 6 -9.921875 7.09375 -8.21875 7.09375 -4.78125 Z M 5.84375 -4.890625 C 5.84375 -7.546875 5.1875 -8.828125 3.84375 -8.828125 C 2.515625 -8.828125 1.859375 -7.5625 1.859375 -4.84375 C 1.859375 -2.125 2.515625 -0.8125 3.828125 -0.8125 C 5.1875 -0.8125 5.84375 -2.078125 5.84375 -4.890625 Z M 5.84375 -4.890625 "/>
</g>
<g id="glyph-5-1-21b0292d">
<path d="M 4.859375 0 C 4.859375 0 3.625 0 3.625 0 C 3.625 0 3.625 -7.0625 3.625 -7.0625 C 3.625 -7.0625 1.421875 -7.0625 1.421875 -7.0625 C 1.421875 -7.0625 1.421875 -7.953125 1.421875 -7.953125 C 3.328125 -8.1875 3.609375 -8.40625 4.046875 -9.921875 C 4.046875 -9.921875 4.859375 -9.921875 4.859375 -9.921875 C 4.859375 -9.921875 4.859375 0 4.859375 0 Z M 4.859375 0 "/>
</g>
<g id="glyph-6-0-21b0292d">
<path d="M 7.09375 -4.78125 C 7.09375 -1.515625 5.953125 0.203125 3.84375 0.203125 C 1.71875 0.203125 0.609375 -1.515625 0.609375 -4.859375 C 0.609375 -8.1875 1.703125 -9.921875 3.84375 -9.921875 C 6 -9.921875 7.09375 -8.21875 7.09375 -4.78125 Z M 5.84375 -4.890625 C 5.84375 -7.546875 5.1875 -8.828125 3.84375 -8.828125 C 2.515625 -8.828125 1.859375 -7.5625 1.859375 -4.84375 C 1.859375 -2.125 2.515625 -0.8125 3.828125 -0.8125 C 5.1875 -0.8125 5.84375 -2.078125 5.84375 -4.890625 Z M 5.84375 -4.890625 "/>
</g>
<g id="glyph-7-0-21b0292d">
<path d="M 0 -9.140625 C 0 -9.140625 0 -7.6875 0 -7.6875 C 0 -7.6875 -3.0625 -6.640625 -3.0625 -6.640625 C -3.0625 -6.640625 -3.0625 -2.703125 -3.0625 -2.703125 C -3.0625 -2.703125 0 -1.625 0 -1.625 C 0 -1.625 0 -0.234375 0 -0.234375 C 0 -0.234375 -10.203125 -3.875 -10.203125 -3.875 C -10.203125 -3.875 -10.203125 -5.5625 -10.203125 -5.5625 C -10.203125 -5.5625 0 -9.140625 0 -9.140625 Z M -4.15625 -6.265625 C -4.15625 -6.265625 -8.8125 -4.703125 -8.8125 -4.703125 C -8.8125 -4.703125 -4.15625 -3.03125 -4.15625 -3.03125 C -4.15625 -3.03125 -4.15625 -6.265625 -4.15625 -6.265625 Z M -4.15625 -6.265625 "/>
</g>
<g id="glyph-8-0-21b0292d">
<path d="M -3.75 -7.328125 C -1.375 -7.328125 0.203125 -6.0625 0.203125 -4.125 C 0.203125 -3.109375 -0.203125 -2.359375 -1.046875 -1.8125 C -1.046875 -1.8125 0 -1.8125 0 -1.8125 C 0 -1.8125 0 -0.75 0 -0.75 C 0 -0.75 -10.203125 -0.75 -10.203125 -0.75 C -10.203125 -0.75 -10.203125 -1.921875 -10.203125 -1.921875 C -10.203125 -1.921875 -6.34375 -1.921875 -6.34375 -1.921875 C -7.171875 -2.46875 -7.546875 -3.171875 -7.546875 -4.1875 C -7.546875 -6.125 -6.125 -7.328125 -3.75 -7.328125 Z M -3.6875 -6.109375 C -5.3125 -6.109375 -6.453125 -5.265625 -6.453125 -3.96875 C -6.515625 -2.734375 -5.390625 -1.921875 -3.671875 -1.921875 C -2 -1.921875 -0.875 -2.734375 -0.875 -3.96875 C -0.875 -5.234375 -2.015625 -6.109375 -3.6875 -6.109375 Z M -3.6875 -6.109375 "/>
</g>
<g id="glyph-9-0-21b0292d">
<path d="M 0 -6.75 C 0 -6.75 0 -5.703125 0 -5.703125 C 0 -5.703125 -1.140625 -5.703125 -1.140625 -5.703125 C -0.171875 -5.015625 0.203125 -4.328125 0.203125 -3.25 C 0.203125 -1.8125 -0.578125 -0.90625 -1.796875 -0.90625 C -1.796875 -0.90625 -7.34375 -0.90625 -7.34375 -0.90625 C -7.34375 -0.90625 -7.34375 -2.078125 -7.34375 -2.078125 C -7.34375 -2.078125 -2.25 -2.078125 -2.25 -2.078125 C -1.375 -2.078125 -0.8125 -2.65625 -0.8125 -3.578125 C -0.8125 -4.796875 -1.796875 -5.59375 -3.296875 -5.59375 C -3.296875 -5.59375 -7.34375 -5.59375 -7.34375 -5.59375 C -7.34375 -5.59375 -7.34375 -6.75 -7.34375 -6.75 C -7.34375 -6.75 0 -6.75 0 -6.75 Z M 0 -6.75 "/>
</g>
<g id="glyph-9-1-21b0292d">
<path d="M 0 -6.8125 C 0 -6.8125 0 -5.65625 0 -5.65625 C 0 -5.65625 -5.078125 -5.65625 -5.078125 -5.65625 C -5.96875 -5.65625 -6.53125 -5.0625 -6.53125 -4.140625 C -6.53125 -2.953125 -5.546875 -2.140625 -4.046875 -2.140625 C -4.046875 -2.140625 0 -2.140625 0 -2.140625 C 0 -2.140625 0 -0.984375 0 -0.984375 C 0 -0.984375 -7.34375 -0.984375 -7.34375 -0.984375 C -7.34375 -0.984375 -7.34375 -2.0625 -7.34375 -2.0625 C -7.34375 -2.0625 -6.109375 -2.0625 -6.109375 -2.0625 C -7.125 -2.703125 -7.546875 -3.40625 -7.546875 -4.5 C -7.546875 -5.90625 -6.765625 -6.8125 -5.546875 -6.8125 C -5.546875 -6.8125 0 -6.8125 0 -6.8125 Z M 0 -6.8125 "/>
</g>
<g id="glyph-9-2-21b0292d">
<path d="M 0 -6.9375 C 0 -6.9375 0 -5.890625 0 -5.890625 C 0 -5.890625 -1.078125 -5.890625 -1.078125 -5.890625 C -0.171875 -5.265625 0.203125 -4.5625 0.203125 -3.5625 C 0.203125 -1.578125 -1.265625 -0.359375 -3.734375 -0.359375 C -6.078125 -0.359375 -7.546875 -1.609375 -7.546875 -3.515625 C -7.546875 -4.5 -7.15625 -5.28125 -6.40625 -5.765625 C -6.40625 -5.765625 -10.203125 -5.765625 -10.203125 -5.765625 C -10.203125 -5.765625 -10.203125 -6.9375 -10.203125 -6.9375 C -10.203125 -6.9375 0 -6.9375 0 -6.9375 Z M -3.640625 -5.765625 C -5.328125 -5.765625 -6.453125 -4.96875 -6.453125 -3.703125 C -6.453125 -2.4375 -5.375 -1.578125 -3.671875 -1.578125 C -1.953125 -1.578125 -0.875 -2.4375 -0.875 -3.71875 C -0.875 -4.953125 -1.953125 -5.765625 -3.640625 -5.765625 Z M -3.640625 -5.765625 "/>
</g>
<g id="glyph-9-3-21b0292d">
<path d="M -0.03125 -7.484375 C 0.0625 -7.109375 0.09375 -6.9375 0.09375 -6.6875 C 0.09375 -6.125 -0.3125 -5.609375 -0.875 -5.484375 C -0.1875 -4.84375 0.203125 -3.9375 0.203125 -3 C 0.203125 -1.515625 -0.578125 -0.59375 -1.90625 -0.59375 C -2.796875 -0.59375 -3.453125 -1.015625 -3.8125 -1.875 C -3.984375 -2.328125 -4.046875 -2.578125 -4.25 -4.234375 C -4.375 -5.15625 -4.578125 -5.453125 -5.0625 -5.453125 C -5.0625 -5.453125 -5.375 -5.453125 -5.375 -5.453125 C -6.078125 -5.453125 -6.46875 -4.859375 -6.46875 -3.8125 C -6.46875 -2.71875 -6.0625 -2.1875 -5.171875 -2.09375 C -5.171875 -2.09375 -5.171875 -0.90625 -5.171875 -0.90625 C -6.859375 -0.984375 -7.546875 -2.078125 -7.546875 -3.84375 C -7.546875 -5.65625 -6.84375 -6.609375 -5.546875 -6.609375 C -5.546875 -6.609375 -1.453125 -6.609375 -1.453125 -6.609375 C -1.09375 -6.609375 -0.875 -6.828125 -0.875 -7.234375 C -0.875 -7.3125 -0.875 -7.359375 -0.90625 -7.484375 C -0.90625 -7.484375 -0.03125 -7.484375 -0.03125 -7.484375 Z M -2.53125 -5.453125 C -2.53125 -5.453125 -3.625 -5.453125 -3.625 -5.453125 C -3.4375 -5.046875 -3.390625 -4.796875 -3.21875 -3.5625 C -3.03125 -2.328125 -2.703125 -1.8125 -1.9375 -1.8125 C -1.140625 -1.8125 -0.8125 -2.34375 -0.8125 -3.25 C -0.8125 -4.375 -1.484375 -5.453125 -2.53125 -5.453125 Z M -2.53125 -5.453125 "/>
</g>
<g id="glyph-9-4-21b0292d">
<path d="M -2.515625 -6.671875 C -0.84375 -6.53125 0.203125 -5.4375 0.203125 -3.6875 C 0.203125 -1.6875 -1.234375 -0.4375 -3.59375 -0.4375 C -6.03125 -0.4375 -7.546875 -1.71875 -7.546875 -3.703125 C -7.546875 -5.328125 -6.65625 -6.453125 -4.875 -6.59375 C -4.875 -6.59375 -4.875 -5.421875 -4.875 -5.421875 C -5.890625 -5.28125 -6.46875 -4.65625 -6.46875 -3.6875 C -6.46875 -2.40625 -5.4375 -1.65625 -3.59375 -1.65625 C -1.859375 -1.65625 -0.875 -2.421875 -0.875 -3.703125 C -0.875 -4.703125 -1.34375 -5.3125 -2.515625 -5.5 C -2.515625 -5.5 -2.515625 -6.671875 -2.515625 -6.671875 Z M -2.515625 -6.671875 "/>
</g>
<g id="glyph-10-0-21b0292d">
<path d="M -3.328125 -7.1875 C -3.328125 -7.1875 -3.328125 -1.78125 -3.328125 -1.78125 C -1.65625 -1.8125 -0.875 -2.71875 -0.875 -3.9375 C -0.875 -4.875 -1.265625 -5.53125 -2.21875 -5.859375 C -2.21875 -5.859375 -2.21875 -7.03125 -2.21875 -7.03125 C -0.734375 -6.734375 0.203125 -5.578125 0.203125 -3.890625 C 0.203125 -1.828125 -1.21875 -0.5625 -3.625 -0.5625 C -6.03125 -0.5625 -7.546875 -1.875 -7.546875 -3.921875 C -7.546875 -5.296875 -6.8125 -6.40625 -5.609375 -6.890625 C -5.0625 -7.09375 -4.390625 -7.1875 -3.328125 -7.1875 Z M -4.375 -5.9375 C -5.515625 -5.9375 -6.46875 -5.046875 -6.46875 -3.90625 C -6.46875 -2.734375 -5.59375 -1.90625 -4.28125 -1.8125 C -4.28125 -1.8125 -4.28125 -5.921875 -4.28125 -5.921875 C -4.3125 -5.9375 -4.375 -5.9375 -4.375 -5.9375 Z M -4.375 -5.9375 "/>
</g>
<g id="glyph-11-0-21b0292d">
<path d="M 7.15625 -7.015625 C 7.15625 -5.796875 6.4375 -4.765625 5.046875 -4.015625 C 5.046875 -4.015625 3.65625 -3.265625 3.65625 -3.265625 C 2.4375 -2.546875 1.984375 -2.03125 1.859375 -1.21875 C 1.859375 -1.21875 7.078125 -1.21875 7.078125 -1.21875 C 7.078125 -1.21875 7.078125 0 7.078125 0 C 7.078125 0 0.46875 0 0.46875 0 C 0.59375 -2.1875 1.1875 -3.125 3.265625 -4.296875 C 3.265625 -4.296875 4.546875 -5.03125 4.546875 -5.03125 C 5.4375 -5.53125 5.890625 -6.203125 5.890625 -6.984375 C 5.890625 -8.046875 5.046875 -8.84375 3.9375 -8.84375 C 2.71875 -8.84375 2.03125 -8.140625 1.9375 -6.484375 C 1.9375 -6.484375 0.703125 -6.484375 0.703125 -6.484375 C 0.765625 -8.890625 1.953125 -9.921875 3.96875 -9.921875 C 5.859375 -9.921875 7.15625 -8.6875 7.15625 -7.015625 Z M 7.15625 -7.015625 "/>
</g>
<g id="glyph-11-1-21b0292d">
<path d="M 7.28125 -2.375 C 7.28125 -2.375 5.8125 -2.375 5.8125 -2.375 C 5.8125 -2.375 5.8125 0 5.8125 0 C 5.8125 0 4.578125 0 4.578125 0 C 4.578125 0 4.578125 -2.375 4.578125 -2.375 C 4.578125 -2.375 0.390625 -2.375 0.390625 -2.375 C 0.390625 -2.375 0.390625 -3.6875 0.390625 -3.6875 C 0.390625 -3.6875 4.90625 -9.921875 4.90625 -9.921875 C 4.90625 -9.921875 5.8125 -9.921875 5.8125 -9.921875 C 5.8125 -9.921875 5.8125 -3.484375 5.8125 -3.484375 C 5.8125 -3.484375 7.28125 -3.484375 7.28125 -3.484375 C 7.28125 -3.484375 7.28125 -2.375 7.28125 -2.375 Z M 4.578125 -3.484375 C 4.578125 -3.484375 4.578125 -7.828125 4.578125 -7.828125 C 4.578125 -7.828125 1.46875 -3.484375 1.46875 -3.484375 C 1.46875 -3.484375 4.578125 -3.484375 4.578125 -3.484375 Z M 4.578125 -3.484375 "/>
</g>
<g id="glyph-11-2-21b0292d">
<path d="M 7.1875 -3.078125 C 7.1875 -1.140625 5.828125 0.203125 3.9375 0.203125 C 1.671875 0.203125 0.609375 -1.421875 0.609375 -4.515625 C 0.609375 -7.984375 1.84375 -9.921875 4.15625 -9.921875 C 5.671875 -9.921875 6.734375 -8.953125 6.96875 -7.34375 C 6.96875 -7.34375 5.734375 -7.34375 5.734375 -7.34375 C 5.546875 -8.28125 4.9375 -8.828125 4.078125 -8.828125 C 2.65625 -8.828125 1.875 -7.484375 1.859375 -5.0625 C 2.390625 -5.796875 3.15625 -6.171875 4.140625 -6.171875 C 5.921875 -6.171875 7.1875 -4.921875 7.1875 -3.078125 Z M 5.921875 -2.984375 C 5.921875 -4.3125 5.1875 -5.078125 3.984375 -5.078125 C 2.765625 -5.078125 1.9375 -4.28125 1.9375 -3.046875 C 1.9375 -1.78125 2.796875 -0.875 3.953125 -0.875 C 5.078125 -0.875 5.921875 -1.734375 5.921875 -2.984375 Z M 5.921875 -2.984375 "/>
</g>
<g id="glyph-12-0-21b0292d">
<path d="M 7.09375 -4.78125 C 7.09375 -1.515625 5.953125 0.203125 3.84375 0.203125 C 1.71875 0.203125 0.609375 -1.515625 0.609375 -4.859375 C 0.609375 -8.1875 1.703125 -9.921875 3.84375 -9.921875 C 6 -9.921875 7.09375 -8.21875 7.09375 -4.78125 Z M 5.84375 -4.890625 C 5.84375 -7.546875 5.1875 -8.828125 3.84375 -8.828125 C 2.515625 -8.828125 1.859375 -7.5625 1.859375 -4.84375 C 1.859375 -2.125 2.515625 -0.8125 3.828125 -0.8125 C 5.1875 -0.8125 5.84375 -2.078125 5.84375 -4.890625 Z M 5.84375 -4.890625 "/>
</g>
<g id="glyph-13-0-21b0292d">
<path d="M 7.09375 -4.78125 C 7.09375 -1.515625 5.953125 0.203125 3.84375 0.203125 C 1.71875 0.203125 0.609375 -1.515625 0.609375 -4.859375 C 0.609375 -8.1875 1.703125 -9.921875 3.84375 -9.921875 C 6 -9.921875 7.09375 -8.21875 7.09375 -4.78125 Z M 5.84375 -4.890625 C 5.84375 -7.546875 5.1875 -8.828125 3.84375 -8.828125 C 2.515625 -8.828125 1.859375 -7.5625 1.859375 -4.84375 C 1.859375 -2.125 2.515625 -0.8125 3.828125 -0.8125 C 5.1875 -0.8125 5.84375 -2.078125 5.84375 -4.890625 Z M 5.84375 -4.890625 "/>
</g>
<g id="glyph-14-0-21b0292d">
<path d="M 0.96875 -10.28125 L 4.453125 -10.28125 L 4.453125 -9.625 L 1.78125 -9.625 L 1.78125 -8.234375 C 1.90625 -8.273438 2.035156 -8.300781 2.171875 -8.3125 C 2.296875 -8.332031 2.425781 -8.34375 2.5625 -8.34375 C 3.289062 -8.34375 3.867188 -8.171875 4.296875 -7.828125 C 4.722656 -7.472656 4.9375 -7 4.9375 -6.40625 C 4.9375 -5.789062 4.71875 -5.3125 4.28125 -4.96875 C 3.84375 -4.632812 3.222656 -4.46875 2.421875 -4.46875 C 2.148438 -4.46875 1.867188 -4.488281 1.578125 -4.53125 C 1.296875 -4.570312 1.003906 -4.628906 0.703125 -4.703125 L 0.703125 -5.484375 C 0.960938 -5.359375 1.234375 -5.265625 1.515625 -5.203125 C 1.796875 -5.140625 2.09375 -5.109375 2.40625 -5.109375 C 2.914062 -5.109375 3.316406 -5.222656 3.609375 -5.453125 C 3.898438 -5.691406 4.046875 -6.007812 4.046875 -6.40625 C 4.046875 -6.800781 3.898438 -7.113281 3.609375 -7.34375 C 3.316406 -7.582031 2.914062 -7.703125 2.40625 -7.703125 C 2.164062 -7.703125 1.925781 -7.675781 1.6875 -7.625 C 1.457031 -7.582031 1.21875 -7.515625 0.96875 -7.421875 Z M 0.96875 -10.28125 "/>
</g>
</g>
</defs>
<rect x="-120" y="-60" width="1440" height="720" fill="rgb(100%, 100%, 100%)" fill-opacity="1"/>
<path fill-rule="nonzero" fill="rgb(100%, 100%, 100%)" fill-opacity="1" d="M 95 541 L 1184 541 L 1184 16 L 95 16 Z M 95 541 "/>
<path fill="none" stroke-width="1" stroke-linecap="butt" stroke-linejoin="miter" stroke="rgb(0%, 0%, 0%)" stroke-opacity="0.12" stroke-miterlimit="1.154701" d="M 254.359375 541 L 254.359375 16 "/>
<path fill="none" stroke-width="1" stroke-linecap="butt" stroke-linejoin="miter" stroke="rgb(0%, 0%, 0%)" stroke-opacity="0.12" stroke-miterlimit="1.154701" d="M 474.636719 541 L 474.636719 16 "/>
<path fill="none" stroke-width="1" stroke-linecap="butt" stroke-linejoin="miter" stroke="rgb(0%, 0%, 0%)" stroke-opacity="0.12" stroke-miterlimit="1.154701" d="M 694.910156 541 L 694.910156 16 "/>
<path fill="none" stroke-width="1" stroke-linecap="butt" stroke-linejoin="miter" stroke="rgb(0%, 0%, 0%)" stroke-opacity="0.12" stroke-miterlimit="1.154701" d="M 915.1875 541 L 915.1875 16 "/>
<path fill="none" stroke-width="1" stroke-linecap="butt" stroke-linejoin="miter" stroke="rgb(0%, 0%, 0%)" stroke-opacity="0.12" stroke-miterlimit="1.154701" d="M 1135.460938 541 L 1135.460938 16 "/>
<path fill="none" stroke-width="1" stroke-linecap="butt" stroke-linejoin="miter" stroke="rgb(0%, 0%, 0%)" stroke-opacity="0.12" stroke-miterlimit="1.154701" d="M 95 403.738281 L 1184 403.738281 "/>
<path fill="none" stroke-width="1" stroke-linecap="butt" stroke-linejoin="miter" stroke="rgb(0%, 0%, 0%)" stroke-opacity="0.12" stroke-miterlimit="1.154701" d="M 95 265.949219 L 1184 265.949219 "/>
<path fill="none" stroke-width="1" stroke-linecap="butt" stroke-linejoin="miter" stroke="rgb(0%, 0%, 0%)" stroke-opacity="0.12" stroke-miterlimit="1.154701" d="M 95 128.164062 L 1184 128.164062 "/>
<g fill="rgb(0%, 0%, 0%)" fill-opacity="1">
<use xlink:href="#glyph-0-0-21b0292d" x="570.242004" y="581.567993"/>
</g>
<g fill="rgb(0%, 0%, 0%)" fill-opacity="1">
<use xlink:href="#glyph-0-1-21b0292d" x="579.580017" y="581.567993"/>
</g>
<g fill="rgb(0%, 0%, 0%)" fill-opacity="1">
<use xlink:href="#glyph-0-2-21b0292d" x="587.364014" y="581.567993"/>
</g>
<g fill="rgb(0%, 0%, 0%)" fill-opacity="1">
<use xlink:href="#glyph-0-3-21b0292d" x="594.364014" y="581.567993"/>
</g>
<g fill="rgb(0%, 0%, 0%)" fill-opacity="1">
<use xlink:href="#glyph-1-0-21b0292d" x="602.14801" y="581.567993"/>
</g>
<g fill="rgb(0%, 0%, 0%)" fill-opacity="1">
<use xlink:href="#glyph-1-1-21b0292d" x="606.039978" y="581.567993"/>
</g>
<g fill="rgb(0%, 0%, 0%)" fill-opacity="1">
<use xlink:href="#glyph-0-4-21b0292d" x="613.040039" y="581.567993"/>
</g>
<g fill="rgb(0%, 0%, 0%)" fill-opacity="1">
<use xlink:href="#glyph-0-5-21b0292d" x="616.932007" y="581.567993"/>
</g>
<g fill="rgb(0%, 0%, 0%)" fill-opacity="1">
<use xlink:href="#glyph-0-6-21b0292d" x="621.593994" y="581.567993"/>
</g>
<g fill="rgb(0%, 0%, 0%)" fill-opacity="1">
<use xlink:href="#glyph-1-0-21b0292d" x="629.377991" y="581.567993"/>
</g>
<g fill="rgb(0%, 0%, 0%)" fill-opacity="1">
<use xlink:href="#glyph-1-2-21b0292d" x="633.269958" y="581.567993"/>
</g>
<g fill="rgb(0%, 0%, 0%)" fill-opacity="1">
<use xlink:href="#glyph-0-7-21b0292d" x="641.054016" y="581.567993"/>
</g>
<g fill="rgb(0%, 0%, 0%)" fill-opacity="1">
<use xlink:href="#glyph-0-8-21b0292d" x="648.838013" y="581.567993"/>
</g>
<g fill="rgb(0%, 0%, 0%)" fill-opacity="1">
<use xlink:href="#glyph-2-0-21b0292d" x="652.730042" y="581.567993"/>
</g>
<g fill="rgb(0%, 0%, 0%)" fill-opacity="1">
<use xlink:href="#glyph-0-1-21b0292d" x="655.838013" y="581.567993"/>
</g>
<g fill="rgb(0%, 0%, 0%)" fill-opacity="1">
<use xlink:href="#glyph-0-7-21b0292d" x="663.622009" y="581.567993"/>
</g>
<g fill="rgb(0%, 0%, 0%)" fill-opacity="1">
<use xlink:href="#glyph-2-1-21b0292d" x="671.406006" y="581.567993"/>
</g>
<g fill="rgb(0%, 0%, 0%)" fill-opacity="1">
<use xlink:href="#glyph-0-9-21b0292d" x="675.297974" y="581.567993"/>
</g>
<g fill="rgb(0%, 0%, 0%)" fill-opacity="1">
<use xlink:href="#glyph-0-7-21b0292d" x="678.406006" y="581.567993"/>
</g>
<g fill="rgb(0%, 0%, 0%)" fill-opacity="1">
<use xlink:href="#glyph-2-2-21b0292d" x="686.190063" y="581.567993"/>
</g>
<g fill="rgb(0%, 0%, 0%)" fill-opacity="1">
<use xlink:href="#glyph-0-6-21b0292d" x="693.973999" y="581.567993"/>
</g>
<g fill="rgb(0%, 0%, 0%)" fill-opacity="1">
<use xlink:href="#glyph-0-10-21b0292d" x="701.757996" y="581.567993"/>
</g>
<g fill="rgb(0%, 0%, 0%)" fill-opacity="1">
<use xlink:href="#glyph-3-0-21b0292d" x="238.791916" y="562.257996"/>
</g>
<g fill="rgb(0%, 0%, 0%)" fill-opacity="1">
<use xlink:href="#glyph-4-0-21b0292d" x="246.575897" y="562.257996"/>
</g>
<g fill="rgb(0%, 0%, 0%)" fill-opacity="1">
<use xlink:href="#glyph-0-11-21b0292d" x="254.359924" y="562.257996"/>
</g>
<g fill="rgb(0%, 0%, 0%)" fill-opacity="1">
<use xlink:href="#glyph-5-0-21b0292d" x="262.143921" y="562.257996"/>
</g>
<g fill="rgb(0%, 0%, 0%)" fill-opacity="1">
<use xlink:href="#glyph-5-1-21b0292d" x="459.067657" y="562.257996"/>
</g>
<g fill="rgb(0%, 0%, 0%)" fill-opacity="1">
<use xlink:href="#glyph-0-12-21b0292d" x="466.851654" y="562.257996"/>
</g>
<g fill="rgb(0%, 0%, 0%)" fill-opacity="1">
<use xlink:href="#glyph-0-11-21b0292d" x="474.635651" y="562.257996"/>
</g>
<g fill="rgb(0%, 0%, 0%)" fill-opacity="1">
<use xlink:href="#glyph-4-0-21b0292d" x="482.419647" y="562.257996"/>
</g>
<g fill="rgb(0%, 0%, 0%)" fill-opacity="1">
<use xlink:href="#glyph-0-13-21b0292d" x="679.343384" y="562.257996"/>
</g>
<g fill="rgb(0%, 0%, 0%)" fill-opacity="1">
<use xlink:href="#glyph-0-14-21b0292d" x="687.12738" y="562.257996"/>
</g>
<g fill="rgb(0%, 0%, 0%)" fill-opacity="1">
<use xlink:href="#glyph-0-11-21b0292d" x="694.911377" y="562.257996"/>
</g>
<g fill="rgb(0%, 0%, 0%)" fill-opacity="1">
<use xlink:href="#glyph-1-3-21b0292d" x="702.695374" y="562.257996"/>
</g>
<g fill="rgb(0%, 0%, 0%)" fill-opacity="1">
<use xlink:href="#glyph-1-4-21b0292d" x="899.619141" y="562.257996"/>
</g>
<g fill="rgb(0%, 0%, 0%)" fill-opacity="1">
<use xlink:href="#glyph-0-15-21b0292d" x="907.403198" y="562.257996"/>
</g>
<g fill="rgb(0%, 0%, 0%)" fill-opacity="1">
<use xlink:href="#glyph-2-3-21b0292d" x="915.187195" y="562.257996"/>
</g>
<g fill="rgb(0%, 0%, 0%)" fill-opacity="1">
<use xlink:href="#glyph-0-11-21b0292d" x="922.97113" y="562.257996"/>
</g>
<g fill="rgb(0%, 0%, 0%)" fill-opacity="1">
<use xlink:href="#glyph-0-13-21b0292d" x="1119.894897" y="562.257996"/>
</g>
<g fill="rgb(0%, 0%, 0%)" fill-opacity="1">
<use xlink:href="#glyph-0-16-21b0292d" x="1127.678955" y="562.257996"/>
</g>
<g fill="rgb(0%, 0%, 0%)" fill-opacity="1">
<use xlink:href="#glyph-0-11-21b0292d" x="1135.462891" y="562.257996"/>
</g>
<g fill="rgb(0%, 0%, 0%)" fill-opacity="1">
<use xlink:href="#glyph-6-0-21b0292d" x="1143.246948" y="562.257996"/>
</g>
<g fill="rgb(0%, 0%, 0%)" fill-opacity="1">
<use xlink:href="#glyph-7-0-21b0292d" x="28.131687" y="313.913025"/>
</g>
<g fill="rgb(0%, 0%, 0%)" fill-opacity="1">
<use xlink:href="#glyph-8-0-21b0292d" x="28.131687" y="304.574982"/>
</g>
<g fill="rgb(0%, 0%, 0%)" fill-opacity="1">
<use xlink:href="#glyph-9-0-21b0292d" x="28.131687" y="296.791016"/>
</g>
<g fill="rgb(0%, 0%, 0%)" fill-opacity="1">
<use xlink:href="#glyph-9-1-21b0292d" x="28.131687" y="289.006989"/>
</g>
<g fill="rgb(0%, 0%, 0%)" fill-opacity="1">
<use xlink:href="#glyph-9-2-21b0292d" x="28.131687" y="281.222992"/>
</g>
<g fill="rgb(0%, 0%, 0%)" fill-opacity="1">
<use xlink:href="#glyph-9-3-21b0292d" x="28.131687" y="273.438995"/>
</g>
<g fill="rgb(0%, 0%, 0%)" fill-opacity="1">
<use xlink:href="#glyph-9-1-21b0292d" x="28.131687" y="265.654999"/>
</g>
<g fill="rgb(0%, 0%, 0%)" fill-opacity="1">
<use xlink:href="#glyph-9-4-21b0292d" x="28.131687" y="257.871002"/>
</g>
<g fill="rgb(0%, 0%, 0%)" fill-opacity="1">
<use xlink:href="#glyph-10-0-21b0292d" x="28.131687" y="250.871002"/>
</g>
<g fill="rgb(0%, 0%, 0%)" fill-opacity="1">
<use xlink:href="#glyph-11-0-21b0292d" x="36.183678" y="408.716705"/>
</g>
<g fill="rgb(0%, 0%, 0%)" fill-opacity="1">
<use xlink:href="#glyph-3-1-21b0292d" x="43.967701" y="408.716705"/>
</g>
<g fill="rgb(0%, 0%, 0%)" fill-opacity="1">
<use xlink:href="#glyph-12-0-21b0292d" x="47.859692" y="408.716705"/>
</g>
<g fill="rgb(0%, 0%, 0%)" fill-opacity="1">
<use xlink:href="#glyph-3-2-21b0292d" x="55.643715" y="408.716705"/>
</g>
<g fill="rgb(0%, 0%, 0%)" fill-opacity="1">
<use xlink:href="#glyph-3-0-21b0292d" x="63.819695" y="408.716705"/>
</g>
<g fill="rgb(0%, 0%, 0%)" fill-opacity="1">
<use xlink:href="#glyph-13-0-21b0292d" x="71.603683" y="408.716705"/>
</g>
<g fill="rgb(0%, 0%, 0%)" fill-opacity="1">
<use xlink:href="#glyph-14-0-21b0292d" x="79.387703" y="408.716705"/>
</g>
<g fill="rgb(0%, 0%, 0%)" fill-opacity="1">
<use xlink:href="#glyph-11-1-21b0292d" x="36.183678" y="270.929108"/>
</g>
<g fill="rgb(0%, 0%, 0%)" fill-opacity="1">
<use xlink:href="#glyph-3-1-21b0292d" x="43.967701" y="270.929108"/>
</g>
<g fill="rgb(0%, 0%, 0%)" fill-opacity="1">
<use xlink:href="#glyph-12-0-21b0292d" x="47.859692" y="270.929108"/>
</g>
<g fill="rgb(0%, 0%, 0%)" fill-opacity="1">
<use xlink:href="#glyph-3-2-21b0292d" x="55.643715" y="270.929108"/>
</g>
<g fill="rgb(0%, 0%, 0%)" fill-opacity="1">
<use xlink:href="#glyph-3-0-21b0292d" x="63.819695" y="270.929108"/>
</g>
<g fill="rgb(0%, 0%, 0%)" fill-opacity="1">
<use xlink:href="#glyph-13-0-21b0292d" x="71.603683" y="270.929108"/>
</g>
<g fill="rgb(0%, 0%, 0%)" fill-opacity="1">
<use xlink:href="#glyph-14-0-21b0292d" x="79.387703" y="270.929108"/>
</g>
<g fill="rgb(0%, 0%, 0%)" fill-opacity="1">
<use xlink:href="#glyph-11-2-21b0292d" x="36.183678" y="133.141541"/>
</g>
<g fill="rgb(0%, 0%, 0%)" fill-opacity="1">
<use xlink:href="#glyph-3-1-21b0292d" x="43.967701" y="133.141541"/>
</g>
<g fill="rgb(0%, 0%, 0%)" fill-opacity="1">
<use xlink:href="#glyph-12-0-21b0292d" x="47.859692" y="133.141541"/>
</g>
<g fill="rgb(0%, 0%, 0%)" fill-opacity="1">
<use xlink:href="#glyph-3-2-21b0292d" x="55.643715" y="133.141541"/>
</g>
<g fill="rgb(0%, 0%, 0%)" fill-opacity="1">
<use xlink:href="#glyph-3-0-21b0292d" x="63.819695" y="133.141541"/>
</g>
<g fill="rgb(0%, 0%, 0%)" fill-opacity="1">
<use xlink:href="#glyph-13-0-21b0292d" x="71.603683" y="133.141541"/>
</g>
<g fill="rgb(0%, 0%, 0%)" fill-opacity="1">
<use xlink:href="#glyph-14-0-21b0292d" x="79.387703" y="133.141541"/>
</g>
<path fill="none" stroke-width="1.5" stroke-linecap="butt" stroke-linejoin="miter" stroke="rgb(0%, 0%, 100%)" stroke-opacity="1" stroke-miterlimit="2" d="M 144.5 325.589844 L 145.386719 323.933594 L 146.269531 327.152344 L 147.15625 328.191406 L 148.039062 361.613281 L 148.925781 485.386719 L 149.8125 502.738281 L 150.695312 503.429688 L 151.582031 502.277344 L 152.464844 502.90625 L 153.351562 502.832031 L 154.234375 504.316406 L 155.121094 503.835938 L 156.003906 505.066406 L 156.890625 504.972656 L 157.777344 505.667969 L 158.660156 504.820312 L 159.546875 504.980469 L 160.429688 505.320312 L 161.316406 505.40625 L 162.199219 505.699219 L 163.085938 508.578125 L 163.96875 510.613281 L 164.855469 513.015625 L 165.738281 513.664062 L 166.625 513.480469 L 167.507812 513.738281 L 168.390625 513.253906 L 169.277344 513.523438 L 170.160156 513.855469 L 171.042969 513.292969 L 171.929688 513.710938 L 172.8125 513.574219 L 173.699219 514.246094 L 174.582031 512.28125 L 175.464844 511.796875 L 176.347656 485.742188 L 177.234375 414.101562 L 178.117188 408.570312 L 179 442.515625 L 179.882812 467.007812 L 180.769531 481.988281 L 181.652344 492.765625 L 182.535156 496.890625 L 183.417969 500.601562 L 184.300781 496.28125 L 185.183594 477.574219 L 186.066406 468.886719 L 186.949219 470.90625 L 187.832031 477.449219 L 188.714844 483.382812 L 189.597656 487.707031 L 190.480469 492.683594 L 191.363281 495.917969 L 192.246094 500.507812 L 193.128906 502.878906 L 194.011719 505.007812 L 194.890625 505.28125 L 195.773438 506.179688 L 196.65625 505.429688 L 197.539062 506.78125 L 198.417969 507.089844 L 199.300781 506.726562 L 200.183594 507.203125 L 201.0625 506.855469 L 201.945312 506.242188 L 202.824219 506.636719 L 203.707031 506.121094 L 204.585938 506.964844 L 205.46875 506.4375 L 206.347656 505.851562 L 207.230469 506.9375 L 208.109375 506.730469 L 208.988281 506.707031 L 209.867188 503.625 L 210.75 498.382812 L 211.628906 496.972656 L 212.507812 497.46875 L 213.386719 498.617188 L 214.265625 496.152344 L 215.144531 496.597656 L 216.023438 496.144531 L 216.902344 487.429688 L 217.78125 477.980469 L 218.660156 469.328125 L 219.539062 469.230469 L 220.417969 472 L 221.292969 473.910156 L 222.171875 476.605469 L 223.050781 478.855469 L 223.925781 474.429688 L 224.804688 434.238281 L 225.679688 382.582031 L 226.558594 371.734375 L 227.433594 384.695312 L 228.3125 392.628906 L 229.1875 404.535156 L 230.066406 423.109375 L 230.941406 439.289062 L 231.816406 442.683594 L 232.691406 432.976562 L 233.566406 423.945312 L 234.441406 418.085938 L 235.316406 415.511719 L 236.191406 411.414062 L 237.066406 408.164062 L 237.941406 403.4375 L 238.816406 391.242188 L 239.691406 356.867188 L 240.5625 337.582031 L 241.4375 344.511719 L 242.308594 351.1875 L 243.183594 356.113281 L 244.058594 359.34375 L 244.929688 359.761719 L 245.800781 360.582031 L 246.675781 366.246094 L 247.546875 373.046875 L 248.417969 373.910156 L 249.289062 378.59375 L 250.160156 379.964844 L 251.03125 385.324219 L 251.902344 387.660156 L 252.773438 382.867188 L 253.644531 381.105469 L 254.515625 380.746094 L 255.386719 379.617188 L 256.253906 384.105469 L 257.125 387.855469 L 257.992188 387.378906 L 258.863281 405.285156 L 259.734375 462.464844 L 260.601562 491.132812 L 261.46875 489.660156 L 262.335938 487.453125 L 263.207031 485.660156 L 264.074219 486.832031 L 264.941406 488.070312 L 265.808594 489.074219 L 266.675781 491.316406 L 267.542969 493.371094 L 268.410156 495.097656 L 269.277344 495.371094 L 270.144531 494.871094 L 271.007812 494.789062 L 271.875 495.914062 L 272.742188 496.453125 L 273.605469 496.792969 L 274.472656 496.453125 L 275.335938 497.96875 L 276.203125 498.101562 L 277.070312 499.476562 L 277.933594 500.753906 L 278.796875 500.875 L 279.664062 502.308594 L 280.527344 500.8125 L 281.390625 503.28125 L 282.253906 505.519531 L 283.117188 509.019531 L 283.984375 511.113281 L 284.847656 511.878906 L 285.710938 511.820312 L 286.574219 511.53125 L 287.4375 511.390625 L 288.300781 510.753906 L 289.164062 512.007812 L 290.027344 512.320312 L 290.890625 512.902344 L 291.753906 513.785156 L 292.617188 513.972656 L 293.476562 512.191406 L 294.339844 510.882812 L 295.203125 510.359375 L 296.066406 511.714844 L 296.925781 512.554688 L 297.789062 512.417969 L 298.652344 512.796875 L 299.515625 514.542969 L 300.375 514.152344 L 301.238281 514.605469 L 302.097656 515 L 302.960938 514.929688 L 303.820312 514.957031 L 304.683594 515.164062 L 305.542969 515.570312 L 306.40625 515.351562 L 307.269531 516.597656 L 308.128906 515.992188 L 308.992188 515.839844 L 309.851562 516.054688 L 310.710938 516.085938 L 311.574219 516.289062 L 312.433594 517.136719 L 313.296875 516.3125 L 314.15625 515.3125 L 315.019531 514.867188 L 315.878906 515.539062 L 316.738281 515.457031 L 317.601562 515.3125 L 318.460938 512.332031 L 319.324219 507.0625 L 320.183594 508.554688 L 321.042969 509.960938 L 321.90625 510.640625 L 322.765625 512.035156 L 323.628906 510.464844 L 324.488281 511.597656 L 325.347656 509.8125 L 326.210938 510.835938 L 327.070312 510.40625 L 327.929688 510.984375 L 328.792969 510.097656 L 329.652344 509.65625 L 330.515625 509.550781 L 331.375 509.527344 L 332.238281 511.148438 L 333.097656 511.78125 L 333.957031 512.242188 L 334.820312 511.855469 L 335.679688 512.4375 L 336.542969 512.5 L 337.402344 512.613281 L 338.265625 511.515625 L 339.125 511.191406 L 339.988281 512.648438 L 340.847656 512.378906 L 341.710938 511.265625 L 342.574219 511.769531 L 343.433594 512.417969 L 344.296875 513.835938 L 345.15625 513.800781 L 346.019531 514.132812 L 346.882812 513.519531 L 347.746094 513.0625 L 348.605469 513.347656 L 349.46875 508.0625 L 350.332031 481.023438 L 351.195312 466.480469 L 352.054688 470.941406 L 352.917969 477.628906 L 353.78125 483.601562 L 354.644531 484.109375 L 355.507812 484.011719 L 356.371094 483.878906 L 357.234375 484.742188 L 358.097656 484.28125 L 358.960938 484.691406 L 359.824219 485.355469 L 360.6875 486.96875 L 361.554688 486.683594 L 362.417969 489.929688 L 363.28125 496.636719 L 364.144531 502.433594 L 365.011719 506.070312 L 365.875 508.921875 L 366.738281 510.09375 L 367.605469 510.605469 L 368.46875 508.949219 L 369.335938 503.050781 L 370.203125 414.316406 L 371.066406 179.421875 L 371.933594 207.277344 L 372.796875 350.269531 L 373.664062 383.792969 L 374.53125 414.269531 L 375.398438 440.21875 L 376.261719 457.261719 L 377.132812 472.050781 L 378 482.515625 L 378.867188 489.441406 L 379.734375 494.582031 L 380.601562 497.859375 L 381.46875 498.246094 L 382.335938 498.886719 L 383.203125 500.078125 L 384.070312 501.914062 L 384.941406 503.386719 L 385.808594 503.113281 L 386.679688 500.960938 L 387.546875 492.347656 L 388.417969 488.136719 L 389.285156 492.355469 L 390.15625 491.488281 L 391.023438 485.445312 L 391.894531 479.074219 L 392.765625 471.675781 L 393.636719 451.585938 L 394.507812 399.386719 L 395.378906 371.398438 L 396.25 382.128906 L 397.121094 387.859375 L 397.992188 394.855469 L 398.863281 398.5 L 399.734375 399.574219 L 400.609375 402.875 L 401.480469 404.761719 L 402.355469 411.367188 L 403.226562 395.269531 L 404.101562 319.390625 L 404.972656 328.277344 L 405.847656 432.625 L 406.722656 477.78125 L 407.59375 493.722656 L 408.46875 499.863281 L 409.34375 501.957031 L 410.21875 504.339844 L 411.09375 505.21875 L 411.96875 505.214844 L 412.847656 504.796875 L 413.722656 504.46875 L 414.597656 505.230469 L 415.472656 506.773438 L 416.351562 508.589844 L 417.230469 509.476562 L 418.105469 507.667969 L 418.984375 501.664062 L 419.859375 500.058594 L 420.738281 502.847656 L 421.617188 504.667969 L 422.496094 504.828125 L 423.375 506.101562 L 424.253906 505.15625 L 425.132812 505.011719 L 426.015625 505.8125 L 426.894531 504.339844 L 427.773438 504.378906 L 428.65625 504.324219 L 429.535156 499.734375 L 430.417969 426.683594 L 431.296875 263.960938 L 432.179688 287.046875 L 433.0625 365.484375 L 433.945312 367.160156 L 434.828125 380.550781 L 435.710938 434.59375 L 436.59375 463.816406 L 437.476562 473.527344 L 438.359375 480.851562 L 439.246094 484.855469 L 440.128906 491.71875 L 441.015625 497.375 L 441.898438 502.835938 L 442.785156 504.136719 L 443.671875 501.566406 L 444.558594 497.183594 L 445.445312 498.328125 L 446.332031 497.058594 L 447.21875 497.21875 L 448.105469 497.90625 L 448.992188 498.964844 L 449.882812 500.777344 L 450.769531 503.171875 L 451.660156 506.851562 L 452.546875 509.304688 L 453.4375 508.699219 L 454.328125 502.355469 L 455.21875 499.554688 L 456.109375 498.949219 L 457 497.371094 L 457.890625 497.910156 L 458.78125 499.453125 L 459.675781 503.3125 L 460.566406 506.425781 L 461.460938 511.996094 L 462.351562 514.535156 L 463.246094 514.976562 L 464.140625 515.816406 L 465.035156 514.675781 L 465.929688 512.695312 L 466.824219 511.855469 L 467.71875 512.339844 L 468.613281 507.527344 L 469.511719 500.585938 L 470.40625 493.472656 L 471.304688 488.382812 L 472.199219 482.496094 L 473.097656 478.421875 L 473.996094 471.164062 L 474.894531 464.28125 L 475.792969 465.945312 L 476.691406 467.652344 L 477.59375 467.589844 L 478.492188 462.066406 L 479.390625 465.125 L 480.292969 469.921875 L 481.195312 470.757812 L 482.097656 469.5 L 483 469.167969 L 483.898438 456.148438 L 484.804688 434.378906 L 485.707031 441.167969 L 486.609375 452.207031 L 487.511719 458.085938 L 488.417969 465.746094 L 489.324219 473.183594 L 490.226562 479.609375 L 491.132812 481.945312 L 492.039062 483.96875 L 492.945312 485.40625 L 493.851562 487.855469 L 494.757812 489.921875 L 495.664062 491.554688 L 496.574219 491.394531 L 497.480469 479.25 L 498.390625 463.15625 L 499.296875 459.035156 L 500.207031 459.96875 L 501.117188 462.507812 L 502.027344 475.722656 L 502.9375 490.789062 L 503.847656 496.304688 L 504.757812 498.816406 L 505.671875 500.859375 L 506.582031 502.367188 L 507.496094 502.683594 L 508.410156 504.148438 L 509.320312 503.296875 L 510.234375 502.441406 L 511.148438 492.390625 L 512.0625 483.058594 L 512.976562 478.386719 L 513.894531 475.902344 L 514.808594 479.539062 L 515.722656 486.347656 L 516.640625 490.429688 L 517.554688 498.800781 L 518.472656 503.523438 L 519.390625 506.132812 L 520.308594 508.6875 L 521.226562 510.5625 L 522.144531 510.808594 L 523.0625 510.660156 L 523.980469 510.800781 L 524.902344 508.03125 L 525.820312 502.796875 L 526.742188 497.71875 L 527.660156 496.027344 L 528.582031 498.074219 L 529.503906 503.9375 L 530.425781 507.054688 L 531.347656 506.085938 L 532.269531 506.902344 L 533.195312 508.75 L 534.117188 509.902344 L 535.039062 509.917969 L 535.964844 506.105469 L 536.890625 492.863281 L 537.8125 485.964844 L 538.738281 477.667969 L 539.664062 478.976562 L 540.589844 490.550781 L 541.515625 491.535156 L 542.441406 492.003906 L 543.371094 493.921875 L 544.296875 496.320312 L 545.226562 497.246094 L 546.152344 492.414062 L 547.082031 487.804688 L 548.011719 486.027344 L 548.941406 485.871094 L 549.871094 486.710938 L 550.800781 489.253906 L 551.730469 490.527344 L 552.660156 490.40625 L 553.589844 488.917969 L 554.523438 487.089844 L 555.453125 484.691406 L 556.386719 479.976562 L 557.320312 484.609375 L 558.25 490.921875 L 559.183594 492.457031 L 560.117188 494.308594 L 561.050781 492.570312 L 561.984375 489.914062 L 562.921875 489.347656 L 563.855469 488.589844 L 564.792969 488.324219 L 565.726562 489.375 L 566.664062 492.878906 L 567.601562 492.523438 L 568.535156 480.578125 L 569.472656 469.136719 L 570.410156 476.253906 L 571.347656 482.800781 L 572.289062 488.167969 L 573.226562 491.765625 L 574.167969 493.476562 L 575.105469 489.804688 L 576.042969 477.96875 L 576.984375 451.527344 L 577.925781 346.070312 L 578.867188 223.957031 L 579.808594 250.320312 L 580.75 350.398438 L 581.691406 434.878906 L 582.632812 464.945312 L 583.574219 474.472656 L 584.519531 476.359375 L 585.460938 476.109375 L 586.40625 485.46875 L 587.347656 484.773438 L 588.292969 464.746094 L 589.238281 451.359375 L 590.183594 471.449219 L 591.128906 479.300781 L 592.074219 483.972656 L 593.023438 486.949219 L 593.96875 489.6875 L 594.914062 490.511719 L 595.863281 488.789062 L 596.808594 485.480469 L 597.757812 482.148438 L 598.707031 485.6875 L 599.65625 474.992188 L 600.605469 309.058594 L 601.554688 39.863281 L 602.503906 149.488281 L 603.453125 329.519531 L 604.40625 413.96875 L 605.355469 448.894531 L 606.308594 462.667969 L 607.261719 464.820312 L 608.214844 473.757812 L 609.167969 478.84375 L 610.121094 477.457031 L 611.074219 472.925781 L 612.027344 476.671875 L 612.980469 480.855469 L 613.9375 483.789062 L 614.890625 486.714844 L 615.847656 489.84375 L 616.804688 489.980469 L 617.761719 489.148438 L 618.71875 488.496094 L 619.675781 489.46875 L 620.632812 488.636719 L 621.589844 485.878906 L 622.550781 484.746094 L 623.507812 489.328125 L 624.46875 493.371094 L 625.429688 495.042969 L 626.390625 492.320312 L 627.351562 483.800781 L 628.3125 471.65625 L 629.273438 472.542969 L 630.234375 480.75 L 631.199219 487.355469 L 632.160156 490.390625 L 633.125 491.5 L 634.089844 493.246094 L 635.054688 493.476562 L 636.019531 494.375 L 636.984375 494.957031 L 637.949219 494.03125 L 638.914062 491.308594 L 639.882812 490.839844 L 640.847656 489.296875 L 641.816406 488.90625 L 642.785156 489.421875 L 643.753906 487.261719 L 644.722656 483.074219 L 645.691406 485.914062 L 646.664062 487.28125 L 647.632812 475.542969 L 648.605469 465.058594 L 649.578125 477.730469 L 650.550781 488.558594 L 651.523438 486.5625 L 652.496094 483.578125 L 653.46875 488.234375 L 654.441406 492.800781 L 655.417969 493.371094 L 656.390625 494.578125 L 657.367188 489.484375 L 658.34375 483.21875 L 659.320312 483.210938 L 660.296875 483.652344 L 661.273438 471.734375 L 662.253906 457.378906 L 663.230469 465.15625 L 664.210938 480.359375 L 665.1875 484.730469 L 666.167969 485.769531 L 667.148438 481.308594 L 668.132812 473.171875 L 669.113281 464.785156 L 670.097656 471.53125 L 671.078125 482.695312 L 672.0625 488.457031 L 673.046875 490.261719 L 674.03125 490.640625 L 675.015625 492.640625 L 676 494.132812 L 676.988281 492.441406 L 677.972656 491.960938 L 678.960938 491.753906 L 679.949219 485.515625 L 680.9375 483.304688 L 681.925781 489.027344 L 682.914062 492.746094 L 683.902344 493.984375 L 684.894531 492.753906 L 685.886719 490.140625 L 686.875 485.433594 L 687.867188 489.125 L 688.859375 494.132812 L 689.855469 494.609375 L 690.847656 494.039062 L 691.839844 493.089844 L 692.835938 492.898438 L 693.832031 490.394531 L 694.828125 478.382812 L 695.824219 478.828125 L 696.820312 489.726562 L 697.820312 494.046875 L 698.816406 494.089844 L 699.816406 492.835938 L 700.816406 487.621094 L 701.816406 473.714844 L 702.816406 458.703125 L 703.820312 471.898438 L 704.820312 483.296875 L 705.820312 483.960938 L 706.824219 482.972656 L 707.828125 474.375 L 708.832031 462.628906 L 709.835938 473.722656 L 710.839844 484.007812 L 711.84375 488.714844 L 712.851562 493.132812 L 713.859375 493.355469 L 714.867188 496.101562 L 715.871094 495.5 L 716.878906 496.035156 L 717.886719 493.019531 L 718.898438 488.585938 L 719.90625 482.578125 L 720.917969 491.191406 L 721.929688 496.070312 L 722.9375 495.097656 L 723.949219 495.269531 L 724.960938 494.457031 L 725.972656 493.714844 L 726.984375 493.65625 L 728 493.964844 L 729.011719 493.867188 L 730.027344 493.910156 L 731.042969 494.96875 L 732.058594 493.070312 L 733.074219 490.371094 L 734.089844 490.589844 L 735.105469 494.40625 L 736.121094 492.613281 L 737.140625 483.828125 L 738.15625 472.210938 L 739.175781 482.457031 L 740.195312 491.277344 L 741.210938 494.507812 L 742.230469 494.773438 L 743.25 494.207031 L 744.273438 495.277344 L 745.292969 493.019531 L 746.3125 492.132812 L 747.335938 485.078125 L 748.355469 382.414062 L 749.378906 55.980469 L 750.402344 79.875 L 751.425781 297.375 L 752.449219 394.144531 L 753.472656 426.082031 L 754.496094 433.742188 L 755.519531 439.371094 L 756.542969 453.648438 L 757.570312 462.828125 L 758.597656 452.335938 L 759.621094 305.613281 L 760.648438 130.933594 L 761.675781 280.148438 L 762.703125 418.652344 L 763.730469 460.957031 L 764.757812 471.28125 L 765.785156 478.421875 L 766.8125 482.234375 L 767.84375 483.121094 L 768.871094 481.601562 L 769.902344 473.242188 L 770.929688 472.644531 L 771.960938 482.253906 L 772.992188 485.519531 L 774.019531 488.042969 L 775.050781 487.484375 L 776.082031 482.695312 L 777.117188 479.90625 L 778.148438 484.429688 L 779.179688 484.96875 L 780.210938 481.710938 L 781.246094 479.660156 L 782.277344 481.214844 L 783.308594 479.171875 L 784.34375 480.351562 L 785.378906 480.066406 L 786.414062 477.34375 L 787.445312 481.203125 L 788.480469 481.164062 L 789.515625 473.617188 L 790.550781 456.640625 L 791.585938 461.582031 L 792.621094 480.277344 L 793.65625 487.050781 L 794.691406 485.648438 L 795.730469 476.089844 L 796.765625 465.320312 L 797.804688 469.496094 L 798.839844 474.574219 L 799.878906 482.121094 L 800.914062 483.519531 L 801.953125 479.75 L 802.992188 479.113281 L 804.027344 470.917969 L 805.070312 461.714844 L 806.105469 475.355469 L 807.144531 481.753906 L 808.183594 479.757812 L 809.222656 483.734375 L 810.261719 487.308594 L 811.300781 483.960938 L 812.34375 439.308594 L 813.382812 355.84375 L 814.421875 394.535156 L 815.464844 459.25 L 816.507812 478.007812 L 817.546875 484.414062 L 818.589844 482.683594 L 819.632812 456.996094 L 820.675781 441.546875 L 821.71875 457.59375 L 822.765625 467.152344 L 823.808594 475.816406 L 824.855469 482.953125 L 825.898438 487.867188 L 826.945312 487.574219 L 827.992188 483.164062 L 829.039062 481.226562 L 830.085938 477.1875 L 831.132812 475.785156 L 832.183594 481.457031 L 833.234375 484.144531 L 834.285156 484.164062 L 835.335938 481.230469 L 836.386719 481.144531 L 837.4375 479.679688 L 838.492188 477.285156 L 839.546875 471.835938 L 840.597656 463.535156 L 841.65625 476.707031 L 842.710938 488.378906 L 843.769531 490.011719 L 844.824219 490.722656 L 845.882812 490.078125 L 846.941406 487.21875 L 848.003906 485.910156 L 849.0625 486.191406 L 850.125 485.554688 L 851.1875 483.914062 L 852.25 485.027344 L 853.316406 488.929688 L 854.382812 489.3125 L 855.449219 489.753906 L 856.515625 487.804688 L 857.585938 480.738281 L 858.65625 479.390625 L 859.726562 484.0625 L 860.796875 484.820312 L 861.867188 485.527344 L 862.945312 486.816406 L 864.019531 491.734375 L 865.09375 491.351562 L 866.171875 485.625 L 867.25 480.636719 L 868.328125 484.085938 L 869.410156 489.648438 L 870.492188 493 L 871.574219 493.421875 L 872.660156 489.382812 L 873.746094 485.382812 L 874.832031 485.632812 L 875.917969 488.234375 L 877.007812 492.550781 L 878.097656 493.347656 L 879.191406 493.691406 L 880.285156 491.574219 L 881.378906 489.867188 L 882.476562 488.839844 L 883.574219 492.789062 L 884.671875 493.914062 L 885.773438 492.089844 L 886.875 489.304688 L 887.976562 490.558594 L 889.082031 490.917969 L 890.1875 492.382812 L 891.296875 492.519531 L 892.40625 491.429688 L 893.515625 488.546875 L 894.628906 488.203125 L 895.742188 489.359375 L 896.859375 490.792969 L 897.976562 491.285156 L 899.09375 491.871094 L 900.214844 491.898438 L 901.335938 491.335938 L 902.460938 489.730469 L 903.585938 483.1875 L 904.710938 473.164062 L 905.839844 371.371094 L 906.972656 168.90625 L 908.105469 222.910156 L 909.238281 354.613281 L 910.375 417.28125 L 911.511719 445.402344 L 912.652344 460.089844 L 913.792969 455.660156 L 914.9375 442.257812 L 916.082031 452.75 L 917.226562 458.625 L 918.375 473.519531 L 919.527344 481.84375 L 920.679688 480.769531 L 921.835938 477.414062 L 922.996094 474.675781 L 924.152344 474.867188 L 925.316406 481.757812 L 926.480469 484.371094 L 927.648438 485.816406 L 928.816406 486.539062 L 929.992188 489.125 L 931.164062 483.613281 L 932.34375 445.046875 L 933.527344 423.253906 L 934.710938 454.109375 L 935.898438 471.011719 L 937.085938 450.675781 L 938.28125 327.070312 L 939.476562 317.914062 L 940.675781 445.605469 L 941.878906 476.582031 L 943.085938 473.113281 L 944.296875 469.53125 L 945.511719 480.089844 L 946.726562 485.277344 L 947.949219 485.34375 L 949.171875 486.035156 L 950.402344 487.226562 L 951.632812 487.179688 L 952.871094 485.535156 L 954.109375 486.136719 L 955.355469 490.542969 L 956.605469 488.472656 L 957.859375 487.914062 L 959.117188 487.007812 L 960.378906 487.355469 L 961.644531 487.351562 L 962.914062 482.769531 L 964.191406 477.738281 L 965.46875 466.476562 L 966.757812 427.847656 L 968.046875 416.574219 L 969.339844 451.285156 L 970.640625 467.449219 L 971.945312 473.945312 L 973.253906 479.21875 L 974.566406 479.195312 L 975.886719 479.460938 L 977.210938 476.355469 L 978.542969 474.375 L 979.878906 479.699219 L 981.222656 474.992188 L 982.566406 475.941406 L 983.921875 468.28125 L 985.277344 460.792969 L 986.640625 463.242188 L 988.011719 462.433594 L 989.386719 461.558594 L 990.769531 470.207031 L 992.160156 467.699219 L 993.550781 465.789062 L 994.953125 477.980469 L 996.359375 472.953125 L 997.769531 471.425781 L 999.1875 478.742188 L 1000.613281 475.886719 L 1002.046875 463.105469 L 1003.484375 456.40625 L 1004.929688 455.03125 L 1006.382812 459.40625 L 1007.839844 459.792969 L 1009.304688 462.859375 L 1010.777344 466.492188 L 1012.257812 465.5 L 1013.742188 472.148438 L 1015.238281 470.390625 L 1016.738281 462.039062 L 1018.246094 441.734375 L 1019.761719 459.941406 L 1021.285156 465.457031 L 1022.816406 432.996094 L 1024.351562 388.78125 L 1025.898438 437.515625 L 1027.453125 445.878906 L 1029.011719 451.433594 L 1030.582031 461.566406 L 1032.15625 449.296875 L 1033.742188 443.648438 L 1035.332031 449.699219 L 1036.929688 462.820312 L 1038.539062 464.988281 L 1040.152344 468.378906 L 1041.773438 470.613281 L 1043.402344 417.308594 L 1045.039062 364.035156 L 1046.683594 426.972656 L 1048.335938 450.496094 L 1049.996094 461.1875 L 1051.664062 457.089844 L 1053.339844 452.707031 L 1055.019531 454.25 L 1056.710938 461.25 L 1058.410156 464.769531 L 1060.113281 464.230469 L 1061.828125 460.546875 L 1063.546875 465.367188 L 1065.277344 464.03125 L 1067.011719 451.3125 L 1068.753906 448.894531 L 1070.503906 439.523438 L 1072.261719 418.496094 L 1074.027344 453.722656 L 1075.800781 457.929688 L 1077.585938 449.371094 L 1079.375 456.347656 L 1081.167969 457.554688 L 1082.972656 458.039062 L 1084.78125 460.277344 L 1086.601562 461.671875 L 1088.425781 457.085938 L 1090.261719 453.277344 L 1092.101562 443.792969 L 1093.953125 440.566406 L 1095.808594 432.894531 L 1097.671875 401.347656 L 1099.542969 394.328125 L 1101.421875 421.789062 L 1103.304688 366.804688 L 1105.199219 369.492188 L 1107.101562 450.835938 L 1109.007812 455.367188 L 1110.925781 460.839844 L 1112.851562 460.375 L 1114.78125 457.585938 L 1116.71875 448.851562 L 1118.664062 454.496094 L 1120.617188 464.230469 L 1122.578125 463.128906 L 1124.546875 462.585938 L 1126.519531 458.195312 L 1128.507812 454.417969 L 1130.496094 450.242188 L 1132.496094 449.796875 L 1134.5 421.660156 "/>
<path fill="none" stroke-width="1" stroke-linecap="butt" stroke-linejoin="miter" stroke="rgb(0%, 0%, 0%)" stroke-opacity="1" stroke-miterlimit="1.154701" d="M 254.359375 541.5 L 254.359375 546.5 "/>
<path fill="none" stroke-width="1" stroke-linecap="butt" stroke-linejoin="miter" stroke="rgb(0%, 0%, 0%)" stroke-opacity="1" stroke-miterlimit="1.154701" d="M 474.636719 541.5 L 474.636719 546.5 "/>
<path fill="none" stroke-width="1" stroke-linecap="butt" stroke-linejoin="miter" stroke="rgb(0%, 0%, 0%)" stroke-opacity="1" stroke-miterlimit="1.154701" d="M 694.910156 541.5 L 694.910156 546.5 "/>
<path fill="none" stroke-width="1" stroke-linecap="butt" stroke-linejoin="miter" stroke="rgb(0%, 0%, 0%)" stroke-opacity="1" stroke-miterlimit="1.154701" d="M 915.1875 541.5 L 915.1875 546.5 "/>
<path fill="none" stroke-width="1" stroke-linecap="butt" stroke-linejoin="miter" stroke="rgb(0%, 0%, 0%)" stroke-opacity="1" stroke-miterlimit="1.154701" d="M 1135.460938 541.5 L 1135.460938 546.5 "/>
<path fill="none" stroke-width="1" stroke-linecap="butt" stroke-linejoin="miter" stroke="rgb(0%, 0%, 0%)" stroke-opacity="1" stroke-miterlimit="1.154701" d="M 94.5 403.738281 L 89.5 403.738281 "/>
<path fill="none" stroke-width="1" stroke-linecap="butt" stroke-linejoin="miter" stroke="rgb(0%, 0%, 0%)" stroke-opacity="1" stroke-miterlimit="1.154701" d="M 94.5 265.949219 L 89.5 265.949219 "/>
<path fill="none" stroke-width="1" stroke-linecap="butt" stroke-linejoin="miter" stroke="rgb(0%, 0%, 0%)" stroke-opacity="1" stroke-miterlimit="1.154701" d="M 94.5 128.164062 L 89.5 128.164062 "/>
<path fill="none" stroke-width="1" stroke-linecap="butt" stroke-linejoin="miter" stroke="rgb(0%, 0%, 0%)" stroke-opacity="1" stroke-miterlimit="1.154701" d="M 94.5 541 L 1184.5 541 "/>
<path fill="none" stroke-width="1" stroke-linecap="butt" stroke-linejoin="miter" stroke="rgb(0%, 0%, 0%)" stroke-opacity="1" stroke-miterlimit="1.154701" d="M 95 541.5 L 95 15.5 "/>
<path fill="none" stroke-width="1" stroke-linecap="butt" stroke-linejoin="miter" stroke="rgb(0%, 0%, 0%)" stroke-opacity="1" stroke-miterlimit="1.154701" d="M 94.5 16 L 1184.5 16 "/>
<path fill="none" stroke-width="1" stroke-linecap="butt" stroke-linejoin="miter" stroke="rgb(0%, 0%, 0%)" stroke-opacity="1" stroke-miterlimit="1.154701" d="M 1184 541.5 L 1184 15.5 "/>
</svg>
